<?xml version="1.0" encoding="UTF-8" standalone="no"?>
<!-- Generated by graphviz version 2.34.0 (20130907.0228)
 -->

<!-- Title: G Pages: 1 -->

<svg
   xmlns:dc="http://purl.org/dc/elements/1.1/"
   xmlns:cc="http://creativecommons.org/ns#"
   xmlns:rdf="http://www.w3.org/1999/02/22-rdf-syntax-ns#"
   xmlns:svg="http://www.w3.org/2000/svg"
   xmlns="http://www.w3.org/2000/svg"
   xmlns:sodipodi="http://sodipodi.sourceforge.net/DTD/sodipodi-0.dtd"
   xmlns:inkscape="http://www.inkscape.org/namespaces/inkscape"
   width="1081pt"
   height="292pt"
   viewBox="0.00 0.00 1081.00 292.00"
   id="svg2"
   version="1.1"
   inkscape:version="0.48.5 r10040"
   sodipodi:docname="discontinuity_hypergraph.svg"
   inkscape:export-filename="/Users/djb/balisage_2017/Balisage-1-3-xsl/discontinuity_hypergraph.png"
   inkscape:export-xdpi="90"
   inkscape:export-ydpi="90">
  <metadata
     id="metadata86">
    <rdf:RDF>
      <cc:Work
         rdf:about="">
        <dc:format>image/svg+xml</dc:format>
        <dc:type
           rdf:resource="http://purl.org/dc/dcmitype/StillImage" />
      </cc:Work>
    </rdf:RDF>
  </metadata>
  <defs
     id="defs84">
    <inkscape:path-effect
       effect="spiro"
       id="path-effect4701"
       is_visible="true" />
    <inkscape:path-effect
       effect="spiro"
       id="path-effect4507"
       is_visible="true" />
    <inkscape:path-effect
       effect="spiro"
       id="path-effect4313"
       is_visible="true" />
    <marker
       inkscape:stockid="Arrow2Mend"
       orient="auto"
       refY="0.0"
       refX="0.0"
       id="Arrow2Mend"
       style="overflow:visible;">
      <path
         id="path3890"
         style="fill-rule:evenodd;stroke-width:0.62500000;stroke-linejoin:round;"
         d="M 8.7185878,4.0337352 L -2.2072895,0.016013256 L 8.7185884,-4.0017078 C 6.9730900,-1.6296469 6.9831476,1.6157441 8.7185878,4.0337352 z "
         transform="scale(0.6) rotate(180) translate(0,0)" />
    </marker>
    <inkscape:path-effect
       effect="spiro"
       id="path-effect3857"
       is_visible="true" />
    <inkscape:path-effect
       effect="spiro"
       id="path-effect3853"
       is_visible="true" />
    <inkscape:path-effect
       effect="spiro"
       id="path-effect3073"
       is_visible="true" />
  </defs>
  <sodipodi:namedview
     pagecolor="#ffffff"
     bordercolor="#666666"
     borderopacity="1"
     objecttolerance="10"
     gridtolerance="10"
     guidetolerance="10"
     inkscape:pageopacity="0"
     inkscape:pageshadow="2"
     inkscape:window-width="1203"
     inkscape:window-height="661"
     id="namedview82"
     showgrid="false"
     showguides="true"
     inkscape:guide-bbox="true"
     inkscape:zoom="0.68656732"
     inkscape:cx="718.21879"
     inkscape:cy="180.85028"
     inkscape:window-x="0"
     inkscape:window-y="0"
     inkscape:window-maximized="0"
     inkscape:current-layer="svg2">
    <sodipodi:guide
       position="0,0"
       orientation="0,1351.25"
       id="guide3063" />
    <sodipodi:guide
       position="1373.4997,418.02164"
       orientation="-365,0"
       id="guide3065" />
    <sodipodi:guide
       position="1351.25,365"
       orientation="0,-1351.25"
       id="guide3067" />
    <sodipodi:guide
       position="-29.130428,428.21729"
       orientation="365,0"
       id="guide3069" />
  </sodipodi:namedview>
  <g
     id="graph0"
     class="graph"
     transform="scale(1 1) rotate(0) translate(4 288)">
    <title
       id="title5">G</title>
    <polygon
       fill="white"
       stroke="white"
       points="-4,4 -4,-288 1077,-288 1077,4 -4,4"
       id="polygon7" />
    <!-- p -->
    <g
       id="node1"
       class="node">
      <title
         id="title10">p</title>
      <ellipse
         fill="cyan"
         stroke="black"
         cx="604"
         cy="-266"
         rx="27"
         ry="18"
         id="ellipse12"
         d="m 631,-266 c 0,9.94113 -12.08831,18 -27,18 -14.91169,0 -27,-8.05887 -27,-18 0,-9.94113 12.08831,-18 27,-18 14.91169,0 27,8.05887 27,18 z" />
      <text
         text-anchor="middle"
         x="604"
         y="-262.3"
         font-family="Times,serif"
         font-size="14.00"
         id="text14">p</text>
    </g>
    <!-- node1 -->
    <g
       id="node2"
       class="node">
      <title
         id="title17">node1</title>
      <ellipse
         fill="pink"
         stroke="black"
         cx="171"
         cy="-142"
         rx="171.18"
         ry="69.0935"
         id="ellipse19"
         d="m 342.17999,-142 c 0,38.15929 -76.63989,69.093498 -171.17999,69.093498 -94.540099,0 -171.17999268,-30.934208 -171.17999268,-69.093498 0,-38.15929 76.63989368,-69.0935 171.17999268,-69.0935 94.5401,0 171.17999,30.93421 171.17999,69.0935 z" />
      <text
         text-anchor="middle"
         x="171"
         y="-175.8"
         font-family="Times,serif"
         font-size="14.00"
         id="text21">Alice was beginning to get very tired</text>
      <text
         text-anchor="middle"
         x="171"
         y="-160.8"
         font-family="Times,serif"
         font-size="14.00"
         id="text23">of sitting by her sister on thebank,</text>
      <text
         text-anchor="middle"
         x="171"
         y="-145.8"
         font-family="Times,serif"
         font-size="14.00"
         id="text25">and of having nothing to do: once or</text>
      <text
         text-anchor="middle"
         x="171"
         y="-130.8"
         font-family="Times,serif"
         font-size="14.00"
         id="text27">twice she had peeped into the book her</text>
      <text
         text-anchor="middle"
         x="171"
         y="-115.8"
         font-family="Times,serif"
         font-size="14.00"
         id="text29">sister was reading, but it had no pictures</text>
      <text
         text-anchor="middle"
         x="171"
         y="-100.8"
         font-family="Times,serif"
         font-size="14.00"
         id="text31">or conversations in it, </text>
    </g>
    <!-- p&#45;&gt;node1 -->
    <!-- node2 -->
    <g
       id="node3"
       class="node">
      <title
         id="title34">node2</title>
      <ellipse
         fill="pink"
         stroke="black"
         cx="497"
         cy="-142"
         rx="118.409"
         ry="18"
         id="ellipse36"
         d="m 615.409,-142 c 0,9.94113 -53.01352,18 -118.409,18 -65.39548,0 -118.409,-8.05887 -118.409,-18 0,-9.94113 53.01352,-18 118.409,-18 65.39548,0 118.409,8.05887 118.409,18 z" />
      <text
         text-anchor="middle"
         x="497"
         y="-138.3"
         font-family="Times,serif"
         font-size="14.00"
         id="text38">and what is the use of a book,</text>
    </g>
    <!-- p&#45;&gt;node2 -->
    <!-- node3 -->
    <g
       id="node4"
       class="node">
      <title
         id="title41">node3</title>
      <ellipse
         fill="pink"
         stroke="black"
         cx="712"
         cy="-142"
         rx="60.1672"
         ry="18"
         id="ellipse43"
         d="m 772.1672,-142 c 0,9.94113 -26.93777,18 -60.1672,18 -33.22943,0 -60.1672,-8.05887 -60.1672,-18 0,-9.94113 26.93777,-18 60.1672,-18 33.22943,0 60.1672,8.05887 60.1672,18 z" />
      <text
         text-anchor="middle"
         x="712"
         y="-138.3"
         font-family="Times,serif"
         font-size="14.00"
         id="text45">thought Alice</text>
    </g>
    <!-- p&#45;&gt;node3 -->
    <!-- node4 -->
    <g
       id="node5"
       class="node">
      <title
         id="title48">node4</title>
      <ellipse
         fill="pink"
         stroke="black"
         cx="941"
         cy="-142"
         rx="132.382"
         ry="18"
         id="ellipse50"
         d="m 1073.382,-142 c 0,9.94113 -59.2694,18 -132.382,18 -73.11256,0 -132.382,-8.05887 -132.382,-18 0,-9.94113 59.26944,-18 132.382,-18 73.1126,0 132.382,8.05887 132.382,18 z" />
      <text
         text-anchor="middle"
         x="941"
         y="-138.3"
         font-family="Times,serif"
         font-size="14.00"
         id="text52">without pictures or conversation?</text>
    </g>
    <!-- p&#45;&gt;node4 -->
    <!-- node1&#45;&gt;node2 -->
    <g
       id="edge5"
       class="edge">
      <title
         id="title55">node1-&gt;node2</title>
      <path
         fill="none"
         stroke="black"
         d="M342.277,-142C350.893,-142 359.509,-142 368.124,-142"
         id="path57" />
      <polygon
         fill="black"
         stroke="black"
         points="368.238,-145.5 378.238,-142 368.238,-138.5 368.238,-145.5"
         id="polygon59" />
    </g>
    <!-- q -->
    <g
       id="node6"
       class="node">
      <title
         id="title62">q</title>
      <ellipse
         fill="green"
         stroke="black"
         cx="604"
         cy="-18"
         rx="27"
         ry="18"
         id="ellipse64"
         d="m 631,-18 c 0,9.9411255 -12.08831,18 -27,18 -14.91169,0 -27,-8.0588745 -27,-18 0,-9.941125 12.08831,-18 27,-18 14.91169,0 27,8.058875 27,18 z"
         style="fill:#00ff00;fill-opacity:1" />
      <text
         text-anchor="middle"
         x="604"
         y="-14.3"
         font-family="Times,serif"
         font-size="14.00"
         id="text66">q</text>
    </g>
    <!-- node1&#45;&gt;q -->
    <!-- node2&#45;&gt;node3 -->
    <g
       id="edge6"
       class="edge">
      <title
         id="title69">node2-&gt;node3</title>
      <path
         fill="none"
         stroke="black"
         d="M615.838,-142C624.387,-142 632.937,-142 641.487,-142"
         id="path71" />
      <polygon
         fill="black"
         stroke="black"
         points="641.523,-145.5 651.523,-142 641.523,-138.5 641.523,-145.5"
         id="polygon73" />
    </g>
    <!-- node2&#45;&gt;q -->
    <!-- node3&#45;&gt;node4 -->
    <g
       id="edge7"
       class="edge">
      <title
         id="title76">node3-&gt;node4</title>
      <path
         fill="none"
         stroke="black"
         d="M772.381,-142C781.06,-142 789.74,-142 798.419,-142"
         id="path78" />
      <polygon
         fill="black"
         stroke="black"
         points="798.608,-145.5 808.608,-142 798.608,-138.5 798.608,-145.5"
         id="polygon80" />
    </g>
    <!-- node3&#45;&gt;q -->
    <!-- node4&#45;&gt;q -->
  </g>
  <path
     style="fill:none;stroke:#00ff00;stroke-width:3;stroke-linecap:butt;stroke-linejoin:miter;stroke-miterlimit:4;stroke-opacity:1;stroke-dasharray:none"
     d="m 451.52163,164.00005 c 2.19535,-4.8787 5.71298,-9.1066 9.8865,-12.45369 4.17351,-3.3471 8.99178,-5.83607 14.01897,-7.666 10.05437,-3.65987 20.83406,-4.70153 31.44235,-6.0977 18.51894,-2.43729 36.86569,-6.03681 55.34781,-8.73913 17.84907,-2.60976 35.85244,-4.38311 53.89129,-4.36956 17.9937,0.0135 35.93185,1.80309 53.89129,2.91304 20.46492,1.2648 41.09726,1.66183 61.1739,5.82609 14.81487,3.07288 29.27351,8.22326 42.23912,16.02173 5.65468,3.40114 11.16194,7.4553 14.56522,13.1087 2.19355,3.64384 3.41578,7.81168 4.00004,12.0245 0.58425,4.21282 0.55012,8.48705 0.36952,12.73636 -0.23027,5.41785 -0.69684,10.83583 -0.5021,16.25507 0.19473,5.41924 1.07852,10.8949 3.41514,15.7884 3.61003,7.56035 10.47654,13.20238 18.06034,16.76287 7.5838,3.56049 15.90381,5.23155 24.17879,6.54147 24.05093,3.80725 48.47976,4.81592 72.82607,4.36957 18.61084,-0.3412 38.09883,-1.79936 53.89129,-11.65217 10.18764,-6.35599 18.33109,-16.19266 21.84782,-27.67391 1.9583,-6.39336 2.47819,-13.12194 3.15329,-19.77432 0.67509,-6.65239 1.54201,-13.38607 4.12932,-19.55176 3.18532,-7.59078 8.8802,-13.97197 15.5849,-18.74822 6.7048,-4.77626 14.3983,-8.02206 22.2847,-10.38221 16.9442,-5.07086 34.7837,-6.15916 52.4347,-7.2826 21.3446,-1.35853 42.6995,-2.8154 64.087,-2.91305 18.4568,-0.0843 36.901,0.84392 55.3478,1.45652 21.3562,0.70921 42.7239,0.99554 64.0869,1.45653 20.1242,0.43426 40.569,1.07696 59.7174,7.2826 10.5356,3.41439 20.8562,8.7504 27.6739,17.47826 7.6066,9.73774 10.0117,22.60137 10.1957,34.95651 0.098,6.55148 -0.3692,13.16083 -2.1266,19.47297 -1.7573,6.31214 -4.8612,12.3385 -9.5256,16.94007 -5.5352,5.4606 -12.9739,8.64788 -20.5535,10.38186 -7.5795,1.73397 -15.3901,2.12557 -23.1422,2.72683 -13.6321,1.05732 -27.2023,2.78035 -40.7826,4.36957 -19.8663,2.32483 -39.7689,4.36471 -59.7173,5.82608 -18.4264,1.34987 -36.8857,2.20571 -55.3479,2.91304 -21.3697,0.81872 -42.7524,1.43897 -64.0869,2.91305 -19.4292,1.34244 -38.8098,3.39247 -58.2608,4.36956 -16.494,0.82855 -33.01685,0.88445 -49.52178,1.45652 -18.46412,0.63998 -36.899,1.92568 -55.34781,2.91304 -17.94772,0.96055 -35.91881,1.63893 -53.89129,1.45653 -19.9318,-0.20228 -39.83737,-1.46288 -59.71738,-2.91305 -21.35582,-1.55782 -42.69937,-3.33515 -64.08694,-4.36956 -19.88979,-0.96197 -39.80511,-1.28077 -59.71738,-1.45652 -21.36942,-0.18861 -42.7529,-0.21299 -64.08694,-1.45652 -23.54924,-1.37266 -47.08653,-4.24571 -69.91303,-10.19565 -19.62285,-5.11488 -38.6099,-12.47241 -58.26085,-17.47826 -7.20596,-1.83563 -14.52569,-3.36298 -21.43766,-6.10525 -6.91197,-2.74228 -13.49822,-6.82773 -17.88842,-12.82953 -4.02506,-5.50263 -5.95742,-12.24719 -7.28261,-18.93478 -0.76176,-3.84422 -1.34949,-7.73466 -1.45652,-11.65217 -0.14952,-5.47237 0.66659,-11.02947 2.91304,-16.02173"
     id="path3071"
     inkscape:path-effect="#path-effect3073"
     inkscape:original-d="m 451.52163,164.00005 c 12.42166,-16.20032 35.8421,-20.1945 55.34782,-26.21739 17.84644,-5.51054 36.80152,-6.52629 55.34781,-8.73913 17.89578,-2.13522 35.87021,-4.12714 53.89129,-4.36956 17.98836,-0.24198 35.95117,1.57444 53.89129,2.91304 20.42679,1.52414 41.22391,1.18127 61.1739,5.82609 14.66629,3.41465 29.38311,8.18063 42.23912,16.02173 5.57646,3.40118 11.39749,7.3964 14.56522,13.1087 4.06459,7.32958 3.26093,16.45336 4.36956,24.76086 1.4187,10.63096 -2.95247,23.06428 2.91304,32.04347 8.79426,13.46265 26.79403,18.82878 42.23913,23.30434 23.35811,6.76853 48.57819,6.22828 72.82607,4.36957 18.32511,-1.4047 38.29751,-1.92506 53.89129,-11.65217 9.97188,-6.22028 16.99437,-16.96997 21.84782,-27.67391 5.50539,-12.14173 0.32453,-27.95436 7.28261,-39.32608 8.3121,-13.5846 23.1815,-22.97485 37.8696,-29.13043 16.2746,-6.82046 34.8629,-5.66647 52.4347,-7.2826 21.2945,-1.95851 42.7036,-2.70869 64.087,-2.91305 18.4548,-0.17637 36.8977,1.0041 55.3478,1.45652 21.3614,0.52381 42.7745,-0.0814 64.0869,1.45653 20.0013,1.44334 40.8277,0.55098 59.7174,7.2826 10.2773,3.66248 21.109,8.76393 27.6739,17.47826 7.3033,9.69456 10.3529,22.81985 10.1957,34.95651 -0.1651,12.74292 -2.559,27.48427 -11.6522,36.41304 -10.8503,10.6541 -28.7895,10.10109 -43.6957,13.10869 -13.4019,2.7041 -27.1816,2.97752 -40.7826,4.36957 -19.8963,2.03638 -39.7731,4.3291 -59.7173,5.82608 -18.423,1.3828 -36.8952,2.00808 -55.3479,2.91304 -21.3587,1.04748 -42.7412,1.62773 -64.0869,2.91305 -19.4396,1.17054 -38.8124,3.35477 -58.2608,4.36956 -16.492,0.86053 -33.02126,0.77973 -49.52178,1.45652 -18.45928,0.75713 -36.88764,2.1779 -55.34781,2.91304 -17.95609,0.71506 -35.92203,1.6517 -53.89129,1.45653 -19.92829,-0.21644 -39.8219,-1.74965 -59.71738,-2.91305 -21.3754,-1.24994 -42.69791,-3.38002 -64.08694,-4.36956 -19.89044,-0.92021 -39.81119,-0.98756 -59.71738,-1.45652 -21.3619,-0.50326 -42.79404,0.33133 -64.08694,-1.45652 -23.46827,-1.9705 -46.92027,-5.09904 -69.91303,-10.19565 -19.7949,-4.38777 -39.35823,-10.14467 -58.26085,-17.47826 -13.56398,-5.26237 -29.46628,-8.23626 -39.32608,-18.93478 -4.5828,-4.97264 -5.63735,-12.37564 -7.28261,-18.93478 -0.95234,-3.79667 -1.56512,-7.73939 -1.45652,-11.65217 0.15061,-5.42604 -0.38984,-11.71411 2.91304,-16.02173 z"
     inkscape:connector-curvature="0"
     transform="scale(0.8,0.8)"
     sodipodi:nodetypes="aaaaaaaaaaaaaaaaaaaaaaaaaaaaaaaaaaaaaaaaaaa" />
  <path
     style="fill:none;stroke:#00ffff;stroke-width:3;stroke-linecap:butt;stroke-linejoin:miter;stroke-miterlimit:4;stroke-opacity:1;stroke-dasharray:none"
     d="m -20.3913,172.73918 c -0.307419,8.57929 2.306483,17.08522 6.397739,24.63243 4.0912568,7.54721 9.6179301,14.22015 15.4500824,20.51973 11.7280796,12.66805 24.8706576,24.0624 39.3260776,33.49999 25.394874,16.5797 54.586688,26.91696 84.478241,32.04347 35.9742,6.16971 72.74409,4.9371 109.23911,4.36957 34.47074,-0.53605 68.95246,-0.46165 103.41301,-1.45653 32.0639,-0.92569 64.09274,-2.77663 96.13042,-4.36956 29.11282,-1.44751 58.24341,-2.68229 87.39128,-2.91304 33.98917,-0.26907 67.97209,0.82725 101.9565,1.45652 26.21758,0.48545 52.4412,0.69299 78.65216,1.45652 45.64443,1.32962 91.24922,4.34515 136.91301,4.36956 28.64958,0.0153 57.28684,-1.147 85.93476,-1.45652 26.70156,-0.28849 53.40609,0.16393 80.10871,0 25.2706,-0.15514 50.5513,-0.86311 75.7391,-2.91304 31.6373,-2.57484 63.0679,-7.26152 94.6739,-10.19565 26.1501,-2.42762 52.3994,-3.65347 78.6521,-4.36956 21.5647,-0.58822 43.4844,-0.88617 64.087,-7.28261 10.9617,-3.40325 21.692,-8.73692 29.1304,-17.47826 5.803,-6.8195 9.3057,-15.41792 10.7748,-24.25095 1.4691,-8.83303 0.9764,-17.90909 -0.5792,-26.7273 -2.4054,-13.63591 -7.4562,-26.99037 -16.0217,-37.86955 -10.5668,-13.42117 -25.9835,-22.426 -42.2391,-27.67391 -17.8179,-5.75227 -36.6811,-7.2825 -55.3478,-8.73913 -23.281,-1.8167 -46.5747,-3.57906 -69.9131,-4.36956 -17.9604,-0.60834 -35.939,-0.64081 -53.8912,-1.45652 -25.2645,-1.14797 -50.4541,-3.84619 -75.7392,-4.36957 -22.3304,-0.46222 -44.67813,0.77339 -66.99994,0 -27.24497,-0.94397 -54.32044,-4.87622 -81.5652,-5.82608 -20.86576,-0.72747 -41.7541,0.29709 -62.63042,0 -25.26423,-0.35953 -50.47365,-2.654024 -75.73911,-2.913046 -18.45,-0.189149 -36.91041,0.70745 -55.34781,0 -30.70953,-1.178336 -61.0903,-6.794541 -91.76085,-8.739129 -29.09623,-1.844772 -58.2943,-0.376256 -87.39129,1.456522 -31.06838,1.956953 -62.38874,4.320839 -93.21737,0 -37.85773,-5.306014 -74.02186,-20.576159 -112.15214,-23.304343 -22.77818,-1.629756 -45.62084,1.272904 -68.45651,1.456522 -29.652,0.238426 -59.47963,-4.099751 -88.84781,0 -23.63345,3.299192 -46.13501,11.954727 -68.456502,20.391299 -17.122831,6.471701 -34.295317,12.857765 -50.978249,20.391295 -15.174396,6.85232 -30.129058,14.79098 -42.2391204,26.21739 -5.104616,4.81645 -9.6814686,10.2507 -13.0823666,16.38985 -3.400897,6.13915 -5.601092,13.00948 -5.852412,20.02319"
     id="path3851"
     inkscape:path-effect="#path-effect3853"
     inkscape:original-d="m -20.3913,172.73918 c -0.241244,16.71832 11.623637,31.9224 21.8478214,45.15216 10.5299586,13.62542 24.5038776,24.73446 39.3260776,33.49999 25.923277,15.33047 54.96905,26.0229 84.478241,32.04347 35.70658,7.28499 72.80001,3.89775 109.23911,4.36957 34.47153,0.44635 68.95385,-0.43095 103.41301,-1.45653 32.06236,-0.95425 64.07872,-3.10696 96.13042,-4.36956 29.12402,-1.14727 58.24599,-2.63562 87.39128,-2.91304 33.98743,-0.32351 67.9721,0.89911 101.9565,1.45652 26.21836,0.43003 52.43861,0.79553 78.65216,1.45652 45.6464,1.151 91.25338,4.0281 136.91301,4.36956 28.64823,0.21424 57.28675,-1.21376 85.93476,-1.45652 26.70194,-0.22627 53.41074,0.51323 80.10871,0 25.2604,-0.4856 50.5411,-1.07384 75.7391,-2.91304 31.6562,-2.31059 63.0385,-7.61519 94.6739,-10.19565 26.1709,-2.13473 52.4876,-2.158 78.6521,-4.36956 21.4234,-1.81082 43.725,-0.38116 64.087,-7.28261 10.7246,-3.63496 22.6073,-8.22195 29.1304,-17.47826 9.9825,-14.16522 11.9502,-33.73803 10.1956,-50.97825 -1.3878,-13.636 -7.2389,-27.34681 -16.0217,-37.86955 -10.7859,-12.92267 -26.5354,-21.61368 -42.2391,-27.67391 -17.4253,-6.72462 -36.7819,-6.6978 -55.3478,-8.73913 -23.21,-2.55194 -46.5866,-3.32571 -69.9131,-4.36956 -17.9523,-0.80336 -35.937,-0.69616 -53.8912,-1.45652 -25.2657,-1.07 -50.4613,-3.64101 -75.7392,-4.36957 -22.324,-0.64343 -44.68082,0.7961 -66.99994,0 -27.24035,-0.97163 -54.32485,-4.85445 -81.5652,-5.82608 -20.86354,-0.74418 -41.75747,0.40126 -62.63042,0 -25.26037,-0.4856 -50.47874,-2.427449 -75.73911,-2.913046 -18.44586,-0.354597 -36.91933,0.875566 -55.34781,0 -30.69073,-1.458165 -61.05903,-7.536745 -91.76085,-8.739129 -29.11216,-1.140128 -58.25783,1.21376 -87.39129,1.456522 -31.07138,0.25891 -62.3078,3.177448 -93.21737,0 -37.98243,-3.904526 -74.13033,-19.804038 -112.15214,-23.304343 -22.72789,-2.09234 -45.6338,1.213755 -68.45651,1.456522 -29.61426,0.31501 -59.5416,-4.272006 -88.84781,0 C 136.6567,72.760624 114.24689,81.889462 91.760848,89.717455 74.476516,95.734593 57.116404,101.85279 40.782599,110.10875 25.993105,117.58414 9.8077403,124.17184 -1.4565214,136.32614 -10.755817,146.36021 -20.19391,159.05998 -20.3913,172.73918 z"
     inkscape:connector-curvature="0"
     transform="scale(0.8,0.8)"
     sodipodi:nodetypes="aaaaaaaaaaaaaaaaaaaaaaaaaaaaaaaaaaaaaaaa" />
  <g
     id="g4691"
     transform="matrix(1,0,0,1.047151,0,-4.2975138)">
    <path
       style="font-size:medium;font-style:normal;font-variant:normal;font-weight:normal;font-stretch:normal;text-indent:0;text-align:start;text-decoration:none;line-height:normal;letter-spacing:normal;word-spacing:normal;text-transform:none;direction:ltr;block-progression:tb;writing-mode:lr-tb;text-anchor:start;baseline-shift:baseline;color:#000000;fill:#000000;fill-opacity:1;fill-rule:nonzero;stroke:none;stroke-width:2.30834031;marker:none;visibility:visible;display:inline;overflow:visible;enable-background:accumulate;font-family:Sans;-inkscape-font-specification:Sans"
       d="m 604.75,41.71875 -1.15625,46.34375 2.3125,0.0625 1.15625,-46.34375 -2.3125,-0.0625 z"
       id="path4505"
       inkscape:connector-curvature="0" />
    <path
       d="m 610.63613,76.155935 -5.9431,14.987762 -5.1825,-15.267452 c 3.22352,2.499323 7.71733,2.59836 11.1256,0.27969 z"
       style="fill:#00ffff;fill-opacity:1;fill-rule:evenodd;stroke:#000000;stroke-width:0.80000001;stroke-linejoin:round;stroke-miterlimit:4;stroke-opacity:1;stroke-dasharray:none"
       id="path4697"
       inkscape:connector-curvature="0" />
  </g>
  <g
     id="g4885">
    <path
       style="font-size:medium;font-style:normal;font-variant:normal;font-weight:normal;font-stretch:normal;text-indent:0;text-align:start;text-decoration:none;line-height:normal;letter-spacing:normal;word-spacing:normal;text-transform:none;direction:ltr;block-progression:tb;writing-mode:lr-tb;text-anchor:start;baseline-shift:baseline;color:#000000;fill:#000000;fill-opacity:1;stroke:none;stroke-width:3;marker:none;visibility:visible;display:inline;overflow:visible;enable-background:accumulate;font-family:Sans;-inkscape-font-specification:Sans"
       d="m 617.60218,192.825 -6.8462,59.27508 2.32282,0.27984 6.8462,-59.27508 -2.32282,-0.27984 z"
       id="path4699"
       inkscape:connector-curvature="0" />
    <path
       d="m 611.46725,204.72982 7.61885,-14.93188 3.86976,16.31051 c -3.09196,-2.90258 -7.73376,-3.44501 -11.48861,-1.37863 z"
       style="fill-rule:evenodd;stroke-width:0.80000000000000004;stroke-linejoin:round;fill:#00ff00;fill-opacity:1;stroke:#000000;stroke-opacity:1;stroke-miterlimit:4;stroke-dasharray:none"
       id="path4891"
       inkscape:connector-curvature="0" />
  </g>
</svg>
