<?xml version="1.0" encoding="UTF-8" standalone="no"?>
<!-- Generated by graphviz version 2.34.0 (20130907.0228)
 -->

<!-- Title: G Pages: 1 -->

<svg
   xmlns:dc="http://purl.org/dc/elements/1.1/"
   xmlns:cc="http://creativecommons.org/ns#"
   xmlns:rdf="http://www.w3.org/1999/02/22-rdf-syntax-ns#"
   xmlns:svg="http://www.w3.org/2000/svg"
   xmlns="http://www.w3.org/2000/svg"
   xmlns:sodipodi="http://sodipodi.sourceforge.net/DTD/sodipodi-0.dtd"
   xmlns:inkscape="http://www.inkscape.org/namespaces/inkscape"
   width="575pt"
   height="176pt"
   viewBox="0.00 0.00 575.00 176.00"
   id="svg3874"
   version="1.1"
   inkscape:version="0.48.5 r10040"
   sodipodi:docname="edge_types_hypergraph.svg">
  <metadata
     id="metadata3997">
    <rdf:RDF>
      <cc:Work
         rdf:about="">
        <dc:format>image/svg+xml</dc:format>
        <dc:type
           rdf:resource="http://purl.org/dc/dcmitype/StillImage" />
      </cc:Work>
    </rdf:RDF>
  </metadata>
  <defs
     id="defs3995">
    <marker
       inkscape:stockid="Arrow2Mend"
       orient="auto"
       refY="0.0"
       refX="0.0"
       id="Arrow2Mend"
       style="overflow:visible;">
      <path
         id="path4046"
         style="fill-rule:evenodd;stroke-width:0.62500000;stroke-linejoin:round;"
         d="M 8.7185878,4.0337352 L -2.2072895,0.016013256 L 8.7185884,-4.0017078 C 6.9730900,-1.6296469 6.9831476,1.6157441 8.7185878,4.0337352 z "
         transform="scale(0.6) rotate(180) translate(0,0)" />
    </marker>
    <inkscape:path-effect
       effect="spiro"
       id="path-effect4005"
       is_visible="true" />
    <inkscape:path-effect
       effect="spiro"
       id="path-effect4001"
       is_visible="true" />
  </defs>
  <sodipodi:namedview
     pagecolor="#ffffff"
     bordercolor="#666666"
     borderopacity="1"
     objecttolerance="10"
     gridtolerance="10"
     guidetolerance="10"
     inkscape:pageopacity="0"
     inkscape:pageshadow="2"
     inkscape:window-width="1193"
     inkscape:window-height="698"
     id="namedview3993"
     showgrid="false"
     inkscape:zoom="1.2907466"
     inkscape:cx="328.38518"
     inkscape:cy="79.010183"
     inkscape:window-x="0"
     inkscape:window-y="0"
     inkscape:window-maximized="0"
     inkscape:current-layer="g4459">
    <sodipodi:guide
       position="0,0"
       orientation="0,718.75"
       id="guide4467" />
    <sodipodi:guide
       position="718.75,0"
       orientation="-220,0"
       id="guide4469" />
    <sodipodi:guide
       position="718.75,220"
       orientation="0,-718.75"
       id="guide4471" />
    <sodipodi:guide
       position="-9.2969451,244.04481"
       orientation="220,0"
       id="guide4473" />
  </sodipodi:namedview>
  <g
     id="graph0"
     class="graph"
     transform="scale(1 1) rotate(0) translate(4 172)">
    <title
       id="title3877">G</title>
    <polygon
       fill="white"
       stroke="white"
       points="-4,4 -4,-172 571,-172 571,4 -4,4"
       id="polygon3879" />
    <!-- document -->
    <g
       id="node1"
       class="node">
      <title
         id="title3882">document</title>
      <ellipse
         fill="beige"
         stroke="black"
         cx="115"
         cy="-106"
         rx="46.1964"
         ry="18"
         id="ellipse3884"
         d="m 161.1964,-106 c 0,9.941125 -20.68283,18 -46.1964,18 -25.513567,0 -46.1964,-8.058875 -46.1964,-18 0,-9.94113 20.682833,-18 46.1964,-18 25.51357,0 46.1964,8.05887 46.1964,18 z" />
      <text
         text-anchor="middle"
         x="115"
         y="-102.3"
         font-family="Times,serif"
         font-size="14.00"
         id="text3886">document</text>
    </g>
    <!-- text1 -->
    <g
       id="node5"
       class="node">
      <title
         id="title3889">text1</title>
      <ellipse
         fill="pink"
         stroke="black"
         cx="28"
         cy="-18"
         rx="28.3955"
         ry="18"
         id="ellipse3891"
         d="M 56.3955,-18 C 56.3955,-8.0588745 43.682402,0 28,0 12.317598,0 -0.39550018,-8.0588745 -0.39550018,-18 c 0,-9.941125 12.71309818,-18 28.39550018,-18 15.682402,0 28.3955,8.058875 28.3955,18 z" />
      <text
         text-anchor="middle"
         x="28"
         y="-14.3"
         font-family="Times,serif"
         font-size="14.00"
         id="text3893">text1</text>
    </g>
    <!-- document&#45;&gt;text1 -->
    <!-- document&#45;&gt;text1 -->
    <g
       id="edge6"
       class="edge">
      <title
         id="title3896">document-&gt;text1</title>
      <path
         fill="none"
         stroke="blue"
         d="M98.636,-88.8241C84.9714,-75.3166 65.3588,-55.9294 50.2655,-41.0095"
         id="path3898" />
      <polygon
         fill="blue"
         stroke="blue"
         points="52.4124,-38.2104 42.84,-33.6694 47.4913,-43.1887 52.4124,-38.2104"
         id="polygon3900" />
      <text
         text-anchor="middle"
         x="95"
         y="-58.3"
         font-family="Times,serif"
         font-size="14.00"
         fill="blue"
         id="text3902">order</text>
    </g>
    <!-- text2 -->
    <g
       id="node6"
       class="node">
      <title
         id="title3905">text2</title>
      <ellipse
         fill="pink"
         stroke="black"
         cx="157"
         cy="-18"
         rx="28.3955"
         ry="18"
         id="ellipse3907"
         d="m 185.3955,-18 c 0,9.9411255 -12.7131,18 -28.3955,18 -15.6824,0 -28.3955,-8.0588745 -28.3955,-18 0,-9.941125 12.7131,-18 28.3955,-18 15.6824,0 28.3955,8.058875 28.3955,18 z" />
      <text
         text-anchor="middle"
         x="157"
         y="-14.3"
         font-family="Times,serif"
         font-size="14.00"
         id="text3909">text2</text>
    </g>
    <!-- document&#45;&gt;text2 -->
    <!-- text3 -->
    <g
       id="node7"
       class="node">
      <title
         id="title3912">text3</title>
      <ellipse
         fill="pink"
         stroke="black"
         cx="286"
         cy="-18"
         rx="28.3955"
         ry="18"
         id="ellipse3914"
         d="m 314.3955,-18 c 0,9.9411255 -12.7131,18 -28.3955,18 -15.6824,0 -28.3955,-8.0588745 -28.3955,-18 0,-9.941125 12.7131,-18 28.3955,-18 15.6824,0 28.3955,8.058875 28.3955,18 z" />
      <text
         text-anchor="middle"
         x="286"
         y="-14.3"
         font-family="Times,serif"
         font-size="14.00"
         id="text3916">text3</text>
    </g>
    <!-- document&#45;&gt;text3 -->
    <!-- article -->
    <g
       id="node2"
       class="node"
       style="fill:#00ff00;fill-opacity:1">
      <ellipse
         fill="green"
         stroke="black"
         cx="213"
         cy="-106"
         rx="33.2209"
         ry="18"
         id="ellipse3921"
         d="m 246.2209,-106 c 0,9.941125 -14.8735,18 -33.2209,18 -18.3474,0 -33.2209,-8.058875 -33.2209,-18 0,-9.94113 14.8735,-18 33.2209,-18 18.3474,0 33.2209,8.05887 33.2209,18 z"
         style="fill:#00ff00;fill-opacity:1" />
      <title
         id="title3919">article</title>
      <text
         x="213"
         y="-102.3"
         font-size="14.00"
         id="text3923"
         style="font-size:14px;text-anchor:middle;fill:#000000;fill-opacity:1;font-family:'Times,serif'">article</text>
    </g>
    <!-- author1 -->
    <g
       id="node3"
       class="node">
      <title
         id="title3926">author1</title>
      <ellipse
         fill="yellow"
         stroke="black"
         cx="362"
         cy="-106"
         rx="44.271"
         ry="18"
         id="ellipse3928"
         d="m 406.271,-106 c 0,9.941125 -19.8208,18 -44.271,18 -24.4502,0 -44.271,-8.058875 -44.271,-18 0,-9.94113 19.8208,-18 44.271,-18 24.4502,0 44.271,8.05887 44.271,18 z" />
      <text
         text-anchor="middle"
         x="362"
         y="-102.3"
         font-family="Times,serif"
         font-size="14.00"
         id="text3930">author[0]</text>
    </g>
    <!-- article&#45;&gt;author1 -->
    <g
       id="edge7"
       class="edge">
      <title
         id="title3933">article-&gt;author1</title>
      <path
         fill="none"
         stroke="red"
         d="M256.672,-106C275.773,-106 298.158,-106 317.368,-106"
         id="path3935" />
      <polygon
         fill="red"
         stroke="red"
         points="256.439,-102.5 246.439,-106 256.438,-109.5 256.439,-102.5"
         id="polygon3937" />
      <text
         text-anchor="middle"
         x="281.577"
         y="-112.8"
         font-family="Times,serif"
         font-size="14.00"
         fill="red"
         id="text3939">A2M</text>
    </g>
    <!-- article&#45;&gt;author1 -->
    <g
       id="edge9"
       class="edge">
      <title
         id="title3942">article-&gt;author1</title>
      <path
         fill="none"
         stroke="blue"
         d="M239.549,-95.1914C248.038,-92.2506 257.571,-89.4724 266.577,-88 283.662,-85.2067 302.394,-87.5506 318.703,-91.3597"
         id="path3944" />
      <polygon
         fill="blue"
         stroke="blue"
         points="317.951,-94.7802 328.508,-93.8879 319.699,-88.0019 317.951,-94.7802"
         id="polygon3946" />
      <text
         text-anchor="middle"
         x="281.577"
         y="-91.8"
         font-family="Times,serif"
         font-size="14.00"
         fill="blue"
         id="text3948">order</text>
    </g>
    <!-- author2 -->
    <g
       id="node4"
       class="node">
      <title
         id="title3951">author2</title>
      <ellipse
         fill="yellow"
         stroke="black"
         cx="523"
         cy="-106"
         rx="44.271"
         ry="18"
         id="ellipse3953"
         d="m 567.271,-106 c 0,9.941125 -19.8208,18 -44.271,18 -24.4502,0 -44.271,-8.058875 -44.271,-18 0,-9.94113 19.8208,-18 44.271,-18 24.4502,0 44.271,8.05887 44.271,18 z" />
      <text
         text-anchor="middle"
         x="523"
         y="-102.3"
         font-family="Times,serif"
         font-size="14.00"
         id="text3955">author[1]</text>
    </g>
    <!-- article&#45;&gt;author2 -->
    <g
       id="edge8"
       class="edge">
      <title
         id="title3958">article-&gt;author2</title>
      <path
         fill="none"
         stroke="red"
         d="M248.679,-121.336C275.233,-131.883 312.668,-144.948 347,-150.5 400.359,-159.128 461.213,-136.225 495.573,-120.165"
         id="path3960" />
      <polygon
         fill="red"
         stroke="red"
         points="249.647,-117.952 239.064,-117.439 247.017,-124.439 249.647,-117.952"
         id="polygon3962" />
      <text
         text-anchor="middle"
         x="362"
         y="-146.3"
         font-family="Times,serif"
         font-size="14.00"
         fill="red"
         id="text3964">A2M</text>
    </g>
    <!-- author1&#45;&gt;author2 -->
    <g
       id="edge10"
       class="edge">
      <title
         id="title3967">author1-&gt;author2</title>
      <path
         fill="none"
         stroke="blue"
         d="M406.847,-106C425.863,-106 448.205,-106 468.188,-106"
         id="path3969" />
      <polygon
         fill="blue"
         stroke="blue"
         points="468.393,-109.5 478.393,-106 468.393,-102.5 468.393,-109.5"
         id="polygon3971" />
      <text
         text-anchor="middle"
         x="442.077"
         y="-112.8"
         font-family="Times,serif"
         font-size="14.00"
         fill="blue"
         id="text3973">order</text>
    </g>
    <!-- text1&#45;&gt;text2 -->
    <g
       id="edge4"
       class="edge">
      <title
         id="title3976">text1-&gt;text2</title>
      <path
         fill="none"
         stroke="blue"
         d="M56.3096,-18C74.4989,-18 98.3656,-18 118.297,-18"
         id="path3978" />
      <polygon
         fill="blue"
         stroke="blue"
         points="118.311,-21.5001 128.311,-18 118.311,-14.5001 118.311,-21.5001"
         id="polygon3980" />
      <text
         text-anchor="middle"
         x="92.2013"
         y="-24.8"
         font-family="Times,serif"
         font-size="14.00"
         fill="blue"
         id="text3982">order</text>
    </g>
    <!-- text2&#45;&gt;text3 -->
    <g
       id="edge5"
       class="edge">
      <title
         id="title3985">text2-&gt;text3</title>
      <path
         fill="none"
         stroke="blue"
         d="M185.31,-18C203.499,-18 227.366,-18 247.297,-18"
         id="path3987" />
      <polygon
         fill="blue"
         stroke="blue"
         points="247.311,-21.5001 257.311,-18 247.311,-14.5001 247.311,-21.5001"
         id="polygon3989" />
      <text
         text-anchor="middle"
         x="221.201"
         y="-24.8"
         font-family="Times,serif"
         font-size="14.00"
         fill="blue"
         id="text3991">order</text>
    </g>
    <path
       style="fill:none;stroke:#00ff00;stroke-width:3;stroke-linecap:butt;stroke-linejoin:miter;stroke-miterlimit:4;stroke-opacity:1;stroke-dasharray:none"
       d="m 2.3242363,171.96578 c -3.25513341,3.40483 -5.4086788,7.82593 -6.1911131,12.47099 -0.7824342,4.64505 -0.2054631,9.49625 1.5426405,13.87036 2.62694253,6.57315 7.8231837,11.94169 13.9454173,15.49491 5.415553,3.14308 11.575324,4.95219 17.819145,5.42321 9.574523,0.72229 19.088253,-1.64013 28.665581,-2.32423 6.957707,-0.49698 13.943504,-0.10646 20.918126,0 13.689017,0.20894 27.371237,-0.67758 41.061507,-0.77475 13.43165,-0.0953 26.85634,0.56918 40.28676,0.77475 11.62001,0.17786 23.24218,0.0121 34.86355,0 14.20384,-0.0148 28.40856,0.19978 42.611,0 12.13932,-0.17076 24.27321,-0.64421 36.41303,-0.77475 10.07118,-0.1083 20.14333,0.0194 30.21507,0 11.36324,-0.0219 22.72789,-0.23118 34.0888,0 10.34195,0.21045 20.67396,0.78579 30.98982,1.54949 5.67081,0.41982 11.3828,0.89592 17.029,0.22152 5.64619,-0.67439 11.30106,-2.59632 15.51031,-6.41948 3.56458,-3.23762 5.90955,-7.69932 6.9727,-12.39593 1.09901,-4.85504 0.8642,-10.01983 -0.77474,-14.72016 -2.58803,-7.42225 -8.55201,-13.35878 -15.49491,-17.0444 -8.74244,-4.6409 -18.82054,-5.95124 -28.66558,-6.97271 -7.23378,-0.75054 -14.48088,-1.38716 -21.69287,-2.32423 -9.53783,-1.23928 -19.04802,-3.00653 -28.66558,-3.09899 -11.41669,-0.10975 -22.71175,2.14211 -34.0888,3.09899 -13.90476,1.16947 -27.88817,0.40151 -41.83625,0 -14.45803,-0.41619 -28.92835,-0.43761 -43.38575,0 -11.62025,0.35173 -23.24015,1.00001 -34.86354,0.77474 -12.40549,-0.24043 -24.78018,-1.4755 -37.18778,-1.54949 -12.6663,-0.0755 -25.305507,1.05902 -37.962529,1.54949 -12.389641,0.48011 -24.796361,0.34296 -37.18778,0.77475 -9.918978,0.34564 -19.918948,1.07212 -29.440326,3.87372 -5.720656,1.68326 -11.374134,4.21192 -15.4949087,8.5222"
       id="path3999"
       inkscape:path-effect="#path-effect4001"
       inkscape:original-d="m 2.3242363,171.96578 c -5.190101,7.24983 -7.1045354,17.77018 -4.6484726,26.34135 1.9141261,6.67992 8.0829509,11.7644 13.9454173,15.49491 5.238114,3.33321 11.646117,4.75849 17.819145,5.42321 9.53145,1.02636 19.086873,-1.93654 28.665581,-2.32423 6.967005,-0.28198 13.945728,0.0658 20.918126,0 13.688996,-0.12913 27.371907,-0.77723 41.061507,-0.77475 13.4314,0.002 26.85598,0.64562 40.28676,0.77475 11.62065,0.11173 23.24237,0 34.86355,0 14.20367,0 28.40814,0.15108 42.611,0 12.13974,-0.12913 24.27329,-0.64562 36.41303,-0.77475 10.07112,-0.10713 20.14338,0 30.21507,0 11.36293,0 22.72941,-0.28381 34.0888,0 10.33962,0.25833 20.67168,2.26394 30.98982,1.54949 11.01507,-0.7627 23.57423,0.24726 32.53931,-6.19796 3.84929,-2.76735 5.89235,-7.77986 6.9727,-12.39593 1.11971,-4.78423 1.11692,-10.18538 -0.77474,-14.72016 -2.95607,-7.08644 -8.89264,-13.12445 -15.49491,-17.0444 -8.45573,-5.02041 -18.97801,-5.28311 -28.66558,-6.97271 -7.1642,-1.2495 -14.46228,-1.54603 -21.69287,-2.32423 -9.55569,-1.02844 -19.05506,-3.01715 -28.66558,-3.09899 -11.40938,-0.0971 -22.69073,2.58196 -34.0888,3.09899 -13.93109,0.63193 -27.89083,0 -41.83625,0 -14.46192,0 -28.92473,-0.16066 -43.38575,0 -11.62333,0.12913 -23.24004,0.88763 -34.86354,0.77474 -12.4061,-0.12049 -24.7811,-1.54422 -37.18778,-1.54949 -12.66471,-0.005 -25.303828,1.15933 -37.962529,1.54949 -12.392731,0.38197 -24.824792,-0.16452 -37.18778,0.77475 -9.869584,0.74984 -20.034961,0.78988 -29.440326,3.87372 -5.601233,1.83654 -12.0636263,3.72919 -15.4949087,8.5222 z"
       inkscape:connector-curvature="0"
       transform="matrix(0.8,0,0,0.8,-4,-172)"
       sodipodi:nodetypes="aaaaaaaaaaaaaaaaaaaaaaaaaaaaaa" />
    <g
       id="g4459">
      <path
         style="font-size:medium;font-style:normal;font-variant:normal;font-weight:normal;font-stretch:normal;text-indent:0;text-align:start;text-decoration:none;line-height:normal;letter-spacing:normal;word-spacing:normal;text-transform:none;direction:ltr;block-progression:tb;writing-mode:lr-tb;text-anchor:start;baseline-shift:baseline;color:#000000;fill:#000000;fill-opacity:1;stroke:none;stroke-width:3;marker:none;visibility:visible;display:inline;overflow:visible;enable-background:accumulate;font-family:Sans;-inkscape-font-specification:Sans"
         d="m 195.375,-90.325 -18.575,48.975 2.225,0.85 18.6,-48.975 -2.25,-0.85 z"
         id="path4003"
         inkscape:connector-curvature="0" />
      <path
         d="m 187.79752,-50.610098 -10.99414,12.654509 0.17682,-16.762356 c 2.30095,3.562428 6.67504,5.207984 10.81732,4.107847 z"
         style="fill-rule:evenodd;stroke-width:0.80000000000000004;stroke-linejoin:round;stroke:#000000;stroke-opacity:1;stroke-miterlimit:4;stroke-dasharray:none;fill:#00ff00;fill-opacity:1"
         id="path4465"
         inkscape:connector-curvature="0" />
    </g>
  </g>
</svg>
