<?xml version="1.0" encoding="UTF-8" standalone="no"?>
<!-- Generated by graphviz version 2.34.0 (20130907.0228)
 -->

<!-- Title: G Pages: 1 -->

<svg
   xmlns:dc="http://purl.org/dc/elements/1.1/"
   xmlns:cc="http://creativecommons.org/ns#"
   xmlns:rdf="http://www.w3.org/1999/02/22-rdf-syntax-ns#"
   xmlns:svg="http://www.w3.org/2000/svg"
   xmlns="http://www.w3.org/2000/svg"
   xmlns:sodipodi="http://sodipodi.sourceforge.net/DTD/sodipodi-0.dtd"
   xmlns:inkscape="http://www.inkscape.org/namespaces/inkscape"
   width="971pt"
   height="332pt"
   viewBox="0.00 0.00 971.00 332.00"
   id="svg2"
   version="1.1"
   inkscape:version="0.48.5 r10040"
   sodipodi:docname="feet.svg">
  <metadata
     id="metadata188">
    <rdf:RDF>
      <cc:Work
         rdf:about="">
        <dc:format>image/svg+xml</dc:format>
        <dc:type
           rdf:resource="http://purl.org/dc/dcmitype/StillImage" />
      </cc:Work>
    </rdf:RDF>
  </metadata>
  <defs
     id="defs186">
    <inkscape:path-effect
       effect="spiro"
       id="path-effect4795"
       is_visible="true" />
    <inkscape:path-effect
       effect="spiro"
       id="path-effect4601"
       is_visible="true" />
    <inkscape:path-effect
       effect="spiro"
       id="path-effect4597"
       is_visible="true" />
    <inkscape:path-effect
       effect="spiro"
       id="path-effect4593"
       is_visible="true" />
    <inkscape:path-effect
       effect="spiro"
       id="path-effect4399"
       is_visible="true" />
    <marker
       inkscape:stockid="Arrow2Mend"
       orient="auto"
       refY="0.0"
       refX="0.0"
       id="Arrow2Mend"
       style="overflow:visible;">
      <path
         id="path3976"
         style="fill-rule:evenodd;stroke-width:0.62500000;stroke-linejoin:round;"
         d="M 8.7185878,4.0337352 L -2.2072895,0.016013256 L 8.7185884,-4.0017078 C 6.9730900,-1.6296469 6.9831476,1.6157441 8.7185878,4.0337352 z "
         transform="scale(0.6) rotate(180) translate(0,0)" />
    </marker>
    <inkscape:path-effect
       effect="spiro"
       id="path-effect3943"
       is_visible="true" />
    <inkscape:path-effect
       effect="spiro"
       id="path-effect3939"
       is_visible="true" />
    <inkscape:path-effect
       effect="spiro"
       id="path-effect3167"
       is_visible="true" />
  </defs>
  <sodipodi:namedview
     pagecolor="#ffffff"
     bordercolor="#666666"
     borderopacity="1"
     objecttolerance="10"
     gridtolerance="10"
     guidetolerance="10"
     inkscape:pageopacity="0"
     inkscape:pageshadow="2"
     inkscape:window-width="1284"
     inkscape:window-height="734"
     id="namedview184"
     showgrid="false"
     inkscape:zoom="0.76434529"
     inkscape:cx="726.09727"
     inkscape:cy="266.18135"
     inkscape:window-x="0"
     inkscape:window-y="0"
     inkscape:window-maximized="0"
     inkscape:current-layer="g4979" />
  <g
     id="graph0"
     class="graph"
     transform="scale(1 1) rotate(0) translate(4 328)">
    <title
       id="title5">G</title>
    <polygon
       fill="white"
       stroke="white"
       points="-4,4 -4,-328 967,-328 967,4 -4,4"
       id="polygon7" />
    <!-- top1 -->
    <!-- top2 -->
    <!-- top1&#45;&gt;top2 -->
    <!-- document -->
    <g
       id="node9"
       class="node">
      <title
         id="title10">document</title>
      <ellipse
         fill="beige"
         stroke="black"
         cx="53"
         cy="-234"
         rx="46.1964"
         ry="18"
         id="ellipse12"
         d="m 99.1964,-234 c 0,9.94113 -20.682833,18 -46.1964,18 -25.513567,0 -46.1963997,-8.05887 -46.1963997,-18 0,-9.94113 20.6828327,-18 46.1963997,-18 25.513567,0 46.1964,8.05887 46.1964,18 z" />
      <text
         text-anchor="middle"
         x="53"
         y="-230.3"
         font-family="Times,serif"
         font-size="14.00"
         id="text14">document</text>
    </g>
    <!-- top1&#45;&gt;document -->
    <!-- foot1 -->
    <g
       id="node3"
       class="node">
      <title
         id="title17">foot1</title>
      <ellipse
         fill="violet"
         stroke="black"
         cx="291"
         cy="-306"
         rx="27"
         ry="18"
         id="ellipse19"
         d="m 318,-306 c 0,9.94113 -12.08831,18 -27,18 -14.91169,0 -27,-8.05887 -27,-18 0,-9.94113 12.08831,-18 27,-18 14.91169,0 27,8.05887 27,18 z" />
      <text
         text-anchor="middle"
         x="291"
         y="-302.3"
         font-family="Times,serif"
         font-size="14.00"
         id="text21">foot</text>
    </g>
    <!-- top2&#45;&gt;foot1 -->
    <!-- fake1 -->
    <!-- top2&#45;&gt;fake1 -->
    <!-- line -->
    <g
       id="node4"
       class="node">
      <title
         id="title24">line</title>
      <ellipse
         fill="#00ff00"
         stroke="black"
         cx="467"
         cy="-306"
         rx="27"
         ry="18"
         id="ellipse26"
         d="m 494,-306 c 0,9.94113 -12.08831,18 -27,18 -14.91169,0 -27,-8.05887 -27,-18 0,-9.94113 12.08831,-18 27,-18 14.91169,0 27,8.05887 27,18 z" />
      <text
         text-anchor="middle"
         x="467"
         y="-302.3"
         font-family="Times,serif"
         font-size="14.00"
         id="text28">line</text>
    </g>
    <!-- foot1&#45;&gt;line -->
    <!-- fake2 -->
    <!-- foot1&#45;&gt;fake2 -->
    <!-- top7 -->
    <!-- line&#45;&gt;top7 -->
    <!-- null -->
    <!-- line&#45;&gt;null -->
    <!-- top4 -->
    <!-- foot2 -->
    <g
       id="node7"
       class="node">
      <title
         id="title31">foot2</title>
      <ellipse
         fill="violet"
         stroke="black"
         cx="783"
         cy="-306"
         rx="27"
         ry="18"
         id="ellipse33"
         d="m 810,-306 c 0,9.94113 -12.08831,18 -27,18 -14.91169,0 -27,-8.05887 -27,-18 0,-9.94113 12.08831,-18 27,-18 14.91169,0 27,8.05887 27,18 z" />
      <text
         text-anchor="middle"
         x="783"
         y="-302.3"
         font-family="Times,serif"
         font-size="14.00"
         id="text35">foot</text>
    </g>
    <!-- top4&#45;&gt;foot2 -->
    <!-- fake3 -->
    <!-- top4&#45;&gt;fake3 -->
    <!-- top7&#45;&gt;top4 -->
    <!-- fake15 -->
    <!-- top7&#45;&gt;fake15 -->
    <!-- top6 -->
    <!-- foot2&#45;&gt;top6 -->
    <!-- fake4 -->
    <!-- foot2&#45;&gt;fake4 -->
    <!-- fake5 -->
    <!-- top6&#45;&gt;fake5 -->
    <!-- document&#45;&gt;fake1 -->
    <!-- No -->
    <g
       id="node17"
       class="node">
      <title
         id="title38">No</title>
      <ellipse
         fill="pink"
         stroke="black"
         cx="53"
         cy="-162"
         rx="27"
         ry="18"
         id="ellipse40"
         d="m 80,-162 c 0,9.94113 -12.088312,18 -27,18 -14.911688,0 -27,-8.05887 -27,-18 0,-9.94113 12.088312,-18 27,-18 14.911688,0 27,8.05887 27,18 z" />
      <text
         text-anchor="middle"
         x="53"
         y="-158.3"
         font-family="Times,serif"
         font-size="14.00"
         id="text42">No</text>
    </g>
    <!-- document&#45;&gt;No -->
    <g
       id="edge23"
       class="edge">
      <title
         id="title45">document-&gt;No</title>
      <path
         fill="none"
         stroke="black"
         d="M53,-215.697C53,-207.983 53,-198.712 53,-190.112"
         id="path47" />
      <polygon
         fill="black"
         stroke="black"
         points="56.5001,-190.104 53,-180.104 49.5001,-190.104 56.5001,-190.104"
         id="polygon49" />
    </g>
    <!-- fake1&#45;&gt;fake2 -->
    <!-- l -->
    <g
       id="node18"
       class="node">
      <title
         id="title52">l</title>
      <ellipse
         fill="pink"
         stroke="black"
         cx="155"
         cy="-162"
         rx="27"
         ry="18"
         id="ellipse54"
         d="m 182,-162 c 0,9.94113 -12.08831,18 -27,18 -14.91169,0 -27,-8.05887 -27,-18 0,-9.94113 12.08831,-18 27,-18 14.91169,0 27,8.05887 27,18 z" />
      <text
         text-anchor="middle"
         x="155"
         y="-158.3"
         font-family="Times,serif"
         font-size="14.00"
         id="text56">l</text>
    </g>
    <!-- fake1&#45;&gt;l -->
    <!-- fake2&#45;&gt;null -->
    <!-- o -->
    <g
       id="node19"
       class="node">
      <title
         id="title59">o</title>
      <ellipse
         fill="pink"
         stroke="black"
         cx="291"
         cy="-162"
         rx="27"
         ry="18"
         id="ellipse61"
         d="m 318,-162 c 0,9.94113 -12.08831,18 -27,18 -14.91169,0 -27,-8.05887 -27,-18 0,-9.94113 12.08831,-18 27,-18 14.91169,0 27,8.05887 27,18 z" />
      <text
         text-anchor="middle"
         x="291"
         y="-158.3"
         font-family="Times,serif"
         font-size="14.00"
         id="text63">o</text>
    </g>
    <!-- fake2&#45;&gt;o -->
    <!-- null&#45;&gt;fake15 -->
    <!-- n -->
    <g
       id="node20"
       class="node">
      <title
         id="title66">n</title>
      <ellipse
         fill="pink"
         stroke="black"
         cx="467"
         cy="-162"
         rx="27"
         ry="18"
         id="ellipse68"
         d="m 494,-162 c 0,9.94113 -12.08831,18 -27,18 -14.91169,0 -27,-8.05887 -27,-18 0,-9.94113 12.08831,-18 27,-18 14.91169,0 27,8.05887 27,18 z" />
      <text
         text-anchor="middle"
         x="467"
         y="-158.3"
         font-family="Times,serif"
         font-size="14.00"
         id="text70">n</text>
    </g>
    <!-- null&#45;&gt;n -->
    <!-- fake15&#45;&gt;fake3 -->
    <!-- ger -->
    <g
       id="node21"
       class="node">
      <title
         id="title73">ger</title>
      <ellipse
         fill="pink"
         stroke="black"
         cx="557"
         cy="-162"
         rx="27"
         ry="18"
         id="ellipse75"
         d="m 584,-162 c 0,9.94113 -12.08831,18 -27,18 -14.91169,0 -27,-8.05887 -27,-18 0,-9.94113 12.08831,-18 27,-18 14.91169,0 27,8.05887 27,18 z" />
      <text
         text-anchor="middle"
         x="557"
         y="-158.3"
         font-family="Times,serif"
         font-size="14.00"
         id="text77">ger</text>
    </g>
    <!-- fake15&#45;&gt;ger -->
    <!-- fake3&#45;&gt;fake4 -->
    <!-- m -->
    <g
       id="node22"
       class="node">
      <title
         id="title80">m</title>
      <ellipse
         fill="pink"
         stroke="black"
         cx="647"
         cy="-162"
         rx="27"
         ry="18"
         id="ellipse82"
         d="m 674,-162 c 0,9.94113 -12.08831,18 -27,18 -14.91169,0 -27,-8.05887 -27,-18 0,-9.94113 12.08831,-18 27,-18 14.91169,0 27,8.05887 27,18 z" />
      <text
         text-anchor="middle"
         x="647"
         y="-158.3"
         font-family="Times,serif"
         font-size="14.00"
         id="text84">m</text>
    </g>
    <!-- fake3&#45;&gt;m -->
    <!-- fake4&#45;&gt;fake5 -->
    <!-- ou -->
    <g
       id="node23"
       class="node">
      <title
         id="title87">ou</title>
      <ellipse
         fill="pink"
         stroke="black"
         cx="783"
         cy="-162"
         rx="27"
         ry="18"
         id="ellipse89"
         d="m 810,-162 c 0,9.94113 -12.08831,18 -27,18 -14.91169,0 -27,-8.05887 -27,-18 0,-9.94113 12.08831,-18 27,-18 14.91169,0 27,8.05887 27,18 z" />
      <text
         text-anchor="middle"
         x="783"
         y="-158.3"
         font-family="Times,serif"
         font-size="14.00"
         id="text91">ou</text>
    </g>
    <!-- fake4&#45;&gt;ou -->
    <!-- rn -->
    <g
       id="node24"
       class="node">
      <title
         id="title94">rn</title>
      <ellipse
         fill="pink"
         stroke="black"
         cx="931"
         cy="-162"
         rx="27"
         ry="18"
         id="ellipse96"
         d="m 958,-162 c 0,9.94113 -12.08831,18 -27,18 -14.91169,0 -27,-8.05887 -27,-18 0,-9.94113 12.08831,-18 27,-18 14.91169,0 27,8.05887 27,18 z" />
      <text
         text-anchor="middle"
         x="931"
         y="-158.3"
         font-family="Times,serif"
         font-size="14.00"
         id="text98">rn</text>
    </g>
    <!-- fake5&#45;&gt;rn -->
    <!-- No&#45;&gt;l -->
    <g
       id="edge31"
       class="edge">
      <title
         id="title101">No-&gt;l</title>
      <path
         fill="none"
         stroke="black"
         d="M80.0938,-162C92.6383,-162 105.183,-162 117.727,-162"
         id="path103" />
      <polygon
         fill="black"
         stroke="black"
         points="117.788,-165.5 127.788,-162 117.788,-158.5 117.788,-165.5"
         id="polygon105" />
    </g>
    <!-- wordplace1 -->
    <!-- No&#45;&gt;wordplace1 -->
    <!-- l&#45;&gt;o -->
    <g
       id="edge32"
       class="edge">
      <title
         id="title108">l-&gt;o</title>
      <path
         fill="none"
         stroke="black"
         d="M182.094,-162C205.917,-162 229.74,-162 253.563,-162"
         id="path110" />
      <polygon
         fill="black"
         stroke="black"
         points="253.773,-165.5 263.773,-162 253.773,-158.5 253.773,-165.5"
         id="polygon112" />
    </g>
    <!-- fake6 -->
    <!-- l&#45;&gt;fake6 -->
    <!-- o&#45;&gt;n -->
    <g
       id="edge33"
       class="edge">
      <title
         id="title115">o-&gt;n</title>
      <path
         fill="none"
         stroke="black"
         d="M318.156,-162C355.27,-162 392.383,-162 429.496,-162"
         id="path117" />
      <polygon
         fill="black"
         stroke="black"
         points="429.964,-165.5 439.964,-162 429.964,-158.5 429.964,-165.5"
         id="polygon119" />
    </g>
    <!-- stress2 -->
    <g
       id="node27"
       class="node">
      <title
         id="title122">stress2</title>
      <ellipse
         fill="cyan"
         stroke="black"
         cx="263"
         cy="-90"
         rx="31.2965"
         ry="18"
         id="ellipse124"
         d="m 294.2965,-90 c 0,9.941125 -14.01192,18 -31.2965,18 -17.28458,0 -31.2965,-8.058875 -31.2965,-18 0,-9.941125 14.01192,-18 31.2965,-18 17.28458,0 31.2965,8.058875 31.2965,18 z" />
      <text
         text-anchor="middle"
         x="263"
         y="-86.3"
         font-family="Times,serif"
         font-size="14.00"
         id="text126">stress</text>
    </g>
    <!-- o&#45;&gt;stress2 -->
    <!-- wordplace2 -->
    <!-- o&#45;&gt;wordplace2 -->
    <!-- n&#45;&gt;ger -->
    <g
       id="edge34"
       class="edge">
      <title
         id="title129">n-&gt;ger</title>
      <path
         fill="none"
         stroke="black"
         d="M494.07,-162C502.669,-162 511.267,-162 519.866,-162"
         id="path131" />
      <polygon
         fill="black"
         stroke="black"
         points="519.96,-165.5 529.96,-162 519.96,-158.5 519.96,-165.5"
         id="polygon133" />
    </g>
    <!-- fake7 -->
    <!-- n&#45;&gt;fake7 -->
    <!-- ger&#45;&gt;m -->
    <g
       id="edge35"
       class="edge">
      <title
         id="title136">ger-&gt;m</title>
      <path
         fill="none"
         stroke="black"
         d="M584.07,-162C592.669,-162 601.267,-162 609.866,-162"
         id="path138" />
      <polygon
         fill="black"
         stroke="black"
         points="609.96,-165.5 619.96,-162 609.96,-158.5 609.96,-165.5"
         id="polygon140" />
    </g>
    <!-- m&#45;&gt;ou -->
    <g
       id="edge36"
       class="edge">
      <title
         id="title143">m-&gt;ou</title>
      <path
         fill="none"
         stroke="black"
         d="M674.094,-162C697.917,-162 721.74,-162 745.563,-162"
         id="path145" />
      <polygon
         fill="black"
         stroke="black"
         points="745.773,-165.5 755.773,-162 745.773,-158.5 745.773,-165.5"
         id="polygon147" />
    </g>
    <!-- fake8 -->
    <!-- m&#45;&gt;fake8 -->
    <!-- ou&#45;&gt;rn -->
    <g
       id="edge37"
       class="edge">
      <title
         id="title150">ou-&gt;rn</title>
      <path
         fill="none"
         stroke="black"
         d="M810.172,-162C837.916,-162 865.66,-162 893.403,-162"
         id="path152" />
      <polygon
         fill="black"
         stroke="black"
         points="893.625,-165.5 903.625,-162 893.625,-158.5 893.625,-165.5"
         id="polygon154" />
    </g>
    <!-- stress3 -->
    <g
       id="node31"
       class="node">
      <title
         id="title157">stress3</title>
      <ellipse
         fill="cyan"
         stroke="black"
         cx="727"
         cy="-90"
         rx="31.2965"
         ry="18"
         id="ellipse159"
         d="m 758.2965,-90 c 0,9.941125 -14.01192,18 -31.2965,18 -17.28458,0 -31.2965,-8.058875 -31.2965,-18 0,-9.941125 14.01192,-18 31.2965,-18 17.28458,0 31.2965,8.058875 31.2965,18 z" />
      <text
         text-anchor="middle"
         x="727"
         y="-86.3"
         font-family="Times,serif"
         font-size="14.00"
         id="text161">stress</text>
    </g>
    <!-- ou&#45;&gt;stress3 -->
    <!-- wordplace3 -->
    <!-- ou&#45;&gt;wordplace3 -->
    <!-- fake9 -->
    <!-- rn&#45;&gt;fake9 -->
    <!-- word1 -->
    <g
       id="node34"
       class="node">
      <title
         id="title164">word1</title>
      <ellipse
         fill="orange"
         stroke="black"
         cx="53"
         cy="-18"
         rx="29.3722"
         ry="18"
         id="ellipse166"
         d="M 82.3722,-18 C 82.3722,-8.0588745 69.221818,0 53,0 36.778182,0 23.6278,-8.0588745 23.6278,-18 c 0,-9.941125 13.150382,-18 29.3722,-18 16.221818,0 29.3722,8.058875 29.3722,18 z" />
      <text
         text-anchor="middle"
         x="53"
         y="-14.3"
         font-family="Times,serif"
         font-size="14.00"
         id="text168">word</text>
    </g>
    <!-- wordplace1&#45;&gt;word1 -->
    <!-- fake10 -->
    <!-- fake6&#45;&gt;fake10 -->
    <!-- word2 -->
    <g
       id="node36"
       class="node">
      <title
         id="title171">word2</title>
      <ellipse
         fill="orange"
         stroke="black"
         cx="365"
         cy="-18"
         rx="29.3722"
         ry="18"
         id="ellipse173"
         d="m 394.3722,-18 c 0,9.9411255 -13.15038,18 -29.3722,18 -16.22182,0 -29.3722,-8.0588745 -29.3722,-18 0,-9.941125 13.15038,-18 29.3722,-18 16.22182,0 29.3722,8.058875 29.3722,18 z" />
      <text
         text-anchor="middle"
         x="365"
         y="-14.3"
         font-family="Times,serif"
         font-size="14.00"
         id="text175">word</text>
    </g>
    <!-- wordplace2&#45;&gt;word2 -->
    <!-- fake13 -->
    <!-- fake7&#45;&gt;fake13 -->
    <!-- fake14 -->
    <!-- fake8&#45;&gt;fake14 -->
    <!-- word3 -->
    <g
       id="node39"
       class="node">
      <title
         id="title178">word3</title>
      <ellipse
         fill="orange"
         stroke="black"
         cx="829"
         cy="-18"
         rx="29.3722"
         ry="18"
         id="ellipse180"
         d="m 858.3722,-18 c 0,9.9411255 -13.15038,18 -29.3722,18 -16.22182,0 -29.3722,-8.0588745 -29.3722,-18 0,-9.941125 13.15038,-18 29.3722,-18 16.22182,0 29.3722,8.058875 29.3722,18 z" />
      <text
         text-anchor="middle"
         x="829"
         y="-14.3"
         font-family="Times,serif"
         font-size="14.00"
         id="text182">word</text>
    </g>
    <!-- wordplace3&#45;&gt;word3 -->
  </g>
  <path
     style="fill:none;stroke:#00ffff;stroke-width:3;stroke-linecap:butt;stroke-linejoin:miter;stroke-miterlimit:4;stroke-opacity:1;stroke-dasharray:none"
     d="m 320.53576,188.6625 c -3.64868,8.18204 -3.31781,17.84448 0,26.16619 2.57216,6.45147 6.82078,12.14024 11.77478,17.00802 8.51025,8.36214 19.52438,14.54513 31.39943,15.69971 10.21962,0.99363 20.441,-1.72563 30.09111,-5.23324 7.84023,-2.84975 15.82123,-6.49063 20.93295,-13.08309 3.07878,-3.97062 4.92359,-8.81953 5.68179,-13.7864 0.7582,-4.96688 0.46164,-10.05512 -0.44856,-14.9964 -0.89034,-4.83345 -2.37717,-9.58492 -4.73259,-13.89849 -2.35542,-4.31357 -5.60295,-8.18361 -9.65881,-10.95939 -5.19397,-3.55469 -11.50414,-5.18817 -17.77692,-5.70316 -6.27279,-0.515 -12.57762,0.0247 -18.85574,0.46992 -8.71171,0.61786 -17.43629,1.05409 -26.16618,1.30831 -9.61532,1.49619 -18.27804,8.12062 -22.24126,17.00802"
     id="path3165"
     inkscape:path-effect="#path-effect3167"
     inkscape:original-d="m 320.53576,188.6625 c -4.88984,7.22245 -2.60064,17.84086 0,26.16619 2.05598,6.58175 6.56563,12.49015 11.77478,17.00802 8.84023,7.66709 19.82159,14.00045 31.39943,15.69971 10.07301,1.4784 20.5823,-1.59541 30.09111,-5.23324 7.68516,-2.94015 16.31389,-6.2735 20.93295,-13.08309 5.47411,-8.07013 6.90677,-19.17592 5.23323,-28.7828 -1.64314,-9.43238 -6.45672,-19.49967 -14.3914,-24.85788 -10.22236,-6.90306 -24.31083,-4.66641 -36.63266,-5.23324 -8.72373,-0.40131 -18.41951,-2.72327 -26.16618,1.30831 -0.90045,11.26174 -18.67231,12.26118 -22.24126,17.00802 z"
     inkscape:connector-curvature="0"
     transform="scale(0.8,0.8)"
     sodipodi:nodetypes="caaaaaaaacc" />
  <path
     style="fill:none;stroke:#00ffff;stroke-width:3;stroke-linecap:butt;stroke-linejoin:miter;stroke-miterlimit:4;stroke-opacity:1;stroke-dasharray:none"
     d="m 941.98265,182.12096 c -3.18543,2.82501 -5.19866,6.78798 -6.30889,10.89834 -1.11022,4.11036 -1.37955,8.39662 -1.54097,12.65122 -0.32206,8.48858 -0.13833,17.39802 3.92493,24.85788 2.56854,4.71565 6.57734,8.5639 11.16525,11.35422 4.58791,2.79032 9.74384,4.55938 15.00093,5.6538 14.3268,2.98254 29.39231,0.99567 43.1742,-3.92493 6.5589,-2.34176 12.9652,-5.38985 18.2527,-9.92261 5.2874,-4.53276 9.4029,-10.67928 10.5301,-17.55188 0.8736,-5.32637 -0.083,-10.86992 -2.2732,-15.80336 -2.1896,-4.93343 -5.5713,-9.27993 -9.5016,-12.97945 -8.8411,-8.32208 -20.603,-13.44254 -32.7077,-14.3914 -10.06059,-0.78863 -20.0993,1.20207 -30.09111,2.61662 -3.46701,0.49083 -6.95702,0.91568 -10.33447,1.83975 -3.37745,0.92408 -6.67041,2.37845 -9.29017,4.7018"
     id="path3937"
     inkscape:path-effect="#path-effect3939"
     inkscape:original-d="m 941.98265,182.12096 c -5.85094,5.85094 -7.16738,15.30328 -7.84986,23.54956 -0.6919,8.36003 -0.64069,17.82056 3.92493,24.85788 5.6618,8.72695 16.06877,14.50641 26.16618,17.00802 14.02669,3.47508 30.01738,2.05188 43.1742,-3.92493 12.0759,-5.48579 26.0157,-14.50278 28.7828,-27.47449 2.1626,-10.13797 -4.5415,-21.35755 -11.7748,-28.78281 -8.3115,-8.5321 -20.956,-12.44805 -32.7077,-14.3914 -9.93332,-1.64265 -20.23216,0.57451 -30.09111,2.61662 -6.75207,1.39858 -14.74886,1.66577 -19.62464,6.54155 z"
     inkscape:connector-curvature="0"
     transform="scale(0.8,0.8)"
     sodipodi:nodetypes="aaaaaaaaaa" />
  <g
     id="g4389">
    <path
       style="font-size:medium;font-style:normal;font-variant:normal;font-weight:normal;font-stretch:normal;text-indent:0;text-align:start;text-decoration:none;line-height:normal;letter-spacing:normal;word-spacing:normal;text-transform:none;direction:ltr;block-progression:tb;writing-mode:lr-tb;text-anchor:start;baseline-shift:baseline;color:#000000;fill:#000000;fill-opacity:1;stroke:none;stroke-width:3;marker:none;visibility:visible;display:inline;overflow:visible;enable-background:accumulate;font-family:Sans;-inkscape-font-specification:Sans"
       d="m 286.7,190.025 -11,30.35 2.275,0.825 10.975,-30.35 -2.25,-0.825 z"
       id="path3941"
       inkscape:connector-curvature="0" />
    <path
       d="m 278.09226,200.26828 10.79618,-12.82382 0.0837,16.76308 c -2.35603,-3.52624 -6.75516,-5.10363 -10.87986,-3.93926 z"
       style="fill-rule:evenodd;stroke-width:0.80000000000000004;stroke-linejoin:round;stroke-miterlimit:4;stroke-dasharray:none;stroke:#000000;stroke-opacity:1;fill:#00ffff;fill-opacity:1"
       id="path4395"
       inkscape:connector-curvature="0" />
  </g>
  <g
     id="g4583">
    <path
       style="font-size:medium;font-style:normal;font-variant:normal;font-weight:normal;font-stretch:normal;text-indent:0;text-align:start;text-decoration:none;line-height:normal;letter-spacing:normal;word-spacing:normal;text-transform:none;direction:ltr;block-progression:tb;writing-mode:lr-tb;text-anchor:start;baseline-shift:baseline;color:#000000;fill:#000000;fill-opacity:1;stroke:none;stroke-width:3;marker:none;visibility:visible;display:inline;overflow:visible;enable-background:accumulate;font-family:Sans;-inkscape-font-specification:Sans"
       d="m 767.2,187.225 -20.4,34.8 2.075,1.2 20.4,-34.8 -2.075,-1.2 z"
       id="path4397"
       inkscape:connector-curvature="0" />
    <path
       d="m 756.87742,195.71559 12.94983,-10.64471 -2.96865,16.49833 c -1.67489,-3.89615 -5.71346,-6.24784 -9.98118,-5.85362 z"
       style="fill-rule:evenodd;stroke-width:0.80000000000000004;stroke-linejoin:round;stroke-miterlimit:4;stroke-dasharray:none;stroke:#000000;stroke-opacity:1;fill:#00ffff;fill-opacity:1"
       id="path4589"
       inkscape:connector-curvature="0" />
  </g>
  <path
     style="fill:none;stroke:#8a2be2;stroke-width:3;stroke-linecap:butt;stroke-linejoin:miter;stroke-miterlimit:4;stroke-opacity:1;stroke-dasharray:none"
     d="m 43.174205,179.50434 c -6.313827,3.66434 -11.74957,8.95485 -15.158079,15.41038 -3.408508,6.45553 -4.708263,14.08861 -3.158251,21.22228 1.093178,5.03117 3.573297,9.73736 7.011646,13.56953 3.43835,3.83216 7.819793,6.7921 12.612993,8.67172 6.154043,2.41326 12.877625,3.04216 19.486251,2.89332 6.608627,-0.14883 13.174556,-1.04821 19.763026,-1.58501 21.320369,-1.73708 42.738639,0.32731 64.107149,1.30831 24.40121,1.12023 48.84317,0.82618 73.26532,1.30831 19.20678,0.37917 38.40458,1.23864 57.56561,2.61662 20.91154,1.50387 41.85764,3.62683 62.79884,2.61662 20.21761,-0.97531 40.16337,-4.85846 60.18222,-7.84986 25.10825,-3.7519 50.58922,-6.11103 75.88194,-3.92492 21.23913,1.83574 42.05757,6.8483 62.79884,11.77478 12.40271,2.9459 24.90094,5.87939 37.6368,6.43024 12.73586,0.55086 25.865,-1.42031 36.93683,-7.73855 9.62228,-5.49104 17.45059,-14.34061 20.93295,-24.85788 2.41554,-7.29531 2.71484,-15.25028 1.05322,-22.7533 -1.66162,-7.50302 -5.25987,-14.54393 -10.21139,-20.4209 -5.45863,-6.47886 -12.50916,-11.52421 -20.17242,-15.13623 -7.66326,-3.61202 -15.93575,-5.82337 -24.31009,-7.10503 -26.77939,-4.09849 -54.02415,1.2063 -81.11517,1.30831 -25.36272,0.0955 -50.53351,-4.37641 -75.88194,-5.23324 -23.12555,-0.78169 -46.23112,1.44883 -69.34039,2.61662 -19.17071,0.96876 -38.3707,1.2064 -57.56561,1.30831 -16.14518,0.0857 -32.30911,0.0762 -48.40744,1.30831 -20.08495,1.53719 -40.03982,5.00473 -60.18222,5.23324 -19.20848,0.21792 -38.52056,-2.50988 -57.56561,0 -11.45071,1.50905 -22.58511,4.88926 -34.016038,6.54154 -9.303132,1.34471 -18.735722,1.53536 -28.072843,2.61919 -9.337121,1.08384 -18.746308,3.129 -26.876144,7.84729"
     id="path4591"
     inkscape:path-effect="#path-effect4593"
     inkscape:original-d="m 43.174205,179.50434 c -7.503467,11.40527 -18.619637,22.98384 -18.31633,36.63266 0.21966,9.8847 10.444661,18.56926 19.624639,22.24125 12.154093,4.86164 26.163111,0.97701 39.249277,1.30831 21.366649,0.54093 42.737529,0.90127 64.107149,1.30831 24.42124,0.46517 48.85064,0.57587 73.26532,1.30831 19.19971,0.57599 38.37539,1.78226 57.56561,2.61662 20.93134,0.91006 41.86667,3.50735 62.79884,2.61662 20.21238,-0.8601 40.02688,-6.10565 60.18222,-7.84986 25.23348,-2.18367 50.59462,-5.35628 75.88194,-3.92492 21.26369,1.20361 41.56266,10.15679 62.79884,11.77478 24.78985,1.88875 50.59556,5.26103 74.57363,-1.30831 10.44757,-2.86235 19.08555,-14.18399 20.93295,-24.85788 2.50894,-14.49609 0.17016,-31.79818 -9.15817,-43.1742 -10.51155,-12.81897 -28.13041,-19.51591 -44.48251,-22.24126 -26.67397,-4.44566 -54.08171,1.98415 -81.11517,1.30831 -25.34614,-0.63365 -50.53199,-4.77648 -75.88194,-5.23324 -23.12616,-0.41669 -46.22153,1.9016 -69.34039,2.61662 -19.18432,0.59333 -38.37797,0.83454 -57.56561,1.30831 -16.13679,0.39844 -32.29494,0.33768 -48.40744,1.30831 -20.1,1.21084 -40.06564,4.33917 -60.18222,5.23324 -19.16961,0.85198 -38.42584,-1.36713 -57.56561,0 -11.5171,0.82265 -22.48556,5.93467 -34.016038,6.54154 -25.520189,1.5267 -39.048639,-13.60334 -54.948987,10.46648 z"
     inkscape:connector-curvature="0"
     transform="scale(0.8,0.8)"
     sodipodi:nodetypes="cssssssssssssssssssssscc" />
  <path
     style="fill:none;stroke:#8a2be2;stroke-width:3;stroke-linecap:butt;stroke-linejoin:miter;stroke-miterlimit:4;stroke-opacity:1;stroke-dasharray:none"
     d="m 662.38186,194.82279 c -3.44903,6.12131 -4.66205,13.58446 -2.77534,20.35251 1.11505,3.99994 3.26488,7.67723 6.01874,10.78514 2.75386,3.10792 6.1017,5.65899 9.7082,7.71715 9.02564,5.15075 19.53821,7.18621 29.92001,7.64522 10.3818,0.45901 20.76251,-0.57679 31.13754,-1.16942 15.70615,-0.89714 31.44976,-0.77894 47.18083,-0.92511 16.96151,-0.1576 33.93048,-0.62279 50.88129,0 14.51385,0.53325 28.9854,1.86315 43.48037,2.77534 14.47373,0.91085 28.98596,1.40525 43.48037,0.92511 18.84222,-0.62416 37.59674,-2.89267 56.43198,-3.70045 17.56374,-0.75325 35.15325,-0.23471 52.73155,0 27.4429,0.36642 54.8897,0.0407 82.3351,0 19.7405,-0.0293 39.493,0.0887 59.2074,-0.92512 8.3095,-0.42731 16.9788,-1.17023 24.0529,-5.55069 7.1565,-4.4315 11.8105,-12.19258 13.8767,-20.35251 1.94,-7.66139 1.7272,-16.08068 -1.8502,-23.12786 -2.5763,-5.07519 -6.792,-9.2298 -11.6829,-12.14094 -4.8908,-2.91113 -10.4378,-4.61879 -16.0705,-5.43623 -7.951,-1.15388 -16.0392,-0.57323 -24.053,0 -22.1706,1.58588 -44.416,3.09795 -66.6082,1.85023 -16.3673,-0.92022 -32.642,-3.33913 -49.0311,-3.70046 -14.2002,-0.31307 -28.382,0.92067 -42.55524,1.85023 -19.40826,1.27291 -38.84864,1.97667 -58.2822,2.77534 -20.04864,0.82395 -40.09313,1.74908 -60.13243,2.77535 -36.06535,-1.16501 -72.15837,-1.4735 -108.23837,-0.92512 -21.27776,0.3234 -42.5527,0.94477 -63.8329,0.92512 -10.69711,-0.01 -21.84928,-0.084 -31.45388,4.62557 -5.7677,2.82816 -10.72337,7.35506 -13.87672,12.9516"
     id="path4595"
     inkscape:path-effect="#path-effect4597"
     inkscape:original-d="m 662.38186,194.82279 c -3.14779,6.08048 -4.69702,13.78076 -2.77534,20.35251 2.27178,7.76904 8.56976,14.72158 15.72694,18.50229 18.09695,9.55954 40.60983,5.59539 61.05755,6.4758 15.71541,0.67665 31.45162,-0.77092 47.18083,-0.92511 16.95962,-0.16625 33.92947,-0.54046 50.88129,0 14.51558,0.46279 28.97054,2.15818 43.48037,2.77534 14.48364,0.61605 28.98717,1.24551 43.48037,0.92511 18.84645,-0.41664 37.59102,-3.08338 56.43198,-3.70045 17.56776,-0.57537 35.15435,0 52.73155,0 27.445,0 54.8909,0.2144 82.3351,0 19.7376,-0.15419 39.676,1.92487 59.2074,-0.92512 10.1433,-1.4801 16.2213,1.06316 24.0529,-5.55069 4.9532,-4.18297 12.7079,-13.9756 13.8767,-20.35251 1.3943,-7.6072 2.1462,-16.50648 -1.8502,-23.12786 -5.6584,-9.37519 -17.2364,-14.52692 -27.7534,-17.57717 -7.7003,-2.23333 -16.0361,-0.11132 -24.053,0 -22.2092,0.3084 -44.4032,2.37835 -66.6082,1.85023 -16.3855,-0.38971 -32.643,-3.43923 -49.0311,-3.70046 -14.1967,-0.2263 -28.3715,1.20418 -42.55524,1.85023 -19.42927,0.88497 -38.93018,0.83139 -58.2822,2.77534 -20.17841,2.02696 29.95985,83.3455 -60.13243,2.77535 -31.60352,-10.54973 -68.6707,0.19871 -108.23837,-0.92512 -22.21306,-0.63094 -41.61209,0.69428 -63.8329,0.92512 -9.88661,0.1027 -22.37312,0.71465 -31.45388,4.62557 -5.81121,2.50279 -10.96786,7.33265 -13.87672,12.9516 z"
     inkscape:connector-curvature="0"
     transform="scale(0.8,0.8)"
     sodipodi:nodetypes="sssssssssssssssssssssccsss" />
  <g
     id="g4785">
    <path
       style="font-size:medium;font-style:normal;font-variant:normal;font-weight:normal;font-stretch:normal;text-indent:0;text-align:start;text-decoration:none;line-height:normal;letter-spacing:normal;word-spacing:normal;text-transform:none;direction:ltr;block-progression:tb;writing-mode:lr-tb;text-anchor:start;baseline-shift:baseline;color:#000000;fill:#000000;fill-opacity:1;stroke:none;stroke-width:3;marker:none;visibility:visible;display:inline;overflow:visible;enable-background:accumulate;font-family:Sans;-inkscape-font-specification:Sans"
       d="m 292.975,39.675 0,89.175 2.4,0 0,-89.175 -2.4,0 z"
       id="path4599"
       inkscape:connector-curvature="0" />
    <path
       d="m 299.99494,116.29013 -5.78552,15.73326 -5.78552,-15.73326 c 3.41577,2.51352 8.08913,2.49903 11.57104,0 z"
       style="fill-rule:evenodd;stroke-width:0.80000000000000004;stroke-linejoin:round;stroke-miterlimit:4;stroke-dasharray:none;stroke:#000000;stroke-opacity:1;fill:#8a2be2;fill-opacity:1"
       id="path4791"
       inkscape:connector-curvature="0" />
    <g
       id="g4979">
      <path
         style="font-size:medium;font-style:normal;font-variant:normal;font-weight:normal;font-stretch:normal;text-indent:0;text-align:start;text-decoration:none;line-height:normal;letter-spacing:normal;word-spacing:normal;text-transform:none;direction:ltr;block-progression:tb;writing-mode:lr-tb;text-anchor:start;baseline-shift:baseline;color:#000000;fill:#000000;fill-opacity:1;stroke:none;stroke-width:3;marker:none;visibility:visible;display:inline;overflow:visible;enable-background:accumulate;font-family:Sans;-inkscape-font-specification:Sans"
         d="m 769.725,36.2 -52.55,111.75 2.175,1.025 52.55,-111.75 -2.175,-1.025 z"
         id="path4793"
         inkscape:connector-curvature="0" />
      <path
         d="m 728.85743,139.56743 -11.93027,11.7761 1.459,-16.69968 c 2.0216,3.72806 6.25694,5.70351 10.47127,4.92358 z"
         style="fill-rule:evenodd;stroke-width:0.80000000000000004;stroke-linejoin:round;stroke-miterlimit:4;stroke-dasharray:none;stroke:#000000;stroke-opacity:1;fill:#8a2be2;fill-opacity:1"
         id="path4985"
         inkscape:connector-curvature="0" />
    </g>
  </g>
</svg>
