<?xml version="1.0" encoding="UTF-8" standalone="no"?>
<!DOCTYPE svg PUBLIC "-//W3C//DTD SVG 1.1//EN"
 "http://www.w3.org/Graphics/SVG/1.1/DTD/svg11.dtd">
<!-- Generated by graphviz version 2.34.0 (20130907.0228)
 -->
<!-- Title: G Pages: 1 -->
<svg width="971pt" height="332pt"
 viewBox="0.00 0.00 971.00 332.00" xmlns="http://www.w3.org/2000/svg" xmlns:xlink="http://www.w3.org/1999/xlink">
<g id="graph0" class="graph" transform="scale(1 1) rotate(0) translate(4 328)">
<title>G</title>
<polygon fill="white" stroke="white" points="-4,4 -4,-328 967,-328 967,4 -4,4"/>
<!-- top1 -->
<!-- top2 -->
<!-- top1&#45;&gt;top2 -->
<!-- document -->
<g id="node9" class="node"><title>document</title>
<ellipse fill="beige" stroke="black" cx="53" cy="-234" rx="46.1964" ry="18"/>
<text text-anchor="middle" x="53" y="-230.3" font-family="Times,serif" font-size="14.00">document</text>
</g>
<!-- top1&#45;&gt;document -->
<!-- foot1 -->
<g id="node3" class="node"><title>foot1</title>
<ellipse fill="violet" stroke="black" cx="291" cy="-306" rx="27" ry="18"/>
<text text-anchor="middle" x="291" y="-302.3" font-family="Times,serif" font-size="14.00">foot</text>
</g>
<!-- top2&#45;&gt;foot1 -->
<!-- fake1 -->
<!-- top2&#45;&gt;fake1 -->
<!-- line -->
<g id="node4" class="node"><title>line</title>
<ellipse fill="#00ff00" stroke="black" cx="467" cy="-306" rx="27" ry="18"/>
<text text-anchor="middle" x="467" y="-302.3" font-family="Times,serif" font-size="14.00">line</text>
</g>
<!-- foot1&#45;&gt;line -->
<!-- fake2 -->
<!-- foot1&#45;&gt;fake2 -->
<!-- top7 -->
<!-- line&#45;&gt;top7 -->
<!-- null -->
<!-- line&#45;&gt;null -->
<!-- top4 -->
<!-- foot2 -->
<g id="node7" class="node"><title>foot2</title>
<ellipse fill="violet" stroke="black" cx="783" cy="-306" rx="27" ry="18"/>
<text text-anchor="middle" x="783" y="-302.3" font-family="Times,serif" font-size="14.00">foot</text>
</g>
<!-- top4&#45;&gt;foot2 -->
<!-- fake3 -->
<!-- top4&#45;&gt;fake3 -->
<!-- top7&#45;&gt;top4 -->
<!-- fake15 -->
<!-- top7&#45;&gt;fake15 -->
<!-- top6 -->
<!-- foot2&#45;&gt;top6 -->
<!-- fake4 -->
<!-- foot2&#45;&gt;fake4 -->
<!-- fake5 -->
<!-- top6&#45;&gt;fake5 -->
<!-- document&#45;&gt;fake1 -->
<!-- No -->
<g id="node17" class="node"><title>No</title>
<ellipse fill="pink" stroke="black" cx="53" cy="-162" rx="27" ry="18"/>
<text text-anchor="middle" x="53" y="-158.3" font-family="Times,serif" font-size="14.00">No</text>
</g>
<!-- document&#45;&gt;No -->
<g id="edge23" class="edge"><title>document&#45;&gt;No</title>
<path fill="none" stroke="black" d="M53,-215.697C53,-207.983 53,-198.712 53,-190.112"/>
<polygon fill="black" stroke="black" points="56.5001,-190.104 53,-180.104 49.5001,-190.104 56.5001,-190.104"/>
</g>
<!-- fake1&#45;&gt;fake2 -->
<!-- l -->
<g id="node18" class="node"><title>l</title>
<ellipse fill="pink" stroke="black" cx="155" cy="-162" rx="27" ry="18"/>
<text text-anchor="middle" x="155" y="-158.3" font-family="Times,serif" font-size="14.00">l</text>
</g>
<!-- fake1&#45;&gt;l -->
<!-- fake2&#45;&gt;null -->
<!-- o -->
<g id="node19" class="node"><title>o</title>
<ellipse fill="pink" stroke="black" cx="291" cy="-162" rx="27" ry="18"/>
<text text-anchor="middle" x="291" y="-158.3" font-family="Times,serif" font-size="14.00">o</text>
</g>
<!-- fake2&#45;&gt;o -->
<!-- null&#45;&gt;fake15 -->
<!-- n -->
<g id="node20" class="node"><title>n</title>
<ellipse fill="pink" stroke="black" cx="467" cy="-162" rx="27" ry="18"/>
<text text-anchor="middle" x="467" y="-158.3" font-family="Times,serif" font-size="14.00">n</text>
</g>
<!-- null&#45;&gt;n -->
<!-- fake15&#45;&gt;fake3 -->
<!-- ger -->
<g id="node21" class="node"><title>ger</title>
<ellipse fill="pink" stroke="black" cx="557" cy="-162" rx="27" ry="18"/>
<text text-anchor="middle" x="557" y="-158.3" font-family="Times,serif" font-size="14.00">ger</text>
</g>
<!-- fake15&#45;&gt;ger -->
<!-- fake3&#45;&gt;fake4 -->
<!-- m -->
<g id="node22" class="node"><title>m</title>
<ellipse fill="pink" stroke="black" cx="647" cy="-162" rx="27" ry="18"/>
<text text-anchor="middle" x="647" y="-158.3" font-family="Times,serif" font-size="14.00">m</text>
</g>
<!-- fake3&#45;&gt;m -->
<!-- fake4&#45;&gt;fake5 -->
<!-- ou -->
<g id="node23" class="node"><title>ou</title>
<ellipse fill="pink" stroke="black" cx="783" cy="-162" rx="27" ry="18"/>
<text text-anchor="middle" x="783" y="-158.3" font-family="Times,serif" font-size="14.00">ou</text>
</g>
<!-- fake4&#45;&gt;ou -->
<!-- rn -->
<g id="node24" class="node"><title>rn</title>
<ellipse fill="pink" stroke="black" cx="931" cy="-162" rx="27" ry="18"/>
<text text-anchor="middle" x="931" y="-158.3" font-family="Times,serif" font-size="14.00">rn</text>
</g>
<!-- fake5&#45;&gt;rn -->
<!-- No&#45;&gt;l -->
<g id="edge31" class="edge"><title>No&#45;&gt;l</title>
<path fill="none" stroke="black" d="M80.0938,-162C92.6383,-162 105.183,-162 117.727,-162"/>
<polygon fill="black" stroke="black" points="117.788,-165.5 127.788,-162 117.788,-158.5 117.788,-165.5"/>
</g>
<!-- wordplace1 -->
<!-- No&#45;&gt;wordplace1 -->
<!-- l&#45;&gt;o -->
<g id="edge32" class="edge"><title>l&#45;&gt;o</title>
<path fill="none" stroke="black" d="M182.094,-162C205.917,-162 229.74,-162 253.563,-162"/>
<polygon fill="black" stroke="black" points="253.773,-165.5 263.773,-162 253.773,-158.5 253.773,-165.5"/>
</g>
<!-- fake6 -->
<!-- l&#45;&gt;fake6 -->
<!-- o&#45;&gt;n -->
<g id="edge33" class="edge"><title>o&#45;&gt;n</title>
<path fill="none" stroke="black" d="M318.156,-162C355.27,-162 392.383,-162 429.496,-162"/>
<polygon fill="black" stroke="black" points="429.964,-165.5 439.964,-162 429.964,-158.5 429.964,-165.5"/>
</g>
<!-- stress2 -->
<g id="node27" class="node"><title>stress2</title>
<ellipse fill="cyan" stroke="black" cx="263" cy="-90" rx="31.2965" ry="18"/>
<text text-anchor="middle" x="263" y="-86.3" font-family="Times,serif" font-size="14.00">stress</text>
</g>
<!-- o&#45;&gt;stress2 -->
<!-- wordplace2 -->
<!-- o&#45;&gt;wordplace2 -->
<!-- n&#45;&gt;ger -->
<g id="edge34" class="edge"><title>n&#45;&gt;ger</title>
<path fill="none" stroke="black" d="M494.07,-162C502.669,-162 511.267,-162 519.866,-162"/>
<polygon fill="black" stroke="black" points="519.96,-165.5 529.96,-162 519.96,-158.5 519.96,-165.5"/>
</g>
<!-- fake7 -->
<!-- n&#45;&gt;fake7 -->
<!-- ger&#45;&gt;m -->
<g id="edge35" class="edge"><title>ger&#45;&gt;m</title>
<path fill="none" stroke="black" d="M584.07,-162C592.669,-162 601.267,-162 609.866,-162"/>
<polygon fill="black" stroke="black" points="609.96,-165.5 619.96,-162 609.96,-158.5 609.96,-165.5"/>
</g>
<!-- m&#45;&gt;ou -->
<g id="edge36" class="edge"><title>m&#45;&gt;ou</title>
<path fill="none" stroke="black" d="M674.094,-162C697.917,-162 721.74,-162 745.563,-162"/>
<polygon fill="black" stroke="black" points="745.773,-165.5 755.773,-162 745.773,-158.5 745.773,-165.5"/>
</g>
<!-- fake8 -->
<!-- m&#45;&gt;fake8 -->
<!-- ou&#45;&gt;rn -->
<g id="edge37" class="edge"><title>ou&#45;&gt;rn</title>
<path fill="none" stroke="black" d="M810.172,-162C837.916,-162 865.66,-162 893.403,-162"/>
<polygon fill="black" stroke="black" points="893.625,-165.5 903.625,-162 893.625,-158.5 893.625,-165.5"/>
</g>
<!-- stress3 -->
<g id="node31" class="node"><title>stress3</title>
<ellipse fill="cyan" stroke="black" cx="727" cy="-90" rx="31.2965" ry="18"/>
<text text-anchor="middle" x="727" y="-86.3" font-family="Times,serif" font-size="14.00">stress</text>
</g>
<!-- ou&#45;&gt;stress3 -->
<!-- wordplace3 -->
<!-- ou&#45;&gt;wordplace3 -->
<!-- fake9 -->
<!-- rn&#45;&gt;fake9 -->
<!-- word1 -->
<g id="node34" class="node"><title>word1</title>
<ellipse fill="orange" stroke="black" cx="53" cy="-18" rx="29.3722" ry="18"/>
<text text-anchor="middle" x="53" y="-14.3" font-family="Times,serif" font-size="14.00">word</text>
</g>
<!-- wordplace1&#45;&gt;word1 -->
<!-- fake10 -->
<!-- fake6&#45;&gt;fake10 -->
<!-- word2 -->
<g id="node36" class="node"><title>word2</title>
<ellipse fill="orange" stroke="black" cx="365" cy="-18" rx="29.3722" ry="18"/>
<text text-anchor="middle" x="365" y="-14.3" font-family="Times,serif" font-size="14.00">word</text>
</g>
<!-- wordplace2&#45;&gt;word2 -->
<!-- fake13 -->
<!-- fake7&#45;&gt;fake13 -->
<!-- fake14 -->
<!-- fake8&#45;&gt;fake14 -->
<!-- word3 -->
<g id="node39" class="node"><title>word3</title>
<ellipse fill="orange" stroke="black" cx="829" cy="-18" rx="29.3722" ry="18"/>
<text text-anchor="middle" x="829" y="-14.3" font-family="Times,serif" font-size="14.00">word</text>
</g>
<!-- wordplace3&#45;&gt;word3 -->
</g>
</svg>
