<?xml version="1.0" encoding="UTF-8" standalone="no"?>
<!-- Generated by graphviz version 2.34.0 (20130907.0228)
 -->

<!-- Title: G Pages: 1 -->

<svg
   xmlns:dc="http://purl.org/dc/elements/1.1/"
   xmlns:cc="http://creativecommons.org/ns#"
   xmlns:rdf="http://www.w3.org/1999/02/22-rdf-syntax-ns#"
   xmlns:svg="http://www.w3.org/2000/svg"
   xmlns="http://www.w3.org/2000/svg"
   xmlns:sodipodi="http://sodipodi.sourceforge.net/DTD/sodipodi-0.dtd"
   xmlns:inkscape="http://www.inkscape.org/namespaces/inkscape"
   width="883pt"
   height="188pt"
   viewBox="0.00 0.00 883.00 188.00"
   id="svg2"
   version="1.1"
   inkscape:version="0.48.5 r10040"
   sodipodi:docname="ozymandius_hypergraph.svg">
  <metadata
     id="metadata118">
    <rdf:RDF>
      <cc:Work
         rdf:about="">
        <dc:format>image/svg+xml</dc:format>
        <dc:type
           rdf:resource="http://purl.org/dc/dcmitype/StillImage" />
        <dc:title />
      </cc:Work>
    </rdf:RDF>
  </metadata>
  <defs
     id="defs116">
    <inkscape:path-effect
       effect="spiro"
       id="path-effect4824"
       is_visible="true" />
    <inkscape:path-effect
       effect="spiro"
       id="path-effect4629"
       is_visible="true" />
    <inkscape:path-effect
       effect="spiro"
       id="path-effect4435"
       is_visible="true" />
    <inkscape:path-effect
       effect="spiro"
       id="path-effect4241"
       is_visible="true" />
    <inkscape:path-effect
       effect="spiro"
       id="path-effect4047"
       is_visible="true" />
    <inkscape:path-effect
       effect="spiro"
       id="path-effect5531"
       is_visible="true" />
    <inkscape:path-effect
       effect="spiro"
       id="path-effect5337"
       is_visible="true" />
    <inkscape:path-effect
       effect="spiro"
       id="path-effect5143"
       is_visible="true" />
    <inkscape:path-effect
       effect="spiro"
       id="path-effect4938"
       is_visible="true" />
    <inkscape:path-effect
       effect="spiro"
       id="path-effect4733"
       is_visible="true" />
    <inkscape:path-effect
       effect="spiro"
       id="path-effect4459"
       is_visible="true" />
    <inkscape:path-effect
       effect="spiro"
       id="path-effect4823"
       is_visible="true" />
    <inkscape:path-effect
       effect="spiro"
       id="path-effect4607"
       is_visible="true" />
    <marker
       inkscape:stockid="Arrow2Mend"
       orient="auto"
       refY="0.0"
       refX="0.0"
       id="Arrow2Mend"
       style="overflow:visible;">
      <path
         id="path3922"
         style="fill-rule:evenodd;stroke-width:0.62500000;stroke-linejoin:round;"
         d="M 8.7185878,4.0337352 L -2.2072895,0.016013256 L 8.7185884,-4.0017078 C 6.9730900,-1.6296469 6.9831476,1.6157441 8.7185878,4.0337352 z "
         transform="scale(0.6) rotate(180) translate(0,0)" />
    </marker>
    <inkscape:path-effect
       effect="spiro"
       id="path-effect3889"
       is_visible="true" />
    <inkscape:path-effect
       effect="spiro"
       id="path-effect3885"
       is_visible="true" />
    <inkscape:path-effect
       effect="spiro"
       id="path-effect3881"
       is_visible="true" />
    <inkscape:path-effect
       effect="spiro"
       id="path-effect3877"
       is_visible="true" />
    <inkscape:path-effect
       effect="spiro"
       id="path-effect3873"
       is_visible="true" />
    <inkscape:path-effect
       effect="spiro"
       id="path-effect3869"
       is_visible="true" />
    <inkscape:path-effect
       effect="spiro"
       id="path-effect3097"
       is_visible="true" />
  </defs>
  <sodipodi:namedview
     pagecolor="#ffffff"
     bordercolor="#666666"
     borderopacity="1"
     objecttolerance="10"
     gridtolerance="10"
     guidetolerance="10"
     inkscape:pageopacity="0"
     inkscape:pageshadow="2"
     inkscape:window-width="1209"
     inkscape:window-height="692"
     id="namedview114"
     showgrid="false"
     inkscape:zoom="0.45132503"
     inkscape:cx="822.16045"
     inkscape:cy="168.82746"
     inkscape:window-x="0"
     inkscape:window-y="0"
     inkscape:window-maximized="0"
     inkscape:current-layer="svg2">
    <sodipodi:guide
       position="0,0"
       orientation="0,1103.75"
       id="guide4712" />
    <sodipodi:guide
       position="1112.8344,261.45237"
       orientation="-235,0"
       id="guide4714" />
    <sodipodi:guide
       position="1103.75,235"
       orientation="0,-1103.75"
       id="guide4716" />
    <sodipodi:guide
       position="-16.063811,249.81996"
       orientation="235,0"
       id="guide4718" />
  </sodipodi:namedview>
  <g
     id="graph0"
     class="graph"
     transform="scale(1 1) rotate(0) translate(4 184)">
    <title
       id="title5">G</title>
    <polygon
       points="-4,4 -4,-184 879,-184 879,4 -4,4"
       id="polygon7"
       stroke="white"
       fill="white"
       inkscape:export-filename="/Users/djb/balisage_2017/Balisage-1-3-xsl/ozymandius_hypergraph.png"
       inkscape:export-xdpi="90"
       inkscape:export-ydpi="90" />
    <!-- line1 -->
    <g
       id="node1"
       class="node">
      <title
         id="title10">line1</title>
      <ellipse
         cx="171"
         cy="-162"
         rx="27"
         ry="18"
         id="ellipse12"
         d="m 198,-162 c 0,9.94113 -12.08831,18 -27,18 -14.91169,0 -27,-8.05887 -27,-18 0,-9.94113 12.08831,-18 27,-18 14.91169,0 27,8.05887 27,18 z"
         stroke="black"
         fill="cyan" />
      <text
         x="171"
         y="-158.3"
         font-size="14.00"
         id="text14"
         text-anchor="middle"
         font-family="Times,serif">line</text>
    </g>
    <!-- node1 -->
    <g
       id="node3"
       class="node">
      <title
         id="title17">node1</title>
      <ellipse
         cx="59"
         cy="-90"
         rx="59.2173"
         ry="18"
         id="ellipse19"
         d="m 118.2173,-90 c 0,9.941125 -26.512488,18 -59.2173,18 -32.704812,0 -59.21730042,-8.058875 -59.21730042,-18 0,-9.941125 26.51248842,-18 59.21730042,-18 32.704812,0 59.2173,8.058875 59.2173,18 z"
         stroke="black"
         fill="pink" />
      <text
         x="59"
         y="-86.3"
         font-size="14.00"
         id="text21"
         text-anchor="middle"
         font-family="Times,serif">Who said — </text>
    </g>
    <!-- line1&#45;&gt;node1 -->
    <!-- node2 -->
    <g
       id="node4"
       class="node">
      <title
         id="title24">node2</title>
      <ellipse
         cx="283"
         cy="-90"
         rx="146.331"
         ry="18"
         id="ellipse26"
         d="m 429.33099,-90 c 0,9.941125 -65.51461,18 -146.33099,18 -80.81638,0 -146.33099,-8.058875 -146.33099,-18 0,-9.941125 65.51461,-18 146.33099,-18 80.81638,0 146.33099,8.058875 146.33099,18 z"
         stroke="black"
         fill="pink" />
      <text
         x="283"
         y="-86.3"
         font-size="14.00"
         id="text28"
         text-anchor="middle"
         font-family="Times,serif">“Two vast and trunkless legs of stone</text>
    </g>
    <!-- line1&#45;&gt;node2 -->
    <!-- line2 -->
    <g
       id="node2"
       class="node">
      <title
         id="title31">line2</title>
      <ellipse
         cx="697"
         cy="-162"
         rx="27"
         ry="18"
         id="ellipse33"
         d="m 724,-162 c 0,9.94113 -12.08831,18 -27,18 -14.91169,0 -27,-8.05887 -27,-18 0,-9.94113 12.08831,-18 27,-18 14.91169,0 27,8.05887 27,18 z"
         stroke="black"
         fill="cyan" />
      <text
         x="697"
         y="-158.3"
         font-size="14.00"
         id="text35"
         text-anchor="middle"
         font-family="Times,serif">line</text>
    </g>
    <!-- node3 -->
    <g
       id="node5"
       class="node">
      <title
         id="title38">node3</title>
      <ellipse
         cx="538"
         cy="-90"
         rx="89.5377"
         ry="18"
         id="ellipse40"
         d="m 627.5377,-90 c 0,9.941125 -40.0874,18 -89.5377,18 -49.4503,0 -89.5377,-8.058875 -89.5377,-18 0,-9.941125 40.0874,-18 89.5377,-18 49.4503,0 89.5377,8.058875 89.5377,18 z"
         stroke="black"
         fill="pink" />
      <text
         x="538"
         y="-86.3"
         font-size="14.00"
         id="text42"
         text-anchor="middle"
         font-family="Times,serif">Stand in the desart ....</text>
    </g>
    <!-- line2&#45;&gt;node3 -->
    <!-- node4 -->
    <g
       id="node6"
       class="node">
      <title
         id="title45">node4</title>
      <ellipse
         cx="697"
         cy="-90"
         rx="51.0191"
         ry="18"
         id="ellipse47"
         d="m 748.0191,-90 c 0,9.941125 -22.84203,18 -51.0191,18 -28.17707,0 -51.0191,-8.058875 -51.0191,-18 0,-9.941125 22.84203,-18 51.0191,-18 28.17707,0 51.0191,8.058875 51.0191,18 z"
         stroke="black"
         fill="pink" />
      <text
         x="697"
         y="-86.3"
         font-size="14.00"
         id="text49"
         text-anchor="middle"
         font-family="Times,serif">Near them,</text>
    </g>
    <!-- line2&#45;&gt;node4 -->
    <!-- node5 -->
    <g
       id="node7"
       class="node">
      <title
         id="title52">node5</title>
      <ellipse
         cx="821"
         cy="-90"
         rx="54.3924"
         ry="18"
         id="ellipse54"
         d="m 875.3924,-90 c 0,9.941125 -24.35231,18 -54.3924,18 -30.04009,0 -54.3924,-8.058875 -54.3924,-18 0,-9.941125 24.35231,-18 54.3924,-18 30.04009,0 54.3924,8.058875 54.3924,18 z"
         stroke="black"
         fill="pink" />
      <text
         x="821"
         y="-86.3"
         font-size="14.00"
         id="text56"
         text-anchor="middle"
         font-family="Times,serif">on the sand,</text>
    </g>
    <!-- line2&#45;&gt;node5 -->
    <!-- node1&#45;&gt;node2 -->
    <g
       id="edge6"
       class="edge">
      <title
         id="title59">node1-&gt;node2</title>
      <path
         d="M118.5,-90C121.124,-90 123.748,-90 126.372,-90"
         id="path61"
         stroke="black"
         fill="none" />
      <polygon
         points="126.492,-93.5001 136.492,-90 126.492,-86.5001 126.492,-93.5001"
         id="polygon63"
         stroke="black"
         fill="black" />
    </g>
    <!-- phrase1 -->
    <g
       id="node8"
       class="node">
      <title
         id="title66">phrase1</title>
      <ellipse
         cx="59"
         cy="-18"
         rx="34.1708"
         ry="18"
         id="ellipse68"
         d="M 93.170799,-18 C 93.170799,-8.0588745 77.872011,0 59,0 40.127989,0 24.829201,-8.0588745 24.829201,-18 c 0,-9.941125 15.298788,-18 34.170799,-18 18.872011,0 34.170799,8.058875 34.170799,18 z"
         stroke="black"
         fill="green"
         style="fill:#00ff00;fill-opacity:1" />
      <text
         x="59"
         y="-14.3"
         font-size="14.00"
         id="text70"
         text-anchor="middle"
         font-family="Times,serif">phrase</text>
    </g>
    <!-- node1&#45;&gt;phrase1 -->
    <!-- node2&#45;&gt;node3 -->
    <g
       id="edge7"
       class="edge">
      <title
         id="title73">node2-&gt;node3</title>
      <path
         d="M429.924,-90C432.73,-90 435.535,-90 438.341,-90"
         id="path75"
         stroke="black"
         fill="none" />
      <polygon
         points="438.499,-93.5001 448.499,-90 438.499,-86.5001 438.499,-93.5001"
         id="polygon77"
         stroke="black"
         fill="black" />
    </g>
    <!-- phrase2 -->
    <g
       id="node9"
       class="node">
      <title
         id="title80">phrase2</title>
      <ellipse
         cx="410"
         cy="-18"
         rx="34.1708"
         ry="18"
         id="ellipse82"
         d="m 444.1708,-18 c 0,9.9411255 -15.29879,18 -34.1708,18 -18.87201,0 -34.1708,-8.0588745 -34.1708,-18 0,-9.941125 15.29879,-18 34.1708,-18 18.87201,0 34.1708,8.058875 34.1708,18 z"
         stroke="black"
         fill="green"
         style="fill:#00ff00;fill-opacity:1" />
      <text
         x="410"
         y="-14.3"
         font-size="14.00"
         id="text84"
         text-anchor="middle"
         font-family="Times,serif">phrase</text>
    </g>
    <!-- node2&#45;&gt;phrase2 -->
    <!-- node3&#45;&gt;node4 -->
    <g
       id="edge8"
       class="edge">
      <title
         id="title87">node3-&gt;node4</title>
      <path
         d="M627.438,-90C630.093,-90 632.748,-90 635.403,-90"
         id="path89"
         stroke="black"
         fill="none" />
      <polygon
         points="635.643,-93.5001 645.643,-90 635.643,-86.5001 635.643,-93.5001"
         id="polygon91"
         stroke="black"
         fill="black" />
    </g>
    <!-- node3&#45;&gt;phrase2 -->
    <!-- node4&#45;&gt;node5 -->
    <g
       id="edge9"
       class="edge">
      <title
         id="title94">node4-&gt;node5</title>
      <path
         d="M748.344,-90C750.993,-90 753.642,-90 756.291,-90"
         id="path96"
         stroke="black"
         fill="none" />
      <polygon
         points="756.508,-93.5001 766.508,-90 756.508,-86.5001 756.508,-93.5001"
         id="polygon98"
         stroke="black"
         fill="black" />
    </g>
    <!-- phrase3 -->
    <g
       id="node10"
       class="node">
      <title
         id="title101">phrase3</title>
      <ellipse
         cx="697"
         cy="-18"
         rx="34.1708"
         ry="18"
         id="ellipse103"
         d="m 731.1708,-18 c 0,9.9411255 -15.29879,18 -34.1708,18 -18.87201,0 -34.1708,-8.0588745 -34.1708,-18 0,-9.941125 15.29879,-18 34.1708,-18 18.87201,0 34.1708,8.058875 34.1708,18 z"
         stroke="black"
         fill="green"
         style="fill:#00ff00;fill-opacity:1" />
      <text
         x="697"
         y="-14.3"
         font-size="14.00"
         id="text105"
         text-anchor="middle"
         font-family="Times,serif">phrase</text>
    </g>
    <!-- node4&#45;&gt;phrase3 -->
    <!-- phrase4 -->
    <g
       id="node11"
       class="node">
      <title
         id="title108">phrase4</title>
      <ellipse
         cx="821"
         cy="-18"
         rx="34.1708"
         ry="18"
         id="ellipse110"
         d="m 855.1708,-18 c 0,9.9411255 -15.29879,18 -34.1708,18 -18.87201,0 -34.1708,-8.0588745 -34.1708,-18 0,-9.941125 15.29879,-18 34.1708,-18 18.87201,0 34.1708,8.058875 34.1708,18 z"
         stroke="black"
         fill="green"
         style="fill:#00ff00;fill-opacity:1" />
      <text
         x="821"
         y="-14.3"
         font-size="14.00"
         id="text112"
         text-anchor="middle"
         font-family="Times,serif">phrase</text>
    </g>
    <!-- node5&#45;&gt;phrase4 -->
  </g>
  <path
     style="fill:none;stroke:#00ffff;stroke-width:3;stroke-linecap:butt;stroke-linejoin:miter;stroke-miterlimit:4;stroke-opacity:1;stroke-dasharray:none"
     d="M -4.758958,114.83631 C 2.268324,104.74017 12.467525,97.0279 23.79479,92.23126 c 17.099782,-7.241067 36.162999,-7.909012 54.728017,-8.328176 13.09031,-0.295555 26.184923,-0.519473 39.261403,-1.18974 12.30352,-0.630647 24.58351,-1.656064 36.88192,-2.379479 24.16379,-1.421357 48.37878,-1.675863 72.57411,-2.379479 24.98685,-0.726635 49.96017,-1.932539 74.95359,-2.379479 21.0161,-0.375817 42.03784,-0.214843 63.0562,0 19.43611,0.198669 38.87443,0.443458 58.29723,1.18974 17.87528,0.686821 35.73765,1.798658 53.53828,3.569218 17.51607,1.742256 35.31721,4.223267 51.1588,11.897395 5.15236,2.495955 10.25609,5.731532 13.08713,10.70766 1.67858,2.95045 2.44278,6.31574 3.56922,9.51791 0.7555,2.1477 1.6842,4.25057 2.1135,6.48644 0.21464,1.11793 0.30157,2.26658 0.17202,3.39754 -0.12954,1.13096 -0.48075,2.24525 -1.09578,3.20316 -0.88209,1.37386 -2.26257,2.36459 -3.73339,3.0733 -1.47081,0.70871 -3.04785,1.1636 -4.59479,1.68565 -8.24619,2.78285 -15.70373,7.50165 -23.79479,10.70766 -7.6164,3.01793 -15.70425,4.66002 -23.79479,5.9487 -10.25278,1.63309 -20.58584,2.72179 -30.93322,3.56922 -17.80794,1.45843 -35.67158,2.204 -53.53828,2.37947 -14.67281,0.1441 -29.34684,0 -44.02036,0 l -39.26141,0 c -16.26023,0 -32.52389,0.39539 -48.77932,0 -17.85968,-0.43441 -35.6749,-2.14086 -53.53827,-2.37947 -18.64328,-0.24902 -37.27302,1.10155 -55.91776,1.18974 -19.0407,0.0901 -38.06666,-1.13647 -57.1075,-1.18974 -13.887364,-0.0388 -27.768368,0.54644 -41.640878,1.18974 -10.338177,0.47941 -20.814069,0.9806 -30.933227,-1.18974 -10.986173,-2.3563 -21.045315,-7.75072 -30.9332265,-13.08714 -2.71851957,-1.46716 -5.4697586,-2.95808 -7.7282546,-5.06571 -1.129248,-1.05381 -2.1271096,-2.25906 -2.8678972,-3.6144 -0.7407877,-1.35535 -1.2199814,-2.86458 -1.3012432,-4.40702 -0.090833,-1.72412 0.3155636,-3.44882 0.9853591,-5.0401 0.6697955,-1.59129 1.5975453,-3.06078 2.5838594,-4.47782"
     id="path3095"
     inkscape:path-effect="#path-effect3097"
     inkscape:original-d="m -4.758958,114.83631 c 7.151563,-9.8093 17.421953,-17.762494 28.553748,-22.60505 16.920935,-7.360948 36.351104,-6.657646 54.728017,-8.328176 13.039377,-1.185328 26.182943,-0.569877 39.261403,-1.18974 12.30572,-0.583239 24.57693,-1.780973 36.88192,-2.379479 24.17579,-1.175893 48.38233,-1.598896 72.57411,-2.379479 24.98411,-0.806149 49.95962,-1.982849 74.95359,-2.379479 21.01609,-0.333505 42.03856,-0.214443 63.0562,0 19.43544,0.1983 38.87915,0.344778 58.29723,1.18974 17.8688,0.777546 35.84687,0.940059 53.53828,3.569218 17.31781,2.573637 35.44834,4.170071 51.1588,11.897395 5.05776,2.487705 9.80335,6.12656 13.08713,10.70766 1.97405,2.75395 2.81419,6.21472 3.56922,9.51791 0.97607,4.27024 3.21443,9.20278 1.18974,13.08714 -1.47787,2.83528 -5.47899,3.30807 -8.32818,4.75895 -7.75063,3.94681 -15.57752,7.85703 -23.79479,10.70766 -7.72413,2.67955 -15.75107,4.48559 -23.79479,5.9487 -10.21193,1.8575 -20.58664,2.74341 -30.93322,3.56922 -17.80708,1.42127 -35.67897,1.98279 -53.53828,2.37947 -14.66984,0.32583 -29.34691,0 -44.02036,0 -13.08714,0 -26.17427,0 -39.26141,0 -16.25977,0 -32.52356,0.36106 -48.77932,0 -17.8593,-0.39668 -35.67576,-2.17278 -53.53827,-2.37947 -18.64222,-0.21572 -37.27429,1.18561 -55.91776,1.18974 -19.03996,0.004 -38.06768,-1.26336 -57.1075,-1.18974 -13.885853,0.0537 -27.75509,1.25833 -41.640878,1.18974 -10.318574,-0.051 -20.861754,1.05548 -30.933227,-1.18974 -10.927676,-2.43609 -21.799114,-6.61284 -30.9332265,-13.08714 -4.8098689,-3.40926 -10.7867274,-7.29711 -11.897395,-13.08713 -0.6383365,-3.32771 1.5730704,-6.77994 3.5692185,-9.51792 z"
     inkscape:connector-curvature="0"
     transform="scale(0.8,0.8)"
     sodipodi:nodetypes="aaaaaaaaaaaaaaaaaaaaaaaaaaaaaa" />
  <path
     style="fill:none;stroke:#00ffff;stroke-width:3;stroke-linecap:butt;stroke-linejoin:miter;stroke-miterlimit:4;stroke-opacity:1;stroke-dasharray:none"
     d="m 559.17756,117.21579 c 0.41203,-4.09005 2.53773,-7.8782 5.3915,-10.83696 2.85377,-2.95875 6.40538,-5.15677 10.07512,-7.009133 7.85833,-3.966623 16.38076,-6.467363 24.98453,-8.328176 19.8913,-4.302068 40.33683,-5.269815 60.67671,-5.948698 19.82252,-0.661615 39.65383,-1.062514 59.48698,-1.189739 24.58749,-0.157723 49.17584,0 73.76384,0 l 60.67672,0 c 20.62228,0 41.2455,0.233736 61.86645,0 20.22841,-0.229287 40.44744,-1.058298 60.67672,-1.18974 18.63928,-0.12111 37.28137,0.350053 55.91777,0 15.5844,-0.292726 31.5324,-1.112658 46.3998,3.569219 4.0269,1.268114 7.9505,2.942254 11.4668,5.278875 3.5163,2.336621 6.6216,5.357036 8.7588,8.998002 2.3132,3.94078 3.4352,8.51958 3.5692,13.08713 0.094,3.20911 -0.2885,6.43652 -1.1897,9.51792 -1.6306,5.57528 -4.9917,10.6359 -9.5179,14.27687 -4.1685,3.35328 -9.1974,5.45932 -14.2769,7.13844 -9.62,3.18004 -19.6583,4.9761 -29.7435,5.9487 -15.0184,1.44836 -30.1613,1.08744 -45.2101,0 -13.47342,-0.9736 -27.00905,-2.52802 -40.45115,-1.18974 -11.56122,1.15102 -22.88869,4.43088 -34.50244,4.75895 -12.35855,0.34911 -24.5523,-2.65495 -36.88193,-3.56921 -10.28679,-0.76278 -20.61841,-0.0674 -30.93322,0 -13.49035,0.0882 -26.96366,-0.89841 -40.45115,-1.18974 -15.06686,-0.32544 -30.13973,0 -45.2101,0 l -42.83062,0 c -15.86474,0 -31.74095,-0.71479 -47.58958,0 -16.27698,0.73411 -32.52277,3.47669 -48.77932,2.37948 -11.19541,-0.75562 -22.18425,-3.32165 -33.3127,-4.75896 -5.81105,-0.75053 -11.67517,-1.19558 -17.39973,-2.44495 -5.72456,-1.24938 -11.37903,-3.36152 -15.91298,-7.07297 -3.79261,-3.10459 -6.69351,-7.27676 -8.32818,-11.89739 -0.94292,-2.6653 -1.47311,-5.51524 -1.18974,-8.32818"
     id="path3867"
     inkscape:path-effect="#path-effect3869"
     inkscape:original-d="m 559.17756,117.21579 c 2.22152,-7.55192 8.92217,-13.47153 15.46662,-17.846093 7.29832,-4.878476 16.39824,-6.500419 24.98453,-8.328176 19.87718,-4.231241 40.38937,-4.753161 60.67671,-5.948698 19.79861,-1.166736 39.65501,-0.991439 59.48698,-1.189739 24.58672,-0.245842 49.17589,0 73.76384,0 20.22557,0 40.45115,0 60.67672,0 20.62215,0 41.24529,0.202149 61.86645,0 20.22849,-0.1983 40.44823,-0.99144 60.67672,-1.18974 18.63836,-0.182712 37.29227,-0.715311 55.91777,0 15.5009,0.595308 31.8053,-1.687455 46.3998,3.569219 7.764,2.796469 15.4901,7.518537 20.2256,14.276877 2.5948,3.70311 3.2487,8.5768 3.5692,13.08713 0.2267,3.18928 -0.075,6.52127 -1.1897,9.51792 -1.9944,5.36058 -5.2301,10.49166 -9.5179,14.27687 -3.9888,3.52124 -9.2442,5.41169 -14.2769,7.13844 -9.5636,3.28134 -19.6819,4.9524 -29.7435,5.9487 -14.9967,1.48497 -30.1417,0.22155 -45.2101,0 -13.48809,-0.19831 -26.98114,-1.91555 -40.45115,-1.18974 -11.59288,0.62466 -22.89513,4.52333 -34.50244,4.75895 -12.34887,0.25067 -24.54489,-2.97365 -36.88193,-3.56921 -10.29908,-0.49718 -20.62326,0.15158 -30.93322,0 -13.48809,-0.19831 -26.96306,-0.99143 -40.45115,-1.18974 -15.0684,-0.22155 -30.14007,0 -45.2101,0 -14.27687,0 -28.55375,0 -42.83062,0 -15.86319,0 -31.7311,-0.38656 -47.58958,0 -16.27427,0.3967 -32.51787,3.13745 -48.77932,2.37948 -11.2048,-0.52227 -22.34239,-2.41959 -33.3127,-4.75896 -11.29463,-2.40853 -23.9081,-2.81545 -33.31271,-9.51792 -3.94217,-2.8095 -6.54919,-7.39525 -8.32818,-11.89739 -1.03054,-2.60802 -1.98113,-5.63792 -1.18974,-8.32818 z"
     inkscape:connector-curvature="0"
     transform="scale(0.8,0.8)"
     sodipodi:nodetypes="aaaaaaaaaaaaaaaaaaaaaaaaaaaaaaa" />
  <path
     style="fill:none;stroke:#00ff00;stroke-width:3;stroke-linecap:butt;stroke-linejoin:miter;stroke-miterlimit:4;stroke-opacity:1;stroke-dasharray:none"
     d="m 168.94301,114.83631 c 0.63361,-2.56377 1.98439,-4.92401 3.7432,-6.89402 1.75882,-1.97 3.91746,-3.55988 6.23841,-4.81985 4.6419,-2.51996 9.86487,-3.718606 15.00292,-4.942482 15.44336,-3.678585 30.78716,-7.831308 46.39984,-10.707656 23.14466,-4.263975 46.70496,-5.692071 70.19463,-7.138437 19.432,-1.196517 38.8629,-2.411164 58.29723,-3.569218 33.29276,-1.98385 66.60004,-3.801802 99.93812,-4.758958 20.22126,-0.580564 40.45007,-0.844327 60.67672,-1.18974 32.51977,-0.555345 65.06099,-1.32158 97.55864,0 31.82938,1.294403 63.54368,4.588978 95.17915,8.328177 20.1197,2.378076 40.86123,5.149477 58.29724,15.466613 4.15062,2.455979 8.16235,5.421481 10.70766,9.517921 1.74316,2.80546 2.72946,6.06556 2.90997,9.36354 0.18051,3.29797 -0.43801,6.62842 -1.72023,9.67229 -2.54501,6.04162 -7.56515,10.74332 -13.08714,14.27687 -9.5834,6.13247 -20.84698,9.19078 -32.12297,10.70766 -17.70767,2.38209 -35.67112,1.16118 -53.53827,1.18974 -21.03538,0.0336 -42.02862,1.80561 -63.0562,2.37948 -26.95889,0.73574 -53.93796,-0.49865 -80.90228,0 -24.614,0.45519 -49.17568,2.35354 -73.76385,3.56921 -25.3633,1.25399 -50.75609,1.78157 -76.14333,2.37948 -22.6027,0.53233 -45.20629,1.12055 -67.81515,1.18974 -15.86322,0.0486 -31.72708,-0.15844 -47.58958,0 -21.15705,0.21132 -42.70425,1.02581 -63.05619,-4.75896 -10.28188,-2.92249 -20.01473,-7.46917 -29.74349,-11.89739 -4.2103,-1.91639 -8.45448,-3.82822 -12.26943,-6.44459 -3.81495,-2.61637 -7.21801,-6.0067 -9.14588,-10.21176 -1.52523,-3.32682 -2.0678,-7.15476 -1.18974,-10.70766"
     id="path3871"
     inkscape:path-effect="#path-effect3873"
     inkscape:original-d="m 168.94301,114.83631 c 4.22768,-9.07255 15.79452,-12.69046 24.98453,-16.656352 14.57395,-6.289307 30.73991,-8.114982 46.39984,-10.707656 23.20304,-3.841517 46.75332,-5.229692 70.19463,-7.138437 19.40457,-1.580048 38.8572,-2.511306 58.29723,-3.569218 33.30118,-1.812226 66.60648,-3.638786 99.93812,-4.758958 20.21805,-0.679465 40.44823,-0.99144 60.67672,-1.18974 32.51798,-0.318773 65.07005,-1.418666 97.55864,0 31.81728,1.389352 63.80861,2.836424 95.17915,8.328177 19.80352,3.466821 40.58656,5.951884 58.29724,15.466613 4.20681,2.260029 8.61638,5.224725 10.70766,9.517921 2.78416,5.71562 3.30852,13.04162 1.18974,19.03583 -2.15151,6.08679 -7.67049,10.76433 -13.08714,14.27687 -9.47001,6.14103 -21.00262,8.77605 -32.12297,10.70766 -17.58715,3.0549 -35.69579,0.65487 -53.53827,1.18974 -21.02425,0.63025 -42.02625,1.98283 -63.0562,2.37948 -26.96263,0.50855 -53.94273,-0.65186 -80.90228,0 -24.60952,0.59504 -49.16662,2.58986 -73.76385,3.56921 -25.3734,1.01026 -50.75738,1.76017 -76.14333,2.37948 -22.6018,0.55139 -45.20749,0.99144 -67.81515,1.18974 -15.86258,0.13913 -31.73764,0.59734 -47.58958,0 -21.06356,-0.79372 -42.52279,0.004 -63.05619,-4.75896 -10.40209,-2.41274 -20.48082,-6.58441 -29.74349,-11.89739 -7.84456,-4.49957 -16.9989,-8.76467 -21.41531,-16.65635 -1.75378,-3.13383 -2.70658,-7.45254 -1.18974,-10.70766 z"
     inkscape:connector-curvature="0"
     transform="scale(0.8,0.8)"
     sodipodi:nodetypes="aaaaaaaaaaaaaaaaaaaaaaaaa" />
  <path
     style="fill:none;stroke:#00ff00;stroke-width:3;stroke-linecap:butt;stroke-linejoin:miter;stroke-miterlimit:4;stroke-opacity:1;stroke-dasharray:none"
     d="m 158.23535,117.21579 c -0.13643,3.28929 -1.27139,6.4938 -2.99079,9.30123 -1.71941,2.80744 -4.0088,5.23472 -6.52712,7.35512 -5.5216,4.64914 -12.1612,7.86301 -19.08846,9.89171 -6.92726,2.02871 -14.1504,2.90302 -21.36269,3.19543 -12.683444,0.51422 -25.399771,-0.74661 -38.07166,0 -6.396719,0.37688 -12.760463,1.26442 -19.165214,1.46245 -6.404751,0.19804 -12.937802,-0.32082 -18.90645,-2.65219 -8.320325,-3.24995 -14.912065,-9.73728 -22.60505,-14.27688 -3.0959112,-1.82688 -6.3763348,-3.34086 -9.37724019,-5.31994 -3.00090541,-1.97907 -5.76847761,-4.50527 -7.27911281,-7.76719 -1.0080438,-2.17668 -1.4151802,-4.61216 -1.2922057,-7.00777 0.1229746,-2.39561 0.7667157,-4.7514 1.7675132,-6.93142 2.0015952,-4.36003 5.3731011,-7.954873 9.0426085,-11.04534 15.32208,-12.904291 35.925279,-17.775782 55.917756,-19.035832 16.244967,-1.023859 32.541217,0.06217 48.779315,1.189739 6.31965,0.438837 12.67377,0.889272 18.83147,2.376971 6.15771,1.487699 12.16654,4.076828 16.86072,8.330685 4.67228,4.234014 7.80313,9.870122 10.70766,15.466617 2.51458,4.84513 4.98517,10.01251 4.75895,15.46661"
     id="path3875"
     inkscape:path-effect="#path-effect3877"
     inkscape:original-d="m 158.23535,117.21579 c -0.70405,6.35578 -4.55476,12.62413 -9.51791,16.65635 -10.99933,8.93621 -26.4524,10.87898 -40.45115,13.08714 -12.535558,1.97736 -25.382655,0.19822 -38.07166,0 -12.695201,-0.19831 -25.931828,2.52938 -38.071664,-1.18974 -8.521119,-2.6105 -15.324109,-9.13761 -22.60505,-14.27688 C 3.7493036,127.42087 -5.2521862,125.20982 -7.138437,118.40553 -9.5191967,109.81739 -4.0342417,99.608758 2.379479,93.421 16.549576,79.750132 38.834158,77.363907 58.297235,74.385168 c 16.077407,-2.460577 32.717099,-1.368123 48.779315,1.189739 12.26668,1.953434 25.64345,3.406272 35.69219,10.707656 5.07279,3.685876 7.96881,9.825907 10.70766,15.466617 2.35605,4.85232 5.35284,10.10534 4.75895,15.46661 z"
     inkscape:connector-curvature="0"
     transform="scale(0.8,0.8)"
     sodipodi:nodetypes="aaaaaaaaaaaaa" />
  <path
     style="fill:none;stroke:#00ff00;stroke-width:3;stroke-linecap:butt;stroke-linejoin:miter;stroke-miterlimit:4;stroke-opacity:1;stroke-dasharray:none"
     d="m 804.2639,116.02605 c 1.64862,6.25695 4.92651,12.09715 9.51792,16.65635 6.22061,6.17697 14.48925,9.77283 22.60505,13.08714 11.27225,4.60333 22.69051,8.94228 34.50244,11.89739 6.29161,1.57403 12.72196,2.75546 19.20736,2.79379 6.48541,0.0383 13.05311,-1.10397 18.86431,-3.98353 8.62619,-4.27444 14.96748,-11.98524 22.60505,-17.84609 4.26132,-3.27001 9.09323,-6.12633 11.89739,-10.70765 1.83472,-2.99749 2.65115,-6.56466 2.56301,-10.07797 -0.0881,-3.51332 -1.05438,-6.97347 -2.56301,-10.14761 -3.80928,-8.014667 -10.99245,-14.097817 -19.03583,-17.846089 -11.74942,-5.475311 -25.11335,-6.280478 -38.07166,-5.948697 -13.98444,0.358054 -27.93955,1.936544 -41.64089,4.758958 -10.09266,2.079043 -20.04971,4.833168 -29.74348,8.328176 -1.789,0.64501 -3.57727,1.319015 -5.23426,2.252256 -1.657,0.933236 -3.18889,2.141436 -4.28366,3.696446 -1.30253,1.85011 -1.92935,4.11972 -2.03953,6.37967 -0.11018,2.25995 0.27329,4.5195 0.84979,6.70746"
     id="path3879"
     inkscape:path-effect="#path-effect3881"
     inkscape:original-d="m 804.2639,116.02605 c 1.35956,6.24846 5.00901,12.12189 9.51792,16.65635 6.13916,6.17394 14.68525,9.47001 22.60505,13.08714 11.06587,5.054 22.47442,10.07449 34.50244,11.89739 12.5534,1.90252 26.14366,3.16114 38.07167,-1.18974 9.01892,-3.28976 15.26584,-11.65743 22.60505,-17.84609 4.07887,-3.43943 9.72673,-5.83373 11.89739,-10.70765 2.74285,-6.15869 2.68009,-14.03932 0,-20.22558 -3.45758,-7.980894 -11.21951,-14.031026 -19.03583,-17.846089 -11.54297,-5.634002 -25.22985,-5.684088 -38.07166,-5.948697 -13.96768,-0.287808 -27.9307,2.073841 -41.64089,4.758958 -10.10386,1.978823 -20.32496,4.169435 -29.74348,8.328176 -3.42254,1.511219 -7.55782,2.761924 -9.51792,5.948702 -2.29489,3.7311 -2.12104,8.80691 -1.18974,13.08713 z"
     inkscape:connector-curvature="0"
     transform="scale(0.8,0.8)"
     sodipodi:nodetypes="aaaaaaaaaaaaaa" />
  <path
     style="fill:none;stroke:#00ff00;stroke-width:3;stroke-linecap:butt;stroke-linejoin:miter;stroke-miterlimit:4;stroke-opacity:1;stroke-dasharray:none"
     d="m 956.55056,118.40553 c 1.94234,7.26798 6.99119,13.43749 13.08713,17.84609 6.67087,4.8244 14.57143,7.71894 22.60505,9.51792 12.87256,2.88257 26.17806,3.07397 39.26136,4.75896 13.0694,1.68319 26.32,4.86165 39.2614,2.37947 10.4217,-1.99888 20.2083,-7.88062 26.1743,-16.65635 3.7952,-5.58257 6.0031,-12.28559 5.9487,-19.03583 -0.074,-9.18894 -4.5357,-18.294973 -11.8974,-23.79479 -4.4981,-3.360441 -9.8981,-5.352037 -15.3942,-6.499959 -5.4962,-1.147922 -11.1241,-1.490652 -16.7287,-1.828218 -14.2624,-0.859034 -28.5517,-1.704878 -42.8307,-1.189739 -10.7769,0.388795 -21.52894,1.554313 -32.12294,3.569218 -4.75442,0.904257 -9.51613,1.992369 -13.91968,4.000092 -4.40354,2.007723 -8.46499,5.005027 -11.06485,9.087046 -3.31809,5.2097 -3.97418,11.87888 -2.37947,17.84609"
     id="path3883"
     inkscape:path-effect="#path-effect3885"
     inkscape:original-d="m 956.55056,118.40553 c 1.82576,7.1473 7.29718,13.27512 13.08713,17.84609 6.41699,5.066 14.70324,7.41948 22.60505,9.51792 12.74126,3.38363 26.13246,3.56651 39.26136,4.75896 13.0574,1.18596 26.568,5.66256 39.2614,2.37947 10.0121,-2.58957 19.8872,-8.44542 26.1743,-16.65635 4.0416,-5.27826 6.4825,-12.40941 5.9487,-19.03583 -0.712,-8.83916 -5.0043,-18.215945 -11.8974,-23.79479 -8.5984,-6.959023 -21.1706,-6.776687 -32.1229,-8.328177 -14.1412,-2.00323 -28.5606,-1.781481 -42.8307,-1.189739 -10.7643,0.446364 -21.81977,0.420582 -32.12294,3.569218 -8.99107,2.747659 -19.59548,5.383434 -24.98453,13.087138 -3.44002,4.91755 -3.8648,12.03146 -2.37947,17.84609 z"
     inkscape:connector-curvature="0"
     transform="scale(0.8,0.8)"
     sodipodi:nodetypes="aaaaaaaaaaaaa" />
  <g
     id="g4704">
    <path
       style="font-size:medium;font-style:normal;font-variant:normal;font-weight:normal;font-stretch:normal;text-indent:0;text-align:start;text-decoration:none;line-height:normal;letter-spacing:normal;word-spacing:normal;text-transform:none;direction:ltr;block-progression:tb;writing-mode:lr-tb;text-anchor:start;baseline-shift:baseline;color:#000000;fill:#00ff00;fill-opacity:1;fill-rule:nonzero;stroke:none;stroke-width:3;marker:none;visibility:visible;display:inline;overflow:visible;enable-background:accumulate;font-family:Sans;-inkscape-font-specification:Sans"
       d="m 63.05,115.75 -0.45,34.575 2.4,0.025 0.45,-34.575 -2.4,-0.025 z"
       id="path4457"
       inkscape:connector-curvature="0" />
    <path
       d="m 58.286197,128.24751 5.986736,-15.6578 5.583352,15.80614 c -3.383266,-2.5571 -8.05643,-2.60253 -11.570088,-0.14834 z"
       style="fill-rule:evenodd;stroke-width:0.62500000000000000;stroke-linejoin:round;fill:#00ff00;fill-opacity:1"
       id="path4710"
       inkscape:connector-curvature="0" />
  </g>
  <g
     id="g4231">
    <path
       style="font-size:medium;font-style:normal;font-variant:normal;font-weight:normal;font-stretch:normal;text-indent:0;text-align:start;text-decoration:none;line-height:normal;letter-spacing:normal;word-spacing:normal;text-transform:none;direction:ltr;block-progression:tb;writing-mode:lr-tb;text-anchor:start;baseline-shift:baseline;color:#000000;fill:#000000;fill-opacity:1;stroke:none;stroke-width:3;marker:none;visibility:visible;display:inline;overflow:visible;enable-background:accumulate;font-family:Sans;-inkscape-font-specification:Sans"
       d="m 432.525,117.175 -8.775,31.025 2.3,0.65 8.775,-31.025 -2.3,-0.65 z"
       id="path4045"
       inkscape:connector-curvature="0" />
    <path
       d="m 424.66614,127.99697 9.849,-13.56485 1.28528,16.71395 c -2.60277,-3.34826 -7.10368,-4.60619 -11.13428,-3.1491 z"
       style="fill-rule:evenodd;stroke-width:0.8;stroke-linejoin:round;fill:#00ff00;fill-opacity:1;stroke:#000000;stroke-opacity:1;stroke-miterlimit:4;stroke-dasharray:none"
       id="path4237"
       inkscape:connector-curvature="0" />
  </g>
  <g
     id="g4425">
    <path
       style="font-size:medium;font-style:normal;font-variant:normal;font-weight:normal;font-stretch:normal;text-indent:0;text-align:start;text-decoration:none;line-height:normal;letter-spacing:normal;word-spacing:normal;text-transform:none;direction:ltr;block-progression:tb;writing-mode:lr-tb;text-anchor:start;baseline-shift:baseline;color:#000000;fill:#000000;fill-opacity:1;stroke:none;stroke-width:3;marker:none;visibility:visible;display:inline;overflow:visible;enable-background:accumulate;font-family:Sans;-inkscape-font-specification:Sans"
       d="m 710.1,125.55 -1.875,22.25 2.4,0.82669 L 712.5,125.75 z"
       id="path4239"
       inkscape:connector-curvature="0"
       sodipodi:nodetypes="ccccc" />
    <path
       d="m 704.45261,137.665 7.08982,-15.19021 4.44012,16.16457 c -3.19198,-2.79222 -7.84997,-3.17132 -11.52994,-0.97436 z"
       style="fill-rule:evenodd;stroke-width:0.80000000000000004;stroke-linejoin:round;stroke-miterlimit:4;stroke-dasharray:none;fill:#00ff00;fill-opacity:1;stroke:#000000;stroke-opacity:1"
       id="path4431"
       inkscape:connector-curvature="0" />
  </g>
  <g
     id="g4619">
    <path
       style="font-size:medium;font-style:normal;font-variant:normal;font-weight:normal;font-stretch:normal;text-indent:0;text-align:start;text-decoration:none;line-height:normal;letter-spacing:normal;word-spacing:normal;text-transform:none;direction:ltr;block-progression:tb;writing-mode:lr-tb;text-anchor:start;baseline-shift:baseline;color:#000000;fill:#000000;fill-opacity:1;stroke:none;stroke-width:3;marker:none;visibility:visible;display:inline;overflow:visible;enable-background:accumulate;font-family:Sans;-inkscape-font-specification:Sans"
       d="m 826.82496,117.125 -1.57496,30.55 2.4,0.125 1.57496,-30.55 -2.4,-0.125 z"
       id="path4433"
       inkscape:connector-curvature="0" />
    <path
       d="m 821.57558,129.42438 6.5837,-15.41632 4.97215,16.00892 c -3.28255,-2.68516 -7.95053,-2.91003 -11.55585,-0.5926 z"
       style="fill-rule:evenodd;stroke-width:0.8;stroke-linejoin:round;fill:#00ff00;fill-opacity:1;stroke:#000000;stroke-opacity:1;stroke-miterlimit:4;stroke-dasharray:none"
       id="path4625"
       inkscape:connector-curvature="0" />
  </g>
  <g
     id="g4813">
    <path
       style="font-size:medium;font-style:normal;font-variant:normal;font-weight:normal;font-stretch:normal;text-indent:0;text-align:start;text-decoration:none;line-height:normal;letter-spacing:normal;word-spacing:normal;text-transform:none;direction:ltr;block-progression:tb;writing-mode:lr-tb;text-anchor:start;baseline-shift:baseline;color:#000000;fill:#000000;fill-opacity:1;stroke:none;stroke-width:2.4000001;marker:none;visibility:visible;display:inline;overflow:visible;enable-background:accumulate;font-family:Sans;-inkscape-font-specification:Sans"
       d="m 161.625,37.5625 -18.875,30.40625 2.0625,1.25 18.84375,-30.375 -2.03125,-1.28125 z"
       id="path4627"
       inkscape:connector-curvature="0" />
    <path
       d="m 155.33949,60.98765 -13.2139,10.315064 3.38337,-16.418303 c 1.57619,3.937112 5.55423,6.389811 9.83053,6.103239 z"
       style="fill-rule:evenodd;stroke-width:0.80000000000000004;stroke-linejoin:round;stroke-miterlimit:4;stroke-dasharray:none;stroke:#000000;stroke-opacity:1;fill:#00ffff;fill-opacity:1"
       id="path4819"
       inkscape:connector-curvature="0" />
  </g>
  <g
     id="g5008">
    <path
       style="font-size:medium;font-style:normal;font-variant:normal;font-weight:normal;font-stretch:normal;text-indent:0;text-align:start;text-decoration:none;line-height:normal;letter-spacing:normal;word-spacing:normal;text-transform:none;direction:ltr;block-progression:tb;writing-mode:lr-tb;text-anchor:start;baseline-shift:baseline;color:#000000;fill:#000000;fill-opacity:1;stroke:none;stroke-width:3;marker:none;visibility:visible;display:inline;overflow:visible;enable-background:accumulate;font-family:Sans;-inkscape-font-specification:Sans"
       d="m 680.925,33.6 -36.8,37.225 1.725,1.7 36.775,-37.225 -1.7,-1.7 z"
       id="path4821"
       inkscape:connector-curvature="0" />
    <path
       d="m 657.94576,66.827909 -15.17368,7.125104 6.94288,-15.257924 c 0.66308,4.188742 3.99755,7.46316 8.2308,8.13282 z"
       style="fill-rule:evenodd;stroke-width:0.80000000000000004;stroke-linejoin:round;stroke-miterlimit:4;stroke-dasharray:none;stroke:#000000;stroke-opacity:1;fill:#00ffff;fill-opacity:1"
       id="path5014"
       inkscape:connector-curvature="0" />
  </g>
</svg>
