<?xml version="1.0" encoding="UTF-8" standalone="no"?>
<!-- Generated by graphviz version 2.34.0 (20130907.0228)
 -->

<!-- Title: G Pages: 1 -->

<svg
   xmlns:dc="http://purl.org/dc/elements/1.1/"
   xmlns:cc="http://creativecommons.org/ns#"
   xmlns:rdf="http://www.w3.org/1999/02/22-rdf-syntax-ns#"
   xmlns:svg="http://www.w3.org/2000/svg"
   xmlns="http://www.w3.org/2000/svg"
   xmlns:sodipodi="http://sodipodi.sourceforge.net/DTD/sodipodi-0.dtd"
   xmlns:inkscape="http://www.inkscape.org/namespaces/inkscape"
   width="1714pt"
   height="332pt"
   viewBox="0.00 0.00 1714.00 332.00"
   id="svg2"
   version="1.1"
   inkscape:version="0.48.5 r10040"
   sodipodi:docname="ozymandius_hypergraph.svg"
   inkscape:export-filename="/Users/djb/balisage_2017/Balisage-1-3-xsl/ozymandius_hypergraph.png"
   inkscape:export-xdpi="90"
   inkscape:export-ydpi="90">
  <metadata
     id="metadata230">
    <rdf:RDF>
      <cc:Work
         rdf:about="">
        <dc:format>image/svg+xml</dc:format>
        <dc:type
           rdf:resource="http://purl.org/dc/dcmitype/StillImage" />
        <dc:title></dc:title>
      </cc:Work>
    </rdf:RDF>
  </metadata>
  <defs
     id="defs228">
    <inkscape:path-effect
       effect="spiro"
       id="path-effect6844"
       is_visible="true" />
    <inkscape:path-effect
       effect="spiro"
       id="path-effect6646"
       is_visible="true" />
    <inkscape:path-effect
       effect="spiro"
       id="path-effect6448"
       is_visible="true" />
    <inkscape:path-effect
       effect="spiro"
       id="path-effect6250"
       is_visible="true" />
    <inkscape:path-effect
       effect="spiro"
       id="path-effect5862"
       is_visible="true" />
    <inkscape:path-effect
       effect="spiro"
       id="path-effect5856"
       is_visible="true" />
    <marker
       inkscape:stockid="Arrow2Mend"
       orient="auto"
       refY="0.0"
       refX="0.0"
       id="Arrow2Mend"
       style="overflow:visible;">
      <path
         id="path4117"
         style="fill-rule:evenodd;stroke-width:0.62500000;stroke-linejoin:round;"
         d="M 8.7185878,4.0337352 L -2.2072895,0.016013256 L 8.7185884,-4.0017078 C 6.9730900,-1.6296469 6.9831476,1.6157441 8.7185878,4.0337352 z "
         transform="scale(0.6) rotate(180) translate(0,0)" />
    </marker>
    <inkscape:path-effect
       effect="spiro"
       id="path-effect5656"
       is_visible="true" />
    <marker
       inkscape:stockid="Arrow1Lend"
       orient="auto"
       refY="0.0"
       refX="0.0"
       id="Arrow1Lend"
       style="overflow:visible;">
      <path
         id="path4093"
         d="M 0.0,0.0 L 5.0,-5.0 L -12.5,0.0 L 5.0,5.0 L 0.0,0.0 z "
         style="fill-rule:evenodd;stroke:#000000;stroke-width:1.0pt;"
         transform="scale(0.8) rotate(180) translate(12.5,0)" />
    </marker>
    <inkscape:path-effect
       effect="spiro"
       id="path-effect4724"
       is_visible="true" />
    <marker
       inkscape:stockid="Arrow1Mend"
       orient="auto"
       refY="0.0"
       refX="0.0"
       id="Arrow1Mend"
       style="overflow:visible;">
      <path
         id="path4099"
         d="M 0.0,0.0 L 5.0,-5.0 L -12.5,0.0 L 5.0,5.0 L 0.0,0.0 z "
         style="fill-rule:evenodd;stroke:#000000;stroke-width:1.0pt;"
         transform="scale(0.4) rotate(180) translate(10,0)" />
    </marker>
    <inkscape:path-effect
       effect="spiro"
       id="path-effect4084"
       is_visible="true" />
    <inkscape:path-effect
       effect="spiro"
       id="path-effect4036"
       is_visible="true" />
    <inkscape:path-effect
       effect="spiro"
       id="path-effect4032"
       is_visible="true" />
    <inkscape:path-effect
       effect="spiro"
       id="path-effect4028"
       is_visible="true" />
    <inkscape:path-effect
       effect="spiro"
       id="path-effect4024"
       is_visible="true" />
    <inkscape:path-effect
       effect="spiro"
       id="path-effect4020"
       is_visible="true" />
    <inkscape:path-effect
       effect="spiro"
       id="path-effect4016"
       is_visible="true" />
    <inkscape:path-effect
       effect="skeletal"
       id="path-effect3999"
       is_visible="true"
       pattern="M 0,0 0,10 10,5 z"
       copytype="single_stretched"
       prop_scale="1"
       scale_y_rel="false"
       spacing="0"
       normal_offset="0"
       tang_offset="0"
       prop_units="false"
       vertical_pattern="false"
       fuse_tolerance="0" />
    <inkscape:path-effect
       effect="skeletal"
       id="path-effect3991"
       is_visible="true"
       pattern="M 0,0 0,10 10,5 z"
       copytype="single_stretched"
       prop_scale="1"
       scale_y_rel="false"
       spacing="0"
       normal_offset="0"
       tang_offset="0"
       prop_units="false"
       vertical_pattern="false"
       fuse_tolerance="0" />
    <inkscape:path-effect
       effect="skeletal"
       id="path-effect3987"
       is_visible="true"
       pattern="M 0,0 0,10 10,5 z"
       copytype="single_stretched"
       prop_scale="1"
       scale_y_rel="false"
       spacing="0"
       normal_offset="0"
       tang_offset="0"
       prop_units="false"
       vertical_pattern="false"
       fuse_tolerance="0" />
  </defs>
  <sodipodi:namedview
     pagecolor="#ffffff"
     bordercolor="#666666"
     borderopacity="1"
     objecttolerance="10"
     gridtolerance="10"
     guidetolerance="10"
     inkscape:pageopacity="0"
     inkscape:pageshadow="2"
     inkscape:window-width="1280"
     inkscape:window-height="737"
     id="namedview226"
     showgrid="false"
     inkscape:zoom="0.86602016"
     inkscape:cx="850.99489"
     inkscape:cy="145.23132"
     inkscape:window-x="0"
     inkscape:window-y="0"
     inkscape:window-maximized="0"
     inkscape:current-layer="svg2" />
  <g
     id="graph0"
     class="graph"
     transform="scale(1 1) rotate(0) translate(4 328)">
    <title
       id="title5">G</title>
    <polygon
       points="-4,4 -4,-328 1710,-328 1710,4 -4,4"
       id="polygon7"
       stroke="white"
       fill="white" />
    <!-- lines -->
    <g
       id="node1"
       class="node">
      <title
         id="title10">lines</title>
    </g>
    <!-- line1 -->
    <g
       id="node2"
       class="node">
      <title
         id="title17">line1</title>
      <ellipse
         cx="426"
         cy="-234"
         rx="27"
         ry="18"
         id="ellipse19"
         d="m 453,-234 c 0,9.94113 -12.08831,18 -27,18 -14.91169,0 -27,-8.05887 -27,-18 0,-9.94113 12.08831,-18 27,-18 14.91169,0 27,8.05887 27,18 z"
         stroke="black"
         fill="cyan" />
      <text
         x="426"
         y="-230.3"
         font-size="14.00"
         id="text21"
         text-anchor="middle"
         font-family="Times,serif">line</text>
    </g>
    <!-- lines&#45;&gt;line1 -->
    <!-- line2 -->
    <g
       id="node3"
       class="node">
      <title
         id="title24">line2</title>
      <ellipse
         cx="1242"
         cy="-234"
         rx="27"
         ry="18"
         id="ellipse26"
         d="m 1269,-234 c 0,9.94113 -12.0883,18 -27,18 -14.9117,0 -27,-8.05887 -27,-18 0,-9.94113 12.0883,-18 27,-18 14.9117,0 27,8.05887 27,18 z"
         stroke="black"
         fill="cyan" />
      <text
         x="1242"
         y="-230.3"
         font-size="14.00"
         id="text28"
         text-anchor="middle"
         font-family="Times,serif">line</text>
    </g>
    <!-- lines&#45;&gt;line2 -->
    <!-- Who -->
    <g
       id="node4"
       class="node">
      <title
         id="title31">Who</title>
      <ellipse
         cx="28"
         cy="-162"
         rx="28.3955"
         ry="18"
         id="ellipse33"
         d="m 56.3955,-162 c 0,9.94113 -12.713098,18 -28.3955,18 -15.682402,0 -28.39550018,-8.05887 -28.39550018,-18 0,-9.94113 12.71309818,-18 28.39550018,-18 15.682402,0 28.3955,8.05887 28.3955,18 z"
         stroke="black"
         fill="pink" />
      <text
         x="28"
         y="-158.3"
         font-size="14.00"
         id="text35"
         text-anchor="middle"
         font-family="Times,serif">Who</text>
    </g>
    <!-- line1&#45;&gt;Who -->
    <!-- said -->
    <g
       id="node5"
       class="node">
      <title
         id="title38">said</title>
      <ellipse
         cx="102"
         cy="-162"
         rx="27"
         ry="18"
         id="ellipse40"
         d="m 129,-162 c 0,9.94113 -12.08831,18 -27,18 -14.911688,0 -27,-8.05887 -27,-18 0,-9.94113 12.088312,-18 27,-18 14.91169,0 27,8.05887 27,18 z"
         stroke="black"
         fill="pink" />
      <text
         x="102"
         y="-158.3"
         font-size="14.00"
         id="text42"
         text-anchor="middle"
         font-family="Times,serif">said</text>
    </g>
    <!-- line1&#45;&gt;said -->
    <!-- dash -->
    <g
       id="node6"
       class="node">
      <title
         id="title45">dash</title>
      <ellipse
         cx="174"
         cy="-162"
         rx="27"
         ry="18"
         id="ellipse47"
         d="m 201,-162 c 0,9.94113 -12.08831,18 -27,18 -14.91169,0 -27,-8.05887 -27,-18 0,-9.94113 12.08831,-18 27,-18 14.91169,0 27,8.05887 27,18 z"
         stroke="black"
         fill="pink" />
      <text
         x="174"
         y="-158.3"
         font-size="14.00"
         id="text49"
         text-anchor="middle"
         font-family="Times,serif">—</text>
    </g>
    <!-- line1&#45;&gt;dash -->
    <!-- open_quote -->
    <g
       id="node7"
       class="node">
      <title
         id="title52">open_quote</title>
      <ellipse
         cx="246"
         cy="-162"
         rx="27"
         ry="18"
         id="ellipse54"
         d="m 273,-162 c 0,9.94113 -12.08831,18 -27,18 -14.91169,0 -27,-8.05887 -27,-18 0,-9.94113 12.08831,-18 27,-18 14.91169,0 27,8.05887 27,18 z"
         stroke="black"
         fill="pink" />
      <text
         x="246"
         y="-158.3"
         font-size="14.00"
         id="text56"
         text-anchor="middle"
         font-family="Times,serif">“</text>
    </g>
    <!-- line1&#45;&gt;open_quote -->
    <!-- Two -->
    <g
       id="node8"
       class="node">
      <title
         id="title59">Two</title>
      <ellipse
         cx="318"
         cy="-162"
         rx="26.949"
         ry="18"
         id="ellipse61"
         d="m 344.949,-162 c 0,9.94113 -12.06548,18 -26.949,18 -14.88352,0 -26.949,-8.05887 -26.949,-18 0,-9.94113 12.06548,-18 26.949,-18 14.88352,0 26.949,8.05887 26.949,18 z"
         stroke="black"
         fill="pink" />
      <text
         x="318"
         y="-158.3"
         font-size="14.00"
         id="text63"
         text-anchor="middle"
         font-family="Times,serif">Two</text>
    </g>
    <!-- line1&#45;&gt;Two -->
    <!-- vast -->
    <g
       id="node9"
       class="node">
      <title
         id="title66">vast</title>
      <ellipse
         cx="390"
         cy="-162"
         rx="27"
         ry="18"
         id="ellipse68"
         d="m 417,-162 c 0,9.94113 -12.08831,18 -27,18 -14.91169,0 -27,-8.05887 -27,-18 0,-9.94113 12.08831,-18 27,-18 14.91169,0 27,8.05887 27,18 z"
         stroke="black"
         fill="pink" />
      <text
         x="390"
         y="-158.3"
         font-size="14.00"
         id="text70"
         text-anchor="middle"
         font-family="Times,serif">vast</text>
    </g>
    <!-- line1&#45;&gt;vast -->
    <!-- and -->
    <g
       id="node10"
       class="node">
      <title
         id="title73">and</title>
      <ellipse
         cx="462"
         cy="-162"
         rx="27"
         ry="18"
         id="ellipse75"
         d="m 489,-162 c 0,9.94113 -12.08831,18 -27,18 -14.91169,0 -27,-8.05887 -27,-18 0,-9.94113 12.08831,-18 27,-18 14.91169,0 27,8.05887 27,18 z"
         stroke="black"
         fill="pink" />
      <text
         x="462"
         y="-158.3"
         font-size="14.00"
         id="text77"
         text-anchor="middle"
         font-family="Times,serif">and</text>
    </g>
    <!-- line1&#45;&gt;and -->
    <!-- trunkless -->
    <g
       id="node11"
       class="node">
      <title
         id="title80">trunkless</title>
      <ellipse
         cx="551"
         cy="-162"
         rx="43.319"
         ry="18"
         id="ellipse82"
         d="m 594.319,-162 c 0,9.94113 -19.39458,18 -43.319,18 -23.92442,0 -43.319,-8.05887 -43.319,-18 0,-9.94113 19.39458,-18 43.319,-18 23.92442,0 43.319,8.05887 43.319,18 z"
         stroke="black"
         fill="pink" />
      <text
         x="551"
         y="-158.3"
         font-size="14.00"
         id="text84"
         text-anchor="middle"
         font-family="Times,serif">trunkless</text>
    </g>
    <!-- line1&#45;&gt;trunkless -->
    <!-- legs -->
    <g
       id="node12"
       class="node">
      <title
         id="title87">legs</title>
      <ellipse
         cx="640"
         cy="-162"
         rx="27"
         ry="18"
         id="ellipse89"
         d="m 667,-162 c 0,9.94113 -12.08831,18 -27,18 -14.91169,0 -27,-8.05887 -27,-18 0,-9.94113 12.08831,-18 27,-18 14.91169,0 27,8.05887 27,18 z"
         stroke="black"
         fill="pink" />
      <text
         x="640"
         y="-158.3"
         font-size="14.00"
         id="text91"
         text-anchor="middle"
         font-family="Times,serif">legs</text>
    </g>
    <!-- line1&#45;&gt;legs -->
    <!-- of -->
    <g
       id="node13"
       class="node">
      <title
         id="title94">of</title>
      <ellipse
         cx="712"
         cy="-162"
         rx="27"
         ry="18"
         id="ellipse96"
         d="m 739,-162 c 0,9.94113 -12.08831,18 -27,18 -14.91169,0 -27,-8.05887 -27,-18 0,-9.94113 12.08831,-18 27,-18 14.91169,0 27,8.05887 27,18 z"
         stroke="black"
         fill="pink" />
      <text
         x="712"
         y="-158.3"
         font-size="14.00"
         id="text98"
         text-anchor="middle"
         font-family="Times,serif">of</text>
    </g>
    <!-- line1&#45;&gt;of -->
    <!-- stone -->
    <g
       id="node14"
       class="node">
      <title
         id="title101">stone</title>
      <ellipse
         cx="787"
         cy="-162"
         rx="29.3479"
         ry="18"
         id="ellipse103"
         d="m 816.3479,-162 c 0,9.94113 -13.1395,18 -29.3479,18 -16.2084,0 -29.3479,-8.05887 -29.3479,-18 0,-9.94113 13.1395,-18 29.3479,-18 16.2084,0 29.3479,8.05887 29.3479,18 z"
         stroke="black"
         fill="pink" />
      <text
         x="787"
         y="-158.3"
         font-size="14.00"
         id="text105"
         text-anchor="middle"
         font-family="Times,serif">stone</text>
    </g>
    <!-- line1&#45;&gt;stone -->
    <!-- Stand -->
    <g
       id="node15"
       class="node">
      <title
         id="title108">Stand</title>
      <ellipse
         cx="866"
         cy="-162"
         rx="31.2965"
         ry="18"
         id="ellipse110"
         d="m 897.2965,-162 c 0,9.94113 -14.01192,18 -31.2965,18 -17.28458,0 -31.2965,-8.05887 -31.2965,-18 0,-9.94113 14.01192,-18 31.2965,-18 17.28458,0 31.2965,8.05887 31.2965,18 z"
         stroke="black"
         fill="pink" />
      <text
         x="866"
         y="-158.3"
         font-size="14.00"
         id="text112"
         text-anchor="middle"
         font-family="Times,serif">Stand</text>
    </g>
    <!-- line2&#45;&gt;Stand -->
    <!-- in -->
    <g
       id="node16"
       class="node">
      <title
         id="title115">in</title>
      <ellipse
         cx="942"
         cy="-162"
         rx="27"
         ry="18"
         id="ellipse117"
         d="m 969,-162 c 0,9.94113 -12.08831,18 -27,18 -14.91169,0 -27,-8.05887 -27,-18 0,-9.94113 12.08831,-18 27,-18 14.91169,0 27,8.05887 27,18 z"
         stroke="black"
         fill="pink" />
      <text
         x="942"
         y="-158.3"
         font-size="14.00"
         id="text119"
         text-anchor="middle"
         font-family="Times,serif">in</text>
    </g>
    <!-- line2&#45;&gt;in -->
    <!-- the -->
    <g
       id="node17"
       class="node">
      <title
         id="title122">the</title>
      <ellipse
         cx="1014"
         cy="-162"
         rx="27"
         ry="18"
         id="ellipse124"
         d="m 1041,-162 c 0,9.94113 -12.0883,18 -27,18 -14.91169,0 -27,-8.05887 -27,-18 0,-9.94113 12.08831,-18 27,-18 14.9117,0 27,8.05887 27,18 z"
         stroke="black"
         fill="pink" />
      <text
         x="1014"
         y="-158.3"
         font-size="14.00"
         id="text126"
         text-anchor="middle"
         font-family="Times,serif">the</text>
    </g>
    <!-- line2&#45;&gt;the -->
    <!-- desart -->
    <g
       id="node18"
       class="node">
      <title
         id="title129">desart</title>
      <ellipse
         cx="1091"
         cy="-162"
         rx="32.2457"
         ry="18"
         id="ellipse131"
         d="m 1123.2457,-162 c 0,9.94113 -14.4369,18 -32.2457,18 -17.8088,0 -32.2457,-8.05887 -32.2457,-18 0,-9.94113 14.4369,-18 32.2457,-18 17.8088,0 32.2457,8.05887 32.2457,18 z"
         stroke="black"
         fill="pink" />
      <text
         x="1091"
         y="-158.3"
         font-size="14.00"
         id="text133"
         text-anchor="middle"
         font-family="Times,serif">desart</text>
    </g>
    <!-- line2&#45;&gt;desart -->
    <!-- ellipsis -->
    <g
       id="node19"
       class="node">
      <title
         id="title136">ellipsis</title>
      <ellipse
         cx="1168"
         cy="-162"
         rx="27"
         ry="18"
         id="ellipse138"
         d="m 1195,-162 c 0,9.94113 -12.0883,18 -27,18 -14.9117,0 -27,-8.05887 -27,-18 0,-9.94113 12.0883,-18 27,-18 14.9117,0 27,8.05887 27,18 z"
         stroke="black"
         fill="pink" />
      <text
         x="1168"
         y="-158.3"
         font-size="14.00"
         id="text140"
         text-anchor="middle"
         font-family="Times,serif">....</text>
    </g>
    <!-- line2&#45;&gt;ellipsis -->
    <!-- Near -->
    <g
       id="node20"
       class="node">
      <title
         id="title143">Near</title>
      <ellipse
         cx="1242"
         cy="-162"
         rx="28.3955"
         ry="18"
         id="ellipse145"
         d="m 1270.3955,-162 c 0,9.94113 -12.7131,18 -28.3955,18 -15.6824,0 -28.3955,-8.05887 -28.3955,-18 0,-9.94113 12.7131,-18 28.3955,-18 15.6824,0 28.3955,8.05887 28.3955,18 z"
         stroke="black"
         fill="pink" />
      <text
         x="1242"
         y="-158.3"
         font-size="14.00"
         id="text147"
         text-anchor="middle"
         font-family="Times,serif">Near</text>
    </g>
    <!-- line2&#45;&gt;Near -->
    <!-- them -->
    <g
       id="node21"
       class="node">
      <title
         id="title150">them</title>
      <ellipse
         cx="1317"
         cy="-162"
         rx="28.3955"
         ry="18"
         id="ellipse152"
         d="m 1345.3955,-162 c 0,9.94113 -12.7131,18 -28.3955,18 -15.6824,0 -28.3955,-8.05887 -28.3955,-18 0,-9.94113 12.7131,-18 28.3955,-18 15.6824,0 28.3955,8.05887 28.3955,18 z"
         stroke="black"
         fill="pink" />
      <text
         x="1317"
         y="-158.3"
         font-size="14.00"
         id="text154"
         text-anchor="middle"
         font-family="Times,serif">them</text>
    </g>
    <!-- line2&#45;&gt;them -->
    <!-- comma -->
    <g
       id="node22"
       class="node">
      <title
         id="title157">comma</title>
      <ellipse
         cx="1391"
         cy="-162"
         rx="27"
         ry="18"
         id="ellipse159"
         d="m 1418,-162 c 0,9.94113 -12.0883,18 -27,18 -14.9117,0 -27,-8.05887 -27,-18 0,-9.94113 12.0883,-18 27,-18 14.9117,0 27,8.05887 27,18 z"
         stroke="black"
         fill="pink" />
      <text
         x="1391"
         y="-158.3"
         font-size="14.00"
         id="text161"
         text-anchor="middle"
         font-family="Times,serif">,</text>
    </g>
    <!-- line2&#45;&gt;comma -->
    <!-- on -->
    <g
       id="node23"
       class="node">
      <title
         id="title164">on</title>
      <ellipse
         cx="1463"
         cy="-162"
         rx="27"
         ry="18"
         id="ellipse166"
         d="m 1490,-162 c 0,9.94113 -12.0883,18 -27,18 -14.9117,0 -27,-8.05887 -27,-18 0,-9.94113 12.0883,-18 27,-18 14.9117,0 27,8.05887 27,18 z"
         stroke="black"
         fill="pink" />
      <text
         x="1463"
         y="-158.3"
         font-size="14.00"
         id="text168"
         text-anchor="middle"
         font-family="Times,serif">on</text>
    </g>
    <!-- line2&#45;&gt;on -->
    <!-- the1 -->
    <g
       id="node24"
       class="node">
      <title
         id="title171">the1</title>
      <ellipse
         cx="1535"
         cy="-162"
         rx="27"
         ry="18"
         id="ellipse173"
         d="m 1562,-162 c 0,9.94113 -12.0883,18 -27,18 -14.9117,0 -27,-8.05887 -27,-18 0,-9.94113 12.0883,-18 27,-18 14.9117,0 27,8.05887 27,18 z"
         stroke="black"
         fill="pink" />
      <text
         x="1535"
         y="-158.3"
         font-size="14.00"
         id="text175"
         text-anchor="middle"
         font-family="Times,serif">the</text>
    </g>
    <!-- line2&#45;&gt;the1 -->
    <!-- sand -->
    <g
       id="node25"
       class="node">
      <title
         id="title178">sand</title>
      <ellipse
         cx="1607"
         cy="-162"
         rx="26.949"
         ry="18"
         id="ellipse180"
         d="m 1633.949,-162 c 0,9.94113 -12.0655,18 -26.949,18 -14.8835,0 -26.949,-8.05887 -26.949,-18 0,-9.94113 12.0655,-18 26.949,-18 14.8835,0 26.949,8.05887 26.949,18 z"
         stroke="black"
         fill="pink" />
      <text
         x="1607"
         y="-158.3"
         font-size="14.00"
         id="text182"
         text-anchor="middle"
         font-family="Times,serif">sand</text>
    </g>
    <!-- line2&#45;&gt;sand -->
    <!-- comma1 -->
    <g
       id="node26"
       class="node">
      <title
         id="title185">comma1</title>
      <ellipse
         cx="1679"
         cy="-162"
         rx="27"
         ry="18"
         id="ellipse187"
         d="m 1706,-162 c 0,9.94113 -12.0883,18 -27,18 -14.9117,0 -27,-8.05887 -27,-18 0,-9.94113 12.0883,-18 27,-18 14.9117,0 27,8.05887 27,18 z"
         stroke="black"
         fill="pink" />
      <text
         x="1679"
         y="-158.3"
         font-size="14.00"
         id="text189"
         text-anchor="middle"
         font-family="Times,serif">,</text>
    </g>
    <!-- line2&#45;&gt;comma1 -->
    <!-- phrase0 -->
    <g
       id="node28"
       class="node">
      <title
         id="title192">phrase0</title>
      <ellipse
         cx="138"
         cy="-90"
         rx="34.1708"
         ry="18"
         id="ellipse194"
         d="m 172.1708,-90 c 0,9.941125 -15.29879,18 -34.1708,18 -18.87201,0 -34.1708,-8.058875 -34.1708,-18 0,-9.941125 15.29879,-18 34.1708,-18 18.87201,0 34.1708,8.058875 34.1708,18 z"
         stroke="black"
         fill="green" />
      <text
         x="138"
         y="-86.3"
         font-size="14.00"
         id="text196"
         text-anchor="middle"
         font-family="Times,serif">phrase</text>
    </g>
    <!-- Who&#45;&gt;phrase0 -->
    <!-- said&#45;&gt;phrase0 -->
    <!-- dash&#45;&gt;phrase0 -->
    <!-- phrase -->
    <g
       id="node27"
       class="node">
      <title
         id="title199">phrase</title>
      <ellipse
         cx="749"
         cy="-90"
         rx="34.1708"
         ry="18"
         id="ellipse201"
         d="m 783.1708,-90 c 0,9.941125 -15.29879,18 -34.1708,18 -18.87201,0 -34.1708,-8.058875 -34.1708,-18 0,-9.941125 15.29879,-18 34.1708,-18 18.87201,0 34.1708,8.058875 34.1708,18 z"
         stroke="black"
         fill="green" />
      <text
         x="749"
         y="-86.3"
         font-size="14.00"
         id="text203"
         text-anchor="middle"
         font-family="Times,serif">phrase</text>
    </g>
    <!-- open_quote&#45;&gt;phrase -->
    <!-- Two&#45;&gt;phrase -->
    <!-- vast&#45;&gt;phrase -->
    <!-- and&#45;&gt;phrase -->
    <!-- trunkless&#45;&gt;phrase -->
    <!-- legs&#45;&gt;phrase -->
    <!-- of&#45;&gt;phrase -->
    <!-- stone&#45;&gt;phrase -->
    <!-- Stand&#45;&gt;phrase -->
    <!-- in&#45;&gt;phrase -->
    <!-- the&#45;&gt;phrase -->
    <!-- desart&#45;&gt;phrase -->
    <!-- ellipsis&#45;&gt;phrase -->
    <!-- phrase1 -->
    <g
       id="node29"
       class="node">
      <title
         id="title206">phrase1</title>
      <ellipse
         cx="1279"
         cy="-90"
         rx="34.1708"
         ry="18"
         id="ellipse208"
         d="m 1313.1708,-90 c 0,9.941125 -15.2988,18 -34.1708,18 -18.872,0 -34.1708,-8.058875 -34.1708,-18 0,-9.941125 15.2988,-18 34.1708,-18 18.872,0 34.1708,8.058875 34.1708,18 z"
         stroke="black"
         fill="green" />
      <text
         x="1279"
         y="-86.3"
         font-size="14.00"
         id="text210"
         text-anchor="middle"
         font-family="Times,serif">phrase</text>
    </g>
    <!-- Near&#45;&gt;phrase1 -->
    <!-- them&#45;&gt;phrase1 -->
    <!-- comma&#45;&gt;phrase1 -->
    <!-- phrase2 -->
    <g
       id="node30"
       class="node">
      <title
         id="title213">phrase2</title>
      <ellipse
         cx="1535"
         cy="-90"
         rx="34.1708"
         ry="18"
         id="ellipse215"
         d="m 1569.1708,-90 c 0,9.941125 -15.2988,18 -34.1708,18 -18.872,0 -34.1708,-8.058875 -34.1708,-18 0,-9.941125 15.2988,-18 34.1708,-18 18.872,0 34.1708,8.058875 34.1708,18 z"
         stroke="black"
         fill="green" />
      <text
         x="1535"
         y="-86.3"
         font-size="14.00"
         id="text217"
         text-anchor="middle"
         font-family="Times,serif">phrase</text>
    </g>
    <!-- on&#45;&gt;phrase2 -->
    <!-- the1&#45;&gt;phrase2 -->
    <!-- sand&#45;&gt;phrase2 -->
    <!-- comma1&#45;&gt;phrase2 -->
    <!-- phrases -->
    <g
       id="node31"
       class="node">
      <title
         id="title220">phrases</title>
    </g>
    <!-- phrase&#45;&gt;phrases -->
    <!-- phrase0&#45;&gt;phrases -->
    <!-- phrase1&#45;&gt;phrases -->
    <!-- phrase2&#45;&gt;phrases -->
  </g>
  <path
     style="fill:none;stroke:#008000;stroke-width:3;stroke-linecap:butt;stroke-linejoin:miter;stroke-miterlimit:4;stroke-opacity:1;stroke-dasharray:none"
     d="m 274.82039,195.60557 c 2.19053,-6.33746 6.18115,-11.96903 11.05796,-16.57105 4.87681,-4.60201 10.62434,-8.2106 16.65502,-11.14193 21.03787,-10.22589 45.19069,-12.20873 68.54739,-10.93385 23.35669,1.27489 46.44832,5.61779 69.77536,7.35268 54.68736,4.06724 109.26434,-6.23684 163.6123,-13.55457 97.04162,-13.06626 195.23924,-16.67692 293.1026,-13.42662 97.7107,3.24523 195.89708,13.28855 292.92098,1.2772 52.0056,-6.43818 103.3762,-19.19057 155.7661,-20.34632 26.1949,-0.57787 52.6139,1.799 77.7496,9.1951 25.1358,7.3961 48.9946,19.95937 67.8744,38.12696 5.7586,5.54142 11.0779,11.63776 14.9441,18.6322 3.8661,6.99443 6.2309,14.95497 5.8407,22.93727 -0.5178,10.59212 -5.8726,20.54067 -13.214,28.19341 -7.3415,7.65274 -16.5706,13.23297 -26.0461,17.9949 -33.3801,16.77521 -70.8025,24.29002 -108.093,26.53867 -37.2906,2.24865 -74.6813,-0.5924 -111.9215,-3.56058 -59.5652,-4.74757 -119.135,-9.82641 -178.8578,-11.75927 -29.2182,-0.94561 -58.4574,-1.13756 -87.68978,-0.88861 -21.55618,0.18358 -43.10949,0.60684 -64.66362,0.9566 -12.95362,0.2102 -25.90978,0.39385 -38.86383,0.21219 -41.00169,-0.57498 -82.05151,-4.80679 -122.93945,-1.70098 -85.92937,6.52711 -166.28647,44.95553 -251.33955,58.82759 -42.52654,6.93603 -86.81456,7.54743 -128.03476,-5.00286 -41.2202,-12.5503 -79.18277,-39.35148 -99.25487,-77.47924 -3.54906,-6.74158 -6.54399,-13.84181 -8.02469,-21.31525 -1.4807,-7.47343 -1.39247,-15.36294 1.09644,-22.56364"
     id="path4018"
     inkscape:path-effect="#path-effect4020"
     inkscape:original-d="m 274.82039,195.60557 c 4.03997,-12.42366 14.66497,-27.06633 27.71298,-27.71298 51.53914,-2.55423 92.82348,-2.23658 138.32275,-3.58117 45.49926,-1.34458 95.21345,-4.3514 163.6123,-13.55457 97.97418,-13.18256 195.91261,-10.7909 293.1026,-13.42662 97.18999,-2.63573 194.34968,-2.82081 292.92098,1.2772 98.5712,4.098 198.554,12.4791 301.3901,26.97574 15.3404,2.16251 22.6459,26.18963 20.7848,41.56947 -2.4274,20.06014 -21.3856,36.76463 -39.2601,46.18831 -65.2271,34.38869 -146.2911,21.56207 -220.0145,22.97809 -59.737,1.14738 -119.1527,-9.49581 -178.8578,-11.75927 -29.2104,-1.10739 -58.4584,-0.95671 -87.68978,-0.88861 -21.55684,0.0502 -43.10783,0.73831 -64.66362,0.9566 -12.95414,0.13118 -25.90914,0.26644 -38.86383,0.21219 -40.98338,-0.17162 -81.97618,-0.40578 -122.93945,-1.70098 -159.65799,-5.04817 -359.78731,83.0824 -478.62918,-23.65451 -11.0165,-9.89438 -11.50738,-29.79722 -6.92825,-43.87889 z"
     inkscape:connector-curvature="0"
     transform="scale(0.8,0.8)"
     sodipodi:nodetypes="assssssaaaaaaaaaa" />
  <path
     style="fill:none;stroke:#008000;stroke-width:3;stroke-linecap:butt;stroke-linejoin:miter;stroke-miterlimit:4;stroke-opacity:1;stroke-dasharray:none"
     d="m 1517.2857,208.30735 c -0.9565,-4.52645 -1.2083,-9.22291 -0.4965,-13.79423 0.7119,-4.57132 2.4045,-9.01502 5.1153,-12.76404 3.0264,-4.18548 7.2623,-7.42337 11.9389,-9.61588 4.6765,-2.19251 9.7866,-3.3695 14.9289,-3.85318 10.2846,-0.96737 20.6003,0.78535 30.8676,1.92198 34.1475,3.78025 68.6721,0.74837 102.769,-3.46412 13.0127,-1.60765 26.0553,-3.39033 39.1666,-3.28753 13.1112,0.10279 26.4091,2.16886 38.1988,7.90636 5.4042,2.62995 10.4649,6.029 14.6992,10.29428 4.2342,4.26529 7.628,9.41464 9.5496,15.10929 2.0063,5.9458 2.3693,12.43694 1.0383,18.56934 -1.331,6.13241 -4.3522,11.88904 -8.6429,16.46812 -48.4807,19.39265 -100.1236,30.85417 -152.2563,33.79146 -13.4112,0.75562 -26.932,0.9466 -40.2064,-1.1078 -13.2744,-2.0544 -26.3623,-6.44503 -37.3241,-14.20834 -7.9904,-5.65892 -14.7106,-13.01182 -20.1083,-21.18097 -4.2045,-6.36327 -7.6609,-13.32269 -9.2377,-20.78474"
     id="path4022"
     inkscape:path-effect="#path-effect4024"
     inkscape:original-d="m 1517.2857,208.30735 c -1.1026,-8.91773 -1.6544,-20.1249 4.6188,-26.55827 13.7019,-14.05166 38.24,-9.2844 57.7354,-11.54708 34.0472,-3.9516 68.4961,-3.90859 102.769,-3.46412 25.8322,0.33501 53.9276,-6.24792 77.3654,4.61883 10.6204,4.92405 21.0789,14.13458 24.2488,25.40357 3.2362,11.50458 2.4981,25.06649 -7.6046,35.03746 -53.5288,19.22146 -109.1197,30.59876 -152.2563,33.79146 -43.1366,3.19271 -73.8189,-1.7992 -77.5305,-15.31614 -3.2173,-10.62591 -14.7015,-13.08519 -20.1083,-21.18097 -4.2108,-6.3049 -8.3074,-13.26033 -9.2377,-20.78474 z"
     inkscape:connector-curvature="0"
     transform="scale(0.8,0.8)"
     sodipodi:nodetypes="aaaaaacscaa" />
  <path
     style="fill:none;stroke:#008000;stroke-width:3;stroke-linecap:butt;stroke-linejoin:miter;stroke-miterlimit:4;stroke-opacity:1;stroke-dasharray:none"
     d="m 1792.1061,209.46206 c 0.044,4.85341 1.4045,9.67896 3.835,13.88018 2.4305,4.20122 5.9198,7.77382 10.0215,10.36868 4.5735,2.8933 9.8274,4.55327 15.1296,5.63737 5.3021,1.08411 10.6989,1.62039 16.0475,2.44558 11.4694,1.76954 22.732,4.87645 33.4865,9.23766 12.0619,1.60535 24.2091,2.56942 36.3732,2.88677 7.3137,0.19081 14.6359,0.14814 21.9395,0.57736 5.0017,0.29394 10.0064,0.80924 15.0113,0.57734 7.5912,-0.35174 14.9907,-2.4112 22.5167,-3.46412 7.8534,-1.09873 15.8344,-1.09943 23.6715,-2.30941 15.5629,-2.40279 30.0855,-9.49103 45.611,-12.12443 12.5482,-2.1284 25.3785,-1.28873 38.1053,-1.15471 12.7093,0.13383 25.4153,-0.44307 38.1054,-1.1547 3.8359,-0.2151 7.6883,-0.44479 11.4465,-1.24211 3.7582,-0.79732 7.4468,-2.19018 10.4929,-4.53143 3.8649,-2.97061 6.5232,-7.38862 7.6492,-12.1314 1.1261,-4.74277 0.7641,-9.78397 -0.7209,-14.42688 -1.6159,-5.05202 -4.5306,-9.6416 -8.1666,-13.50339 -3.636,-3.86179 -7.982,-7.01395 -12.6182,-9.59076 -14.6979,-8.16916 -31.8327,-10.45694 -48.4977,-12.70178 -26.0655,-3.51111 -52.2216,-7.28221 -78.5201,-6.92824 -16.9537,0.22819 -33.8524,2.17155 -50.8071,2.30941 -22.3424,0.18166 -44.6348,-2.77281 -66.9731,-2.30941 -22.7783,0.47252 -46.3671,4.8991 -64.6636,18.47532 -5.037,3.73754 -9.6329,8.16302 -13.0174,13.44374 -3.3845,5.28072 -5.5151,11.46139 -5.4579,17.73336"
     id="path4026"
     inkscape:path-effect="#path-effect4028"
     inkscape:original-d="m 1792.1061,209.46206 c -0.074,9.30926 6.4603,18.59514 13.8565,24.24886 8.5294,6.51998 20.8059,5.30821 31.1771,8.08295 11.1857,2.99266 26.4715,0.0254 33.4865,9.23766 34.0167,2.24326 -29.7104,7.06087 36.3732,2.88677 6.1783,-0.29836 14.6277,0.34054 21.9395,0.57736 5.0048,0.16209 10.012,0.86313 15.0113,0.57734 7.5815,-0.4334 17.1125,-3.05754 22.5167,-3.46412 8.8362,-0.66479 -2.6211,-46.0873 23.6715,-2.30941 7.7186,12.85172 30.0446,-9.85049 45.611,-12.12443 12.5741,-1.83683 25.4035,-0.76981 38.1053,-1.15471 12.7018,-0.3849 25.5289,0.66648 38.1054,-1.1547 7.4841,-1.08376 16.5979,-0.42059 21.9394,-5.77354 6.4624,-6.47626 9.0925,-17.66891 6.9283,-26.55828 -2.4499,-10.06275 -11.9396,-17.70678 -20.7848,-23.09415 -14.2722,-8.69286 -32.0334,-9.84031 -48.4977,-12.70178 -25.887,-4.49911 -52.251,-6.36883 -78.5201,-6.92824 -16.9493,-0.36094 -33.8542,2.21656 -50.8071,2.30941 -22.3373,0.12235 -44.8013,-5.02597 -66.9731,-2.30941 -22.2507,2.72622 -46.9141,4.78298 -64.6636,18.47532 -9.5648,7.3785 -18.3798,19.09743 -18.4753,31.1771 z"
     inkscape:connector-curvature="0"
     transform="scale(0.8,0.8)"
     sodipodi:nodetypes="aaaccaassaaaaaaaaaaaa" />
  <path
     style="fill:none;stroke:#00ffff;stroke-width:3;stroke-linecap:butt;stroke-linejoin:miter;stroke-miterlimit:4;stroke-opacity:1;stroke-dasharray:none"
     d="m 519.29497,145.5545 c -10.89949,0.20597 -21.76006,1.45637 -32.66006,1.633 -26.29143,0.42605 -52.23678,-5.3837 -78.38415,-8.16502 -33.06007,-3.51663 -66.43849,-2.18508 -99.61318,0 -25.14498,1.65619 -50.29863,3.80553 -75.11814,8.16502 -29.38076,5.16067 -58.37874,13.42538 -88.18217,14.69703 -26.12879,1.11486 -52.425537,-3.17919 -78.384145,0 -18.914562,2.31649 -37.284826,8.6129 -53.889101,17.96303 -10.6396864,5.99137 -20.8378822,13.50969 -27.196044,23.93434 -3.179081,5.21232 -5.328305,11.10207 -5.847441,17.18528 -0.519135,6.0832 0.638682,12.35716 3.64943,17.66849 2.866071,5.0561 7.3303998,9.11685 12.4245486,11.91475 5.0941489,2.79789 10.8019359,4.37276 16.5725954,5.06416 11.541319,1.38282 23.175441,-0.69137 34.689975,-2.28188 38.836701,-5.36455 78.189242,-5.25681 117.342172,-7.28561 5.52174,-0.28612 11.04127,-0.61489 16.56408,-0.87941 39.69812,-1.90138 79.46849,-0.48016 119.20922,0 44.63946,0.53935 89.28954,-0.10946 133.90625,-1.633 47.34902,-1.61684 94.70424,-4.21919 142.07127,-3.26601 34.8702,0.70171 69.67028,3.3292 104.51219,4.89901 34.26736,1.54392 68.57978,2.06463 102.87919,1.63301 33.207,-0.41787 66.4037,-1.72809 99.61319,-1.63301 34.31487,0.0982 68.72577,1.69323 102.87919,-1.633 9.3031,-0.90604 18.70546,-2.21227 27.29956,-5.8877 8.5942,-3.67543 16.3996,-10.00571 20.0575,-18.60735 2.1129,-4.96861 2.7602,-10.51449 2.1075,-15.87411 -0.6528,-5.35962 -2.5815,-10.53165 -5.3735,-15.15294 -5.8696,-9.71525 -15.4115,-16.83525 -25.82,-21.36318 -10.40848,-4.52792 -21.70242,-6.64401 -32.96808,-8.03088 -23.26749,-2.86437 -46.78155,-2.75595 -70.21914,-3.26601 -32.66203,-0.7108 -65.32565,-2.63054 -97.98018,-1.633 -36.06759,1.1018 -72.82393,5.69412 -107.7782,-3.266 -14.14366,-3.62556 -27.66175,-9.40753 -41.79746,-13.06397 -14.1357,-3.65645 -29.43104,-5.08294 -43.1187,-6e-5 -3.88691,1.44339 -7.57101,3.38517 -11.43102,4.89901 -9.80387,3.84494 -20.49637,4.83595 -31.02706,4.89901 -16.34234,0.0979 -32.65037,-1.94177 -48.99009,-1.633"
     id="path4030"
     inkscape:path-effect="#path-effect4032"
     inkscape:original-d="m 519.29497,145.5545 c -10.89991,0.0907 -21.76372,1.92637 -32.66006,1.633 -26.2599,-0.70701 -52.15009,-6.80235 -78.38415,-8.16502 -33.15969,-1.72241 -66.45743,-1.79665 -99.61318,0 -25.14997,1.36283 -50.16628,4.73245 -75.11814,8.16502 -29.52148,4.0612 -58.4842,12.23915 -88.18217,14.69703 -26.03902,2.15506 -52.593476,-4.18525 -78.384145,0 -18.690205,3.033 -39.584807,5.55698 -53.889101,17.96303 -16.5512676,14.35484 -38.729445,38.96751 -29.394055,58.78811 9.2833817,19.71018 41.975051,12.89189 63.687119,14.69703 39.058803,3.24735 78.178702,-4.42391 117.342172,-7.28561 5.52051,-0.40338 11.04189,-0.71121 16.56408,-0.87941 39.71799,-1.20979 79.47355,0.24228 119.20922,0 44.63791,-0.27217 89.27442,-0.84787 133.90625,-1.633 47.36227,-0.83316 94.70504,-3.83103 142.07127,-3.26601 34.87317,0.41599 69.65368,3.80562 104.51219,4.89901 34.28052,1.07526 68.58181,1.64193 102.87919,1.63301 33.20886,-0.009 66.40865,-1.09731 99.61319,-1.63301 34.29292,-0.55326 69.61944,6.73956 102.87919,-1.633 17.23466,-4.33852 38.92576,-8.84995 47.35706,-24.49505 4.9336,-9.15475 2.6575,-22.47944 -3.266,-31.02705 -12.4793,-18.00759 -37.58787,-23.86627 -58.78808,-29.39406 -22.67361,-5.91196 -46.79913,-2.52636 -70.21914,-3.26601 -32.64832,-1.0311 -65.32459,-0.86613 -97.98018,-1.633 -35.93265,-0.84383 -71.9859,0.0171 -107.7782,-3.266 -28.51868,-2.61595 -56.50522,-16.66637 -84.91616,-13.06403 -4.1126,0.52145 -7.4478,3.7504 -11.43102,4.89901 -10.06055,2.90109 -20.57647,4.25401 -31.02706,4.89901 -16.30807,1.00651 -32.65155,-1.76892 -48.99009,-1.633 z"
     inkscape:connector-curvature="0"
     transform="scale(0.8,0.8)"
     sodipodi:nodetypes="aaaaaaaaasssaaaaaaaaaaaaaaaaa" />
  <path
     style="fill:none;stroke:#008000;stroke-width:2;stroke-linecap:butt;stroke-linejoin:miter;stroke-miterlimit:4;stroke-opacity:1;stroke-dasharray:none"
     d="m -11.547076,200.22439 c 0.347644,9.9305 3.6296888,19.74036 9.3279461,27.88073 5.6982573,8.14037 13.7921849,14.5819 23.0038659,18.30758 11.874322,4.80259 25.062553,5.0403 37.859001,4.4788 12.796448,-0.56149 25.698235,-1.84851 38.351696,0.14003 16.289607,2.55997 31.470177,10.45173 47.869367,12.17542 9.41755,0.98986 18.92134,-0.0932 28.3894,0.068 14.30994,0.24367 28.44536,3.32684 42.74948,3.80204 7.15206,0.2376 14.3694,-0.18644 21.31201,-1.92097 6.9426,-1.73454 13.61944,-4.82152 19.02938,-9.50564 8.99584,-7.7889 13.95073,-19.75824 14.05022,-31.65707 0.0995,-11.89883 -4.42752,-23.61997 -11.74081,-33.00655 -7.42888,-9.53495 -17.48282,-16.65617 -27.71297,-23.09415 -34.89825,-21.96196 -74.64368,-37.83422 -115.86421,-38.87506 -20.610263,-0.52043 -41.397303,2.71831 -60.555291,10.33574 -19.157988,7.61743 -36.647493,19.67704 -49.9031789,35.46756 -6.472023,7.70964 -11.9229652,16.27541 -16.1659061,25.40356 l 0,-2e-5"
     id="path4014"
     inkscape:path-effect="#path-effect4016"
     inkscape:original-d="m -11.547076,200.22439 c 0.413388,18.78879 15.9327936,37.00889 32.331812,46.18831 22.207759,12.43089 51.064838,0.69489 76.210697,4.61883 16.267627,2.53852 31.534837,10.11078 47.869367,12.17542 9.38847,1.18667 18.93563,0.48948 28.3894,0.068 27.78572,-1.23882 63.98024,12.58346 83.09087,-7.62457 14.81964,-15.67064 11.10764,-44.97144 2.30941,-64.66362 -4.90518,-10.97877 -16.34514,-19.1741 -27.71297,-23.09415 -71.35298,-24.60515 -160.723239,-30.3997 -226.3226799,6.92824 -8.7235862,4.96397 -16.3866861,15.36896 -16.1659061,25.40356 z"
     inkscape:connector-curvature="0"
     transform="scale(0.8,0.8)"
     sodipodi:nodetypes="aaaaaaaaaa" />
  <path
     style="fill:none;stroke:#00ffff;stroke-width:3;stroke-linecap:butt;stroke-linejoin:miter;stroke-miterlimit:4;stroke-opacity:1;stroke-dasharray:none"
     d="m 1512.1608,152.08651 c -21.0415,0.87017 -41.2927,7.90061 -62.0541,11.43102 -28.4997,4.84627 -57.6412,3.05553 -86.5492,3.26601 -31.5912,0.23001 -63.1245,2.86813 -94.7141,3.266 -27.7613,0.34965 -55.5389,-1.03127 -83.2832,0 -28.8688,1.07307 -57.8292,4.75249 -86.5491,1.63301 -9.5388,-1.03608 -19.0873,-2.82235 -28.6574,-2.13357 -4.7851,0.34438 -9.5563,1.32031 -13.9478,3.25177 -4.3914,1.93147 -8.3974,4.84791 -11.2839,8.67981 -2.9071,3.85927 -4.6064,8.54703 -5.2956,13.32932 -0.6892,4.7823 -0.4007,9.66626 0.3965,14.43174 1.9679,11.76348 7.2849,23.253 16.3301,31.02705 7.5182,6.46159 17.232,10.04142 27.0747,11.22258 9.8428,1.18116 19.843,0.078 29.5352,-2.0042 19.3845,-4.16437 37.9634,-12.2317 57.7003,-14.11739 26.2998,-2.51273 52.2229,6.11234 78.3841,9.79802 32.4255,4.56822 65.3874,1.52839 97.9802,-1.633 35.3021,-3.42418 70.6804,-6.98779 106.1452,-6.53201 44.6999,0.57447 89.2139,7.5327 133.9063,6.53201 33.2741,-0.74503 66.3368,-5.8985 99.6132,-6.53201 39.8024,-0.75775 79.4309,4.95465 119.2092,6.53201 40.2604,1.59648 80.5544,-1.04633 120.8422,-1.633 34.8413,-0.50736 69.6849,0.52344 104.5122,1.633 28.8708,0.91979 57.8792,1.8881 86.5492,-1.633 4.0063,-0.49203 8.0421,-1.08156 11.8095,-2.53038 3.7674,-1.44882 7.289,-3.83932 9.4195,-7.26764 1.9126,-3.0777 2.5866,-6.78725 2.6115,-10.41073 0.025,-3.62349 -0.5582,-7.21921 -0.9785,-10.81831 -0.7508,-6.4288 -0.9856,-12.91621 -1.9518,-19.31619 -0.9662,-6.39997 -2.7119,-12.79916 -6.2132,-18.24288 -5.0193,-7.80381 -13.2841,-13.04402 -21.9747,-16.29455 -8.6906,-3.25052 -17.9209,-4.72811 -27.0154,-6.56749 -20.7269,-4.19205 -41.0823,-10.35127 -62.0541,-13.06403 -41.105,-5.31705 -82.6636,2.79133 -124.1083,3.26601 -38.1365,0.43679 -76.2428,-5.6005 -114.3102,-3.26601 -21.807,1.33732 -43.4783,5.41796 -65.3201,4.89901 -14.5053,-0.34464 -28.8781,-2.71565 -43.3289,-4.01849 -14.4508,-1.30284 -29.2429,-1.50741 -43.2203,2.38549 -12.285,3.42154 -23.5704,9.90685 -35.926,13.06402 -13.5123,3.45273 -27.7202,2.78046 -41.5941,1.35985 -13.8739,-1.42061 -27.7546,-3.56911 -41.6891,-2.99285"
     id="path4034"
     inkscape:path-effect="#path-effect4036"
     inkscape:original-d="m 1512.1608,152.08651 c -20.9633,1.70769 -41.1484,9.12327 -62.0541,11.43102 -28.696,3.1677 -57.6977,2.22421 -86.5492,3.26601 -31.5696,1.13995 -63.1287,2.72159 -94.7141,3.266 -27.7569,0.47843 -55.5234,-0.26186 -83.2832,0 -28.8536,0.27218 -57.8366,-1.22928 -86.5491,1.63301 -18.1675,1.81108 -41.0125,-3.14539 -53.8891,9.79801 -6.6272,6.66163 -6.3489,18.47689 -4.8991,27.76106 1.8032,11.54743 6.1977,25.20216 16.3301,31.02705 33.0641,19.00785 76.2035,-6.45318 114.3102,-4.89901 26.3095,1.07302 52.0909,8.38089 78.3841,9.79802 32.6173,1.75798 65.3405,-0.35735 97.9802,-1.633 35.4216,-1.38438 70.6973,-6.30657 106.1452,-6.53201 44.6876,-0.2842 89.2194,6.90601 133.9063,6.53201 33.2745,-0.27848 66.338,-6.35332 99.6132,-6.53201 39.7954,-0.21371 79.4216,5.71173 119.2092,6.53201 40.2759,0.83035 80.5578,-1.67552 120.8422,-1.633 34.8416,0.0368 69.6706,1.68948 104.5122,1.633 28.8548,-0.0468 58.4258,4.82262 86.5492,-1.633 7.5961,-1.74366 16.7797,-3.39917 21.229,-9.79802 4.0517,-5.82707 2.1198,-14.1485 1.633,-21.22904 -0.8788,-12.78193 -0.1676,-27.54949 -8.165,-37.55907 -11.2486,-14.07883 -31.896,-17.15808 -48.9901,-22.86204 -20.0513,-6.6907 -41.0027,-11.15168 -62.0541,-13.06403 -41.2141,-3.74397 -82.7246,3.31265 -124.1083,3.26601 -38.1189,-0.043 -76.2015,-4.14831 -114.3102,-3.26601 -21.8287,0.50538 -43.4941,4.28779 -65.3201,4.89901 -28.8436,0.80775 -58.086,-6.37114 -86.5492,-1.633 -12.5696,2.0924 -23.3557,10.97627 -35.926,13.06402 -27.3912,4.54928 -55.6085,-3.88741 -83.2832,-1.633 z"
     inkscape:connector-curvature="0"
     transform="scale(0.8,0.8)"
     sodipodi:nodetypes="aaaaaaaaaaaaaaaaaaaaaaaaaaaaaa" />
  <g
     id="g5846">
    <path
       style="font-size:medium;font-style:normal;font-variant:normal;font-weight:normal;font-stretch:normal;text-indent:0;text-align:start;text-decoration:none;line-height:normal;letter-spacing:normal;word-spacing:normal;text-transform:none;direction:ltr;block-progression:tb;writing-mode:lr-tb;text-anchor:start;baseline-shift:baseline;color:#000000;fill:#008000;fill-opacity:1;stroke:none;stroke-width:1.25;marker:none;visibility:visible;display:inline;overflow:visible;enable-background:accumulate;font-family:Sans;-inkscape-font-specification:Sans"
       d="m 1570.225,187.35 -26.45,34.925 0.8,0.625 26.45,-34.95 -0.8,-0.6 z"
       id="path5654"
       inkscape:connector-curvature="0" />
    <path
       d="m 1565.5353,190.35259 5.8787,-3.7718 -2.0347,6.68177 c -0.5026,-1.69404 -2.0588,-2.86452 -3.844,-2.90997 z"
       style="fill-rule:evenodd;stroke-width:0.62500000000000000;stroke-linejoin:round;stroke:#008000;stroke-opacity:1;fill:#008000;fill-opacity:1"
       id="path5852"
       inkscape:connector-curvature="0" />
  </g>
  <g
     id="g6050">
    <path
       style="font-size:medium;font-style:normal;font-variant:normal;font-weight:normal;font-stretch:normal;text-indent:0;text-align:start;text-decoration:none;line-height:normal;letter-spacing:normal;word-spacing:normal;text-transform:none;direction:ltr;block-progression:tb;writing-mode:lr-tb;text-anchor:start;baseline-shift:baseline;color:#000000;fill:#008000;fill-opacity:1;fill-rule:nonzero;stroke:none;stroke-width:1.25;marker:none;visibility:visible;display:inline;overflow:visible;enable-background:accumulate;font-family:Sans;-inkscape-font-specification:Sans"
       d="m 140.9,188.8 -0.975,0.025 0.9,34.175 1,-0.025 L 140.9,188.8 z"
       id="path5860"
       inkscape:connector-curvature="0" />
    <path
       d="m 138.13441,194.1109 2.23264,-6.61827 2.58686,6.48801 c -1.45101,-1.00847 -3.39737,-0.94983 -4.8195,0.13026 z"
       style="fill-rule:evenodd;stroke-width:0.62500000000000000;stroke-linejoin:round;fill:#008000;fill-opacity:1;stroke:#008000;stroke-opacity:1"
       id="path6056"
       inkscape:connector-curvature="0" />
  </g>
  <g
     id="g6438">
    <path
       style="font-size:medium;font-style:normal;font-variant:normal;font-weight:normal;font-stretch:normal;text-indent:0;text-align:start;text-decoration:none;line-height:normal;letter-spacing:normal;word-spacing:normal;text-transform:none;direction:ltr;block-progression:tb;writing-mode:lr-tb;text-anchor:start;baseline-shift:baseline;color:#000000;fill:#008000;fill-opacity:1;fill-rule:nonzero;stroke:none;stroke-width:1.25;marker:none;visibility:visible;display:inline;overflow:visible;enable-background:accumulate;font-family:Sans;-inkscape-font-specification:Sans"
       d="m 1295.55,199.775 -5.525,23.1 0.95,0.225 5.55,-23.075 -0.975,-0.25 z"
       id="path6248"
       inkscape:connector-curvature="0" />
    <path
       d="m 1292.4695,204.42334 3.874,-5.81193 0.8142,6.93709 c -1.1396,-1.35053 -3.0344,-1.7991 -4.6882,-1.12516 z"
       style="fill-rule:evenodd;stroke-width:0.62500000000000000;stroke-linejoin:round;stroke:#008000;stroke-opacity:1;fill:#008000;fill-opacity:1"
       id="path6444"
       inkscape:connector-curvature="0" />
    <g
       id="g6636">
      <path
         style="font-size:medium;font-style:normal;font-variant:normal;font-weight:normal;font-stretch:normal;text-indent:0;text-align:start;text-decoration:none;line-height:normal;letter-spacing:normal;word-spacing:normal;text-transform:none;direction:ltr;block-progression:tb;writing-mode:lr-tb;text-anchor:start;baseline-shift:baseline;color:#000000;fill:#008000;fill-opacity:1;fill-rule:nonzero;stroke:none;stroke-width:1.25;marker:none;visibility:visible;display:inline;overflow:visible;enable-background:accumulate;font-family:Sans;-inkscape-font-specification:Sans"
         d="m 757.9,202.65 -0.9,21.25 1,0.05 0.9,-21.25 -1,-0.05 z"
         id="path6446"
         inkscape:connector-curvature="0" />
      <path
         d="m 755.76672,207.79385 2.69311,-6.44463 2.12361,6.65405 c -1.3764,-1.10813 -3.32206,-1.18669 -4.81672,-0.20942 z"
         style="fill-rule:evenodd;stroke-width:0.62500000000000000;stroke-linejoin:round;fill:#008000;fill-opacity:1;stroke:#008000;stroke-opacity:1"
         id="path6642"
         inkscape:connector-curvature="0" />
    </g>
  </g>
  <g
     id="g6834">
    <path
       style="font-size:medium;font-style:normal;font-variant:normal;font-weight:normal;font-stretch:normal;text-indent:0;text-align:start;text-decoration:none;line-height:normal;letter-spacing:normal;word-spacing:normal;text-transform:none;direction:ltr;block-progression:tb;writing-mode:lr-tb;text-anchor:start;baseline-shift:baseline;color:#000000;fill:#00ffff;fill-opacity:1;fill-rule:nonzero;stroke:none;stroke-width:1.25;marker:none;visibility:visible;display:inline;overflow:visible;enable-background:accumulate;font-family:Sans;-inkscape-font-specification:Sans"
       d="m 1259.475,106.3 -0.775,0.6 17.55,22.175 0.775,-0.625 -17.55,-22.15 z"
       id="path6644"
       inkscape:connector-curvature="0" />
    <path
       d="m 1275.2952,123.16776 2.179,6.63612 -5.9591,-3.64355 c 1.766,-0.0623 3.289,-1.27566 3.7801,-2.99257 z"
       style="fill-rule:evenodd;stroke-width:0.62500000000000000;stroke-linejoin:round;stroke:#00ffff;stroke-opacity:1;fill:#00ffff;fill-opacity:1"
       id="path6840"
       inkscape:connector-curvature="0" />
  </g>
  <g
     id="g7032"
     style="stroke:#00ffff;stroke-opacity:1">
    <path
       style="font-size:medium;font-style:normal;font-variant:normal;font-weight:normal;font-stretch:normal;text-indent:0;text-align:start;text-decoration:none;line-height:normal;letter-spacing:normal;word-spacing:normal;text-transform:none;direction:ltr;block-progression:tb;writing-mode:lr-tb;text-anchor:start;baseline-shift:baseline;color:#000000;fill:#008080;fill-opacity:1;fill-rule:nonzero;stroke:#00ffff;stroke-width:1.25000000000000000;marker:none;visibility:visible;display:inline;overflow:visible;enable-background:accumulate;font-family:Sans;-inkscape-font-specification:Sans;stroke-opacity:1"
       d="m 429.975,108.425 -0.925,13.85 1,0.075 0.925,-13.875 -1,-0.05 z"
       id="path6842"
       inkscape:connector-curvature="0" />
    <path
       d="m 432.31405,117.24654 -2.84136,6.38065 -1.96922,-6.70136 c 1.35041,1.13965 3.29374,1.26316 4.81058,0.32071 z"
       style="fill-rule:evenodd;stroke-width:0.62500000000000000;stroke-linejoin:round;stroke:#00ffff;stroke-opacity:1;fill:#00ffff;fill-opacity:1"
       id="path7038"
       inkscape:connector-curvature="0" />
  </g>
</svg>
