<?xml version="1.0" encoding="UTF-8" standalone="no"?>
<!DOCTYPE svg PUBLIC "-//W3C//DTD SVG 1.1//EN"
 "http://www.w3.org/Graphics/SVG/1.1/DTD/svg11.dtd">
<!-- Generated by graphviz version 2.34.0 (20130907.0228)
 -->
<!-- Title: G Pages: 1 -->
<svg width="268pt" height="260pt"
 viewBox="0.00 0.00 268.00 260.00" xmlns="http://www.w3.org/2000/svg" xmlns:xlink="http://www.w3.org/1999/xlink">
<g id="graph0" class="graph" transform="scale(1 1) rotate(0) translate(4 256)">
<title>G</title>
<polygon fill="white" stroke="white" points="-4,4 -4,-256 264,-256 264,4 -4,4"/>
<!-- document -->
<g id="node1" class="node"><title>document</title>
<ellipse fill="beige" stroke="black" cx="87" cy="-234" rx="46.1964" ry="18"/>
<text text-anchor="middle" x="87" y="-230.3" font-family="Times,serif" font-size="14.00">document</text>
</g>
<!-- Romeo -->
<g id="node4" class="node"><title>Romeo</title>
<ellipse fill="pink" stroke="black" cx="37" cy="-90" rx="37.0701" ry="18"/>
<text text-anchor="middle" x="37" y="-86.3" font-family="Times,serif" font-size="14.00">Romeo</text>
</g>
<!-- document&#45;&gt;Romeo -->
<!-- document&#45;&gt;Romeo -->
<g id="edge19" class="edge"><title>document&#45;&gt;Romeo</title>
<path fill="none" stroke="black" d="M80.9567,-215.879C74.651,-205.968 66.0928,-192.927 61,-180 53.1258,-160.014 49.3835,-135.91 46.2236,-117.83"/>
<polygon fill="black" stroke="black" points="49.6586,-117.158 44.4035,-107.958 42.7747,-118.427 49.6586,-117.158"/>
</g>
<!-- and -->
<g id="node5" class="node"><title>and</title>
<ellipse fill="pink" stroke="black" cx="137" cy="-90" rx="27" ry="18"/>
<text text-anchor="middle" x="137" y="-86.3" font-family="Times,serif" font-size="14.00">and</text>
</g>
<!-- document&#45;&gt;and -->
<!-- Juliet -->
<g id="node6" class="node"><title>Juliet</title>
<ellipse fill="pink" stroke="black" cx="230" cy="-90" rx="30.3206" ry="18"/>
<text text-anchor="middle" x="230" y="-86.3" font-family="Times,serif" font-size="14.00">Juliet</text>
</g>
<!-- document&#45;&gt;Juliet -->
<!-- title -->
<g id="node2" class="node"><title>title</title>
<ellipse fill="cyan" stroke="black" cx="206" cy="-162" rx="27" ry="18"/>
<text text-anchor="middle" x="206" y="-158.3" font-family="Times,serif" font-size="14.00">title</text>
</g>
<!-- title&#45;&gt;Romeo -->
<!-- title&#45;&gt;and -->
<!-- title&#45;&gt;Juliet -->
<!-- fake2 -->
<!-- fake2&#45;&gt;Romeo -->
<!-- fake2&#45;&gt;and -->
<!-- fake2&#45;&gt;Juliet -->
<!-- Romeo&#45;&gt;and -->
<g id="edge20" class="edge"><title>Romeo&#45;&gt;and</title>
<path fill="none" stroke="black" d="M74.1094,-90C82.7026,-90 91.2958,-90 99.889,-90"/>
<polygon fill="black" stroke="black" points="99.9767,-93.5001 109.977,-90 99.9766,-86.5001 99.9767,-93.5001"/>
</g>
<!-- name1 -->
<g id="node7" class="node"><title>name1</title>
<ellipse fill="green" stroke="black" cx="57" cy="-18" rx="30.3206" ry="18"/>
<text text-anchor="middle" x="57" y="-14.3" font-family="Times,serif" font-size="14.00">name</text>
</g>
<!-- Romeo&#45;&gt;name1 -->
<!-- fake3 -->
<!-- Romeo&#45;&gt;fake3 -->
<!-- name2 -->
<g id="node9" class="node"><title>name2</title>
<ellipse fill="green" stroke="black" cx="217" cy="-18" rx="30.3206" ry="18"/>
<text text-anchor="middle" x="217" y="-14.3" font-family="Times,serif" font-size="14.00">name</text>
</g>
<!-- Romeo&#45;&gt;name2 -->
<!-- and&#45;&gt;Juliet -->
<g id="edge21" class="edge"><title>and&#45;&gt;Juliet</title>
<path fill="none" stroke="black" d="M164.246,-90C172.646,-90 181.046,-90 189.446,-90"/>
<polygon fill="black" stroke="black" points="189.692,-93.5001 199.692,-90 189.692,-86.5001 189.692,-93.5001"/>
</g>
<!-- and&#45;&gt;name1 -->
<!-- and&#45;&gt;fake3 -->
<!-- and&#45;&gt;name2 -->
<!-- Juliet&#45;&gt;name1 -->
<!-- Juliet&#45;&gt;fake3 -->
<!-- Juliet&#45;&gt;name2 -->
</g>
</svg>
