<?xml version="1.0" encoding="UTF-8" standalone="no"?>
<!-- Generated by graphviz version 2.34.0 (20130907.0228)
 -->

<!-- Title: G Pages: 1 -->

<svg
   xmlns:dc="http://purl.org/dc/elements/1.1/"
   xmlns:cc="http://creativecommons.org/ns#"
   xmlns:rdf="http://www.w3.org/1999/02/22-rdf-syntax-ns#"
   xmlns:svg="http://www.w3.org/2000/svg"
   xmlns="http://www.w3.org/2000/svg"
   xmlns:sodipodi="http://sodipodi.sourceforge.net/DTD/sodipodi-0.dtd"
   xmlns:inkscape="http://www.inkscape.org/namespaces/inkscape"
   width="852pt"
   height="332pt"
   viewBox="0.00 0.00 852.00 332.00"
   id="svg2"
   version="1.1"
   inkscape:version="0.48.5 r10040"
   sodipodi:docname="tokenized-stressed.svg"
   inkscape:export-filename="/Users/djb/balisage_2017/Balisage-1-3-xsl/tokenized-stressed.png"
   inkscape:export-xdpi="90"
   inkscape:export-ydpi="90">
  <metadata
     id="metadata160">
    <rdf:RDF>
      <cc:Work
         rdf:about="">
        <dc:format>image/svg+xml</dc:format>
        <dc:type
           rdf:resource="http://purl.org/dc/dcmitype/StillImage" />
        <dc:title></dc:title>
      </cc:Work>
    </rdf:RDF>
  </metadata>
  <defs
     id="defs158">
    <inkscape:path-effect
       effect="spiro"
       id="path-effect5167"
       is_visible="true" />
    <inkscape:path-effect
       effect="spiro"
       id="path-effect5163"
       is_visible="true" />
    <inkscape:path-effect
       effect="spiro"
       id="path-effect4969"
       is_visible="true" />
    <inkscape:path-effect
       effect="spiro"
       id="path-effect4775"
       is_visible="true" />
    <inkscape:path-effect
       effect="spiro"
       id="path-effect4581"
       is_visible="true" />
    <inkscape:path-effect
       effect="spiro"
       id="path-effect4577"
       is_visible="true" />
    <inkscape:path-effect
       effect="spiro"
       id="path-effect4573"
       is_visible="true" />
    <inkscape:path-effect
       effect="spiro"
       id="path-effect4565"
       is_visible="true" />
    <inkscape:path-effect
       effect="spiro"
       id="path-effect4371"
       is_visible="true" />
    <marker
       inkscape:stockid="Arrow2Mend"
       orient="auto"
       refY="0.0"
       refX="0.0"
       id="Arrow2Mend"
       style="overflow:visible;">
      <path
         id="path3948"
         style="fill-rule:evenodd;stroke-width:0.62500000;stroke-linejoin:round;"
         d="M 8.7185878,4.0337352 L -2.2072895,0.016013256 L 8.7185884,-4.0017078 C 6.9730900,-1.6296469 6.9831476,1.6157441 8.7185878,4.0337352 z "
         transform="scale(0.6) rotate(180) translate(0,0)" />
    </marker>
    <inkscape:path-effect
       effect="spiro"
       id="path-effect3915"
       is_visible="true" />
    <inkscape:path-effect
       effect="spiro"
       id="path-effect3911"
       is_visible="true" />
    <inkscape:path-effect
       effect="spiro"
       id="path-effect3139"
       is_visible="true" />
  </defs>
  <sodipodi:namedview
     pagecolor="#ffffff"
     bordercolor="#666666"
     borderopacity="1"
     objecttolerance="10"
     gridtolerance="10"
     guidetolerance="10"
     inkscape:pageopacity="0"
     inkscape:pageshadow="2"
     inkscape:window-width="1280"
     inkscape:window-height="756"
     id="namedview156"
     showgrid="false"
     inkscape:zoom="0.87110244"
     inkscape:cx="581.68218"
     inkscape:cy="153.70275"
     inkscape:window-x="0"
     inkscape:window-y="0"
     inkscape:window-maximized="0"
     inkscape:current-layer="g5351">
    <sodipodi:guide
       position="0,0"
       orientation="0,1065"
       id="guide5359" />
    <sodipodi:guide
       position="1073.3525,455.74433"
       orientation="-415,0"
       id="guide5361" />
    <sodipodi:guide
       position="1065,415"
       orientation="0,-1065"
       id="guide5363" />
    <sodipodi:guide
       position="0,415"
       orientation="415,0"
       id="guide5365" />
  </sodipodi:namedview>
  <g
     id="graph0"
     class="graph"
     transform="scale(1 1) rotate(0) translate(4 328)">
    <title
       id="title5">G</title>
    <polygon
       fill="white"
       stroke="white"
       points="-4,4 -4,-328 848,-328 848,4 -4,4"
       id="polygon7" />
    <!-- top1 -->
    <!-- top2 -->
    <!-- top1&#45;&gt;top2 -->
    <!-- document -->
    <g
       id="node8"
       class="node">
      <title
         id="title10">document</title>
      <ellipse
         fill="beige"
         stroke="black"
         cx="53"
         cy="-234"
         rx="46.1964"
         ry="18"
         id="ellipse12"
         d="m 99.1964,-234 c 0,9.94113 -20.682833,18 -46.1964,18 -25.513567,0 -46.1963997,-8.05887 -46.1963997,-18 0,-9.94113 20.6828327,-18 46.1963997,-18 25.513567,0 46.1964,8.05887 46.1964,18 z" />
      <text
         text-anchor="middle"
         x="53"
         y="-230.3"
         font-family="Times,serif"
         font-size="14.00"
         id="text14">document</text>
    </g>
    <!-- top1&#45;&gt;document -->
    <!-- top3 -->
    <!-- top2&#45;&gt;top3 -->
    <!-- fake1 -->
    <!-- top2&#45;&gt;fake1 -->
    <!-- line -->
    <g
       id="node4"
       class="node">
      <title
         id="title17">line</title>
      <ellipse
         fill="#00ff00"
         stroke="black"
         cx="439"
         cy="-306"
         rx="27"
         ry="18"
         id="ellipse19"
         d="m 466,-306 c 0,9.94113 -12.08831,18 -27,18 -14.91169,0 -27,-8.05887 -27,-18 0,-9.94113 12.08831,-18 27,-18 14.91169,0 27,8.05887 27,18 z" />
      <text
         text-anchor="middle"
         x="439"
         y="-302.3"
         font-family="Times,serif"
         font-size="14.00"
         id="text21">line</text>
    </g>
    <!-- top3&#45;&gt;line -->
    <!-- fake2 -->
    <!-- top3&#45;&gt;fake2 -->
    <!-- top4 -->
    <!-- line&#45;&gt;top4 -->
    <!-- null -->
    <!-- line&#45;&gt;null -->
    <!-- top5 -->
    <!-- top4&#45;&gt;top5 -->
    <!-- fake3 -->
    <!-- top4&#45;&gt;fake3 -->
    <!-- top6 -->
    <!-- top5&#45;&gt;top6 -->
    <!-- fake4 -->
    <!-- top5&#45;&gt;fake4 -->
    <!-- fake5 -->
    <!-- top6&#45;&gt;fake5 -->
    <!-- document&#45;&gt;fake1 -->
    <!-- No -->
    <g
       id="node15"
       class="node">
      <title
         id="title24">No</title>
      <ellipse
         fill="pink"
         stroke="black"
         cx="53"
         cy="-162"
         rx="27"
         ry="18"
         id="ellipse26"
         d="m 80,-162 c 0,9.94113 -12.088312,18 -27,18 -14.911688,0 -27,-8.05887 -27,-18 0,-9.94113 12.088312,-18 27,-18 14.911688,0 27,8.05887 27,18 z" />
      <text
         text-anchor="middle"
         x="53"
         y="-158.3"
         font-family="Times,serif"
         font-size="14.00"
         id="text28">No</text>
    </g>
    <!-- document&#45;&gt;No -->
    <g
       id="edge19"
       class="edge">
      <title
         id="title31">document-&gt;No</title>
      <path
         fill="none"
         stroke="black"
         d="M53,-215.697C53,-207.983 53,-198.712 53,-190.112"
         id="path33" />
      <polygon
         fill="black"
         stroke="black"
         points="56.5001,-190.104 53,-180.104 49.5001,-190.104 56.5001,-190.104"
         id="polygon35" />
    </g>
    <!-- fake1&#45;&gt;fake2 -->
    <!-- l -->
    <g
       id="node16"
       class="node">
      <title
         id="title38">l</title>
      <ellipse
         fill="pink"
         stroke="black"
         cx="155"
         cy="-162"
         rx="27"
         ry="18"
         id="ellipse40"
         d="m 182,-162 c 0,9.94113 -12.08831,18 -27,18 -14.91169,0 -27,-8.05887 -27,-18 0,-9.94113 12.08831,-18 27,-18 14.91169,0 27,8.05887 27,18 z" />
      <text
         text-anchor="middle"
         x="155"
         y="-158.3"
         font-family="Times,serif"
         font-size="14.00"
         id="text42">l</text>
    </g>
    <!-- fake1&#45;&gt;l -->
    <!-- fake2&#45;&gt;null -->
    <!-- o -->
    <g
       id="node17"
       class="node">
      <title
         id="title45">o</title>
      <ellipse
         fill="pink"
         stroke="black"
         cx="291"
         cy="-162"
         rx="27"
         ry="18"
         id="ellipse47"
         d="m 318,-162 c 0,9.94113 -12.08831,18 -27,18 -14.91169,0 -27,-8.05887 -27,-18 0,-9.94113 12.08831,-18 27,-18 14.91169,0 27,8.05887 27,18 z" />
      <text
         text-anchor="middle"
         x="291"
         y="-158.3"
         font-family="Times,serif"
         font-size="14.00"
         id="text49">o</text>
    </g>
    <!-- fake2&#45;&gt;o -->
    <!-- null&#45;&gt;fake3 -->
    <!-- nger -->
    <g
       id="node18"
       class="node">
      <title
         id="title52">nger</title>
      <ellipse
         fill="pink"
         stroke="black"
         cx="439"
         cy="-162"
         rx="27"
         ry="18"
         id="ellipse54"
         d="m 466,-162 c 0,9.94113 -12.08831,18 -27,18 -14.91169,0 -27,-8.05887 -27,-18 0,-9.94113 12.08831,-18 27,-18 14.91169,0 27,8.05887 27,18 z" />
      <text
         text-anchor="middle"
         x="439"
         y="-158.3"
         font-family="Times,serif"
         font-size="14.00"
         id="text56">nger</text>
    </g>
    <!-- null&#45;&gt;nger -->
    <!-- fake3&#45;&gt;fake4 -->
    <!-- m -->
    <g
       id="node19"
       class="node">
      <title
         id="title59">m</title>
      <ellipse
         fill="pink"
         stroke="black"
         cx="529"
         cy="-162"
         rx="27"
         ry="18"
         id="ellipse61"
         d="m 556,-162 c 0,9.94113 -12.08831,18 -27,18 -14.91169,0 -27,-8.05887 -27,-18 0,-9.94113 12.08831,-18 27,-18 14.91169,0 27,8.05887 27,18 z" />
      <text
         text-anchor="middle"
         x="529"
         y="-158.3"
         font-family="Times,serif"
         font-size="14.00"
         id="text63">m</text>
    </g>
    <!-- fake3&#45;&gt;m -->
    <!-- ou -->
    <g
       id="node20"
       class="node">
      <title
         id="title66">ou</title>
      <ellipse
         fill="pink"
         stroke="black"
         cx="665"
         cy="-162"
         rx="27"
         ry="18"
         id="ellipse68"
         d="m 692,-162 c 0,9.94113 -12.08831,18 -27,18 -14.91169,0 -27,-8.05887 -27,-18 0,-9.94113 12.08831,-18 27,-18 14.91169,0 27,8.05887 27,18 z" />
      <text
         text-anchor="middle"
         x="665"
         y="-158.3"
         font-family="Times,serif"
         font-size="14.00"
         id="text70">ou</text>
    </g>
    <!-- fake4&#45;&gt;ou -->
    <!-- rn -->
    <g
       id="node21"
       class="node">
      <title
         id="title73">rn</title>
      <ellipse
         fill="pink"
         stroke="black"
         cx="813"
         cy="-162"
         rx="27"
         ry="18"
         id="ellipse75"
         d="m 840,-162 c 0,9.94113 -12.08831,18 -27,18 -14.91169,0 -27,-8.05887 -27,-18 0,-9.94113 12.08831,-18 27,-18 14.91169,0 27,8.05887 27,18 z" />
      <text
         text-anchor="middle"
         x="813"
         y="-158.3"
         font-family="Times,serif"
         font-size="14.00"
         id="text77">rn</text>
    </g>
    <!-- fake5&#45;&gt;rn -->
    <!-- No&#45;&gt;l -->
    <g
       id="edge26"
       class="edge">
      <title
         id="title80">No-&gt;l</title>
      <path
         fill="none"
         stroke="black"
         d="M80.0938,-162C92.6383,-162 105.183,-162 117.727,-162"
         id="path82" />
      <polygon
         fill="black"
         stroke="black"
         points="117.788,-165.5 127.788,-162 117.788,-158.5 117.788,-165.5"
         id="polygon84" />
    </g>
    <!-- wordplace1 -->
    <!-- No&#45;&gt;wordplace1 -->
    <!-- l&#45;&gt;o -->
    <g
       id="edge27"
       class="edge">
      <title
         id="title87">l-&gt;o</title>
      <path
         fill="none"
         stroke="black"
         d="M182.094,-162C205.917,-162 229.74,-162 253.563,-162"
         id="path89" />
      <polygon
         fill="black"
         stroke="black"
         points="253.773,-165.5 263.773,-162 253.773,-158.5 253.773,-165.5"
         id="polygon91" />
    </g>
    <!-- fake6 -->
    <!-- l&#45;&gt;fake6 -->
    <!-- o&#45;&gt;nger -->
    <g
       id="edge28"
       class="edge">
      <title
         id="title94">o-&gt;nger</title>
      <path
         fill="none"
         stroke="black"
         d="M318.172,-162C345.916,-162 373.66,-162 401.403,-162"
         id="path96" />
      <polygon
         fill="black"
         stroke="black"
         points="401.625,-165.5 411.625,-162 401.625,-158.5 401.625,-165.5"
         id="polygon98" />
    </g>
    <!-- stress2 -->
    <g
       id="node24"
       class="node">
      <title
         id="title101">stress2</title>
      <ellipse
         fill="cyan"
         stroke="black"
         cx="235"
         cy="-90"
         rx="31.2965"
         ry="18"
         id="ellipse103"
         d="m 266.2965,-90 c 0,9.941125 -14.01192,18 -31.2965,18 -17.28458,0 -31.2965,-8.058875 -31.2965,-18 0,-9.941125 14.01192,-18 31.2965,-18 17.28458,0 31.2965,8.058875 31.2965,18 z" />
      <text
         text-anchor="middle"
         x="235"
         y="-86.3"
         font-family="Times,serif"
         font-size="14.00"
         id="text105">stress</text>
    </g>
    <!-- o&#45;&gt;stress2 -->
    <!-- wordplace2 -->
    <!-- o&#45;&gt;wordplace2 -->
    <!-- nger&#45;&gt;m -->
    <g
       id="edge29"
       class="edge">
      <title
         id="title108">nger-&gt;m</title>
      <path
         fill="none"
         stroke="black"
         d="M466.07,-162C474.669,-162 483.267,-162 491.866,-162"
         id="path110" />
      <polygon
         fill="black"
         stroke="black"
         points="491.96,-165.5 501.96,-162 491.96,-158.5 491.96,-165.5"
         id="polygon112" />
    </g>
    <!-- fake7 -->
    <!-- nger&#45;&gt;fake7 -->
    <!-- m&#45;&gt;ou -->
    <g
       id="edge30"
       class="edge">
      <title
         id="title115">m-&gt;ou</title>
      <path
         fill="none"
         stroke="black"
         d="M556.094,-162C579.917,-162 603.74,-162 627.563,-162"
         id="path117" />
      <polygon
         fill="black"
         stroke="black"
         points="627.773,-165.5 637.773,-162 627.773,-158.5 627.773,-165.5"
         id="polygon119" />
    </g>
    <!-- fake8 -->
    <!-- m&#45;&gt;fake8 -->
    <!-- ou&#45;&gt;rn -->
    <g
       id="edge31"
       class="edge">
      <title
         id="title122">ou-&gt;rn</title>
      <path
         fill="none"
         stroke="black"
         d="M692.172,-162C719.916,-162 747.66,-162 775.403,-162"
         id="path124" />
      <polygon
         fill="black"
         stroke="black"
         points="775.625,-165.5 785.625,-162 775.625,-158.5 775.625,-165.5"
         id="polygon126" />
    </g>
    <!-- stress3 -->
    <g
       id="node28"
       class="node">
      <title
         id="title129">stress3</title>
      <ellipse
         fill="cyan"
         stroke="black"
         cx="609"
         cy="-90"
         rx="31.2965"
         ry="18"
         id="ellipse131"
         d="m 640.2965,-90 c 0,9.941125 -14.01192,18 -31.2965,18 -17.28458,0 -31.2965,-8.058875 -31.2965,-18 0,-9.941125 14.01192,-18 31.2965,-18 17.28458,0 31.2965,8.058875 31.2965,18 z" />
      <text
         text-anchor="middle"
         x="609"
         y="-86.3"
         font-family="Times,serif"
         font-size="14.00"
         id="text133">stress</text>
    </g>
    <!-- ou&#45;&gt;stress3 -->
    <!-- wordplace3 -->
    <!-- ou&#45;&gt;wordplace3 -->
    <!-- fake9 -->
    <!-- rn&#45;&gt;fake9 -->
    <!-- word1 -->
    <g
       id="node31"
       class="node">
      <title
         id="title136">word1</title>
      <ellipse
         fill="orange"
         stroke="black"
         cx="53"
         cy="-18"
         rx="29.3722"
         ry="18"
         id="ellipse138"
         d="M 82.3722,-18 C 82.3722,-8.0588745 69.221818,0 53,0 36.778182,0 23.6278,-8.0588745 23.6278,-18 c 0,-9.941125 13.150382,-18 29.3722,-18 16.221818,0 29.3722,8.058875 29.3722,18 z" />
      <text
         text-anchor="middle"
         x="53"
         y="-14.3"
         font-family="Times,serif"
         font-size="14.00"
         id="text140">word</text>
    </g>
    <!-- wordplace1&#45;&gt;word1 -->
    <!-- fake10 -->
    <!-- fake6&#45;&gt;fake10 -->
    <!-- word2 -->
    <g
       id="node33"
       class="node">
      <title
         id="title143">word2</title>
      <ellipse
         fill="orange"
         stroke="black"
         cx="337"
         cy="-18"
         rx="29.3722"
         ry="18"
         id="ellipse145"
         d="m 366.3722,-18 c 0,9.9411255 -13.15038,18 -29.3722,18 -16.22182,0 -29.3722,-8.0588745 -29.3722,-18 0,-9.941125 13.15038,-18 29.3722,-18 16.22182,0 29.3722,8.058875 29.3722,18 z" />
      <text
         text-anchor="middle"
         x="337"
         y="-14.3"
         font-family="Times,serif"
         font-size="14.00"
         id="text147">word</text>
    </g>
    <!-- wordplace2&#45;&gt;word2 -->
    <!-- fake13 -->
    <!-- fake7&#45;&gt;fake13 -->
    <!-- fake14 -->
    <!-- fake8&#45;&gt;fake14 -->
    <!-- word3 -->
    <g
       id="node36"
       class="node">
      <title
         id="title150">word3</title>
      <ellipse
         fill="orange"
         stroke="black"
         cx="711"
         cy="-18"
         rx="29.3722"
         ry="18"
         id="ellipse152"
         d="m 740.3722,-18 c 0,9.9411255 -13.15038,18 -29.3722,18 -16.22182,0 -29.3722,-8.0588745 -29.3722,-18 0,-9.941125 13.15038,-18 29.3722,-18 16.22182,0 29.3722,8.058875 29.3722,18 z" />
      <text
         text-anchor="middle"
         x="711"
         y="-14.3"
         font-family="Times,serif"
         font-size="14.00"
         id="text154">word</text>
    </g>
    <!-- wordplace3&#45;&gt;word3 -->
  </g>
  <path
     style="fill:none;stroke:#00ffff;stroke-width:3;stroke-linecap:butt;stroke-linejoin:miter;stroke-miterlimit:4;stroke-opacity:1;stroke-dasharray:none"
     d="m 331.76351,183.10994 c -6.4138,4.46602 -11.79576,10.80696 -13.77565,18.36753 -1.79085,6.8387 -0.66543,14.24433 2.29594,20.66347 3.11831,6.75933 8.32595,12.62439 14.92362,16.07159 5.86559,3.0647 12.5862,4.14656 19.2022,4.30789 6.616,0.16133 13.21821,-0.55165 19.8288,-0.86398 7.54484,-0.35647 15.15249,-0.19507 22.58817,-1.52262 7.43567,-1.32755 14.85444,-4.32436 19.88674,-9.95709 5.21323,-5.83525 7.33059,-13.99915 6.88783,-21.81144 -0.50493,-8.90932 -4.2078,-17.61674 -10.33174,-24.10738 -4.35717,-4.61808 -9.86344,-8.09309 -15.79852,-10.34839 -5.93509,-2.2553 -12.29252,-3.31109 -18.6406,-3.42726 -6.94415,-0.12708 -13.86934,0.85469 -20.66347,2.29594 -9.30805,1.97453 -18.59468,4.89448 -26.40332,10.33174"
     id="path3137"
     inkscape:path-effect="#path-effect3139"
     inkscape:original-d="m 331.76351,183.10994 c -6.09188,4.63244 -11.76072,10.9844 -13.77565,18.36753 -1.8246,6.68571 -0.59002,14.36275 2.29594,20.66347 3.04439,6.6466 8.35743,12.85744 14.92362,16.07159 11.73086,5.74226 26.02063,4.5915 39.031,3.44391 14.60957,-1.28865 31.88922,-1.32868 42.47491,-11.47971 5.50305,-5.27709 7.26513,-14.1964 6.88783,-21.81144 -0.43264,-8.73197 -4.07481,-18.0012 -10.33174,-24.10738 -8.84863,-8.63544 -22.18747,-12.1125 -34.43912,-13.77565 -6.86722,-0.93222 -13.93491,0.63634 -20.66347,2.29594 -9.17593,2.26324 -18.8804,4.6111 -26.40332,10.33174 z"
     inkscape:connector-curvature="0"
     transform="scale(0.8,0.8)"
     sodipodi:nodetypes="aaaaaaaaaaa" />
  <path
     style="fill:none;stroke:#00ffff;stroke-width:3;stroke-linecap:butt;stroke-linejoin:miter;stroke-miterlimit:4;stroke-opacity:1;stroke-dasharray:none"
     d="m 795.54364,183.10994 c -3.12644,3.27163 -5.30663,7.40437 -6.43339,11.78714 -1.12676,4.38276 -1.21592,9.00745 -0.45444,13.46821 1.31294,7.69118 5.13546,14.84309 10.33174,20.66347 6.491,7.27061 15.03828,12.50139 24.10738,16.07159 8.44766,3.32556 17.53128,5.2919 26.59672,4.80193 9.06544,-0.48997 18.11577,-3.54807 25.06196,-9.39381 7.77572,-6.54385 12.53249,-16.31679 13.77564,-26.40333 0.62675,-5.08525 0.4047,-10.29698 -0.89642,-15.25275 -1.30112,-4.95578 -3.69898,-9.64963 -7.13937,-13.44651 -3.45947,-3.81794 -7.90324,-6.66481 -12.65217,-8.66286 -4.74894,-1.99806 -9.80791,-3.17476 -14.89912,-3.96482 -11.00747,-1.70816 -22.27306,-1.63827 -33.29115,0 -4.4057,0.65508 -8.79754,1.56603 -12.9515,3.17347 -4.15397,1.60743 -8.0786,3.93808 -11.15588,7.15827"
     id="path3909"
     inkscape:path-effect="#path-effect3911"
     inkscape:original-d="m 795.54364,183.10994 c -5.72797,6.58271 -7.74766,16.5719 -6.88783,25.25535 0.75882,7.66334 5.23532,14.89033 10.33174,20.66347 6.39157,7.24026 14.74902,13.68526 24.10738,16.07159 16.75142,4.27151 37.28693,5.01588 51.65868,-4.59188 8.25269,-5.51706 12.74569,-16.52993 13.77564,-26.40333 1.03071,-9.88073 -1.58272,-21.14617 -8.03579,-28.69926 -6.56225,-7.68088 -17.6812,-10.47352 -27.55129,-12.62768 -10.84184,-2.36624 -22.42073,-2.23124 -33.29115,0 -8.56414,1.75786 -18.36841,3.73638 -24.10738,10.33174 z"
     inkscape:connector-curvature="0"
     transform="scale(0.8,0.8)"
     sodipodi:nodetypes="aaaaaaaaaa" />
  <g
     id="g4361">
    <path
       style="font-size:medium;font-style:normal;font-variant:normal;font-weight:normal;font-stretch:normal;text-indent:0;text-align:start;text-decoration:none;line-height:normal;letter-spacing:normal;word-spacing:normal;text-transform:none;direction:ltr;block-progression:tb;writing-mode:lr-tb;text-anchor:start;baseline-shift:baseline;color:#000000;fill:#000000;fill-opacity:1;stroke:none;stroke-width:3;marker:none;visibility:visible;display:inline;overflow:visible;enable-background:accumulate;font-family:Sans;-inkscape-font-specification:Sans"
       d="m 276.275,187.2 -22.075,34.725 2.025,1.3 22.075,-34.75 -2.025,-1.275 z"
       id="path3913"
       inkscape:connector-curvature="0" />
    <path
       d="m 265.65334,195.3159 13.32166,-10.17551 -3.55587,16.38181 c -1.5347,-3.95347 -5.48672,-6.44788 -9.76579,-6.2063 z"
       style="fill-rule:evenodd;stroke-width:0.8;stroke-linejoin:round;fill:#00ffff;fill-opacity:1;stroke:#000000;stroke-opacity:1;stroke-miterlimit:4;stroke-dasharray:none"
       id="path4367"
       inkscape:connector-curvature="0" />
  </g>
  <g
     id="g4555">
    <path
       style="font-size:medium;font-style:normal;font-variant:normal;font-weight:normal;font-stretch:normal;text-indent:0;text-align:start;text-decoration:none;line-height:normal;letter-spacing:normal;word-spacing:normal;text-transform:none;direction:ltr;block-progression:tb;writing-mode:lr-tb;text-anchor:start;baseline-shift:baseline;color:#000000;fill:#000000;fill-opacity:1;stroke:none;stroke-width:3;marker:none;visibility:visible;display:inline;overflow:visible;enable-background:accumulate;font-family:Sans;-inkscape-font-specification:Sans"
       d="m 651.95,187.175 -22.725,35.075 2.025,1.3 22.725,-35.05 -2.025,-1.325 z"
       id="path4369"
       inkscape:connector-curvature="0" />
    <path
       d="m 641.25912,195.21148 13.41219,-10.0559 -3.70232,16.34933 c -1.49926,-3.96704 -5.4288,-6.49671 -9.70987,-6.29343 z"
       style="fill-rule:evenodd;stroke-width:0.8;stroke-linejoin:round;fill:#00ffff;fill-opacity:1;stroke:#000000;stroke-opacity:1;stroke-miterlimit:4;stroke-dasharray:none"
       id="path4561"
       inkscape:connector-curvature="0" />
  </g>
  <path
     style="fill:none;stroke:#ffa500;stroke-width:3;stroke-linecap:butt;stroke-linejoin:miter;stroke-opacity:1;stroke-miterlimit:4;stroke-dasharray:none"
     d="m 30.995207,185.40588 c -3.520441,3.95488 -5.836718,8.93571 -6.775424,14.1466 -0.938706,5.21089 -0.517572,10.63878 1.035571,15.70063 2.776616,9.04927 9.171584,16.82857 17.219559,21.81144 10.158178,6.28939 22.492001,8.14239 34.439118,8.0358 5.942168,-0.053 11.916914,-0.56206 17.650073,-2.12509 5.733156,-1.56303 11.235866,-4.21838 15.641076,-8.20665 6.74732,-6.10871 10.52726,-15.05556 11.47971,-24.10738 0.885,-8.41077 -0.66795,-17.33981 -5.73986,-24.10738 -3.16229,-4.21952 -7.55441,-7.42643 -12.34565,-9.62837 -4.791233,-2.20193 -9.980893,-3.43563 -15.205643,-4.14728 -8.742279,-1.19076 -17.631561,-0.94949 -26.403324,0 -5.677117,0.61451 -11.360483,1.534 -16.736772,3.45827 -5.376288,1.92426 -10.461724,4.90417 -14.258434,9.16941"
     id="path4563"
     inkscape:path-effect="#path-effect4565"
     inkscape:original-d="m 30.995207,185.40588 c -6.42517,7.83339 -8.139748,20.0042 -5.739853,29.84723 2.194229,8.99951 9.400331,16.84501 17.219559,21.81144 9.950576,6.32017 22.658622,8.45824 34.439118,8.0358 11.611704,-0.41639 24.507309,-2.72587 33.291149,-10.33174 6.72849,-5.82615 10.5439,-15.25634 11.47971,-24.10738 0.86853,-8.21464 -0.60736,-17.63497 -5.73986,-24.10738 -6.37973,-8.04525 -17.558205,-11.4166 -27.551293,-13.77565 -8.565669,-2.02208 -17.766364,-1.69187 -26.403324,0 -10.948195,2.14461 -23.920064,4.00186 -30.995206,12.62768 z"
     inkscape:connector-curvature="0"
     transform="scale(0.8,0.8)"
     sodipodi:nodetypes="aaaaaaaaaa" />
  <path
     style="fill:none;stroke:#ffa500;stroke-width:3;stroke-linecap:butt;stroke-linejoin:miter;stroke-miterlimit:4;stroke-opacity:1;stroke-dasharray:none"
     d="m 156.6654,195.01905 c -1.39392,3.02168 -1.96094,6.38972 -1.87819,9.71638 0.0827,3.32667 0.80066,6.61692 1.87819,9.76533 2.55059,7.45251 7.25939,14.27999 13.79954,18.66997 4.67116,3.13545 10.12713,4.95579 15.6634,5.95602 5.53627,1.00023 11.18191,1.21131 16.80611,1.34962 11.09151,0.27277 22.18972,0.27185 33.28125,0 17.59337,-0.4312 35.23204,-1.54259 52.76296,0 9.76409,0.85917 19.44638,2.53859 29.22256,3.24695 13.76843,0.99763 27.59424,0.0616 41.39863,0 17.32081,-0.0773 34.63512,1.22316 51.95122,0.81174 19.77998,-0.46996 39.47144,-3.17175 59.25686,-3.24695 13.00085,-0.0494 25.97576,1.0357 38.96341,1.62348 17.03426,0.77092 34.1016,0.68617 51.13948,0 6.04552,-0.24347 12.14277,-0.57101 17.98303,-2.15179 5.84027,-1.58077 11.47365,-4.52423 15.29822,-9.21254 3.01751,-3.69898 4.76679,-8.30274 5.68217,-12.98781 0.88848,-4.54739 1.02737,-9.2815 0,-13.79954 -1.03128,-4.53523 -3.21381,-8.75441 -5.95489,-12.51185 -2.74108,-3.75744 -6.036,-7.07796 -9.46813,-10.21681 -7.86644,-7.19425 -16.69782,-13.60562 -26.78735,-17.04649 -11.38946,-3.88419 -23.68611,-3.78079 -35.71646,-4.05869 -17.34957,-0.40077 -34.66795,-1.67957 -51.95122,-3.24695 -13.273,-1.2037 -26.53021,-2.57781 -39.77515,-4.05869 -16.72393,-1.86986 -33.51282,-3.91357 -50.32775,-3.24695 -18.21897,0.72228 -36.18428,4.6172 -54.38643,5.68216 -16.48357,0.96441 -33.04869,-0.39877 -49.51601,0.81174 -11.9515,0.87855 -23.77053,3.10742 -35.71646,4.05869 -7.03511,0.56022 -14.11153,0.67716 -21.10518,1.62347 -8.3448,1.12913 -16.50681,3.43427 -24.35214,6.4939 -8.8097,3.43572 -17.24109,7.82598 -25.16387,12.98781 -5.20043,3.38818 -10.38787,7.35179 -12.9878,12.9878"
     id="path4571"
     inkscape:path-effect="#path-effect4573"
     inkscape:original-d="m 156.6654,195.01905 c -2.48511,5.99958 -2.032,13.31391 0,19.48171 2.42152,7.35014 7.31705,14.44319 13.79954,18.66997 9.29285,6.05922 21.44361,6.08054 32.46951,7.30564 11.0259,1.2251 22.1875,0 33.28125,0 17.58765,0 35.20222,-0.9726 52.76296,0 9.7858,0.54199 19.43676,2.70496 29.22256,3.24695 13.77843,0.76312 27.59951,-0.1078 41.39863,0 17.31866,0.13529 34.63535,1.15045 51.95122,0.81174 19.77813,-0.38687 39.47537,-3.11741 59.25686,-3.24695 12.99879,-0.0851 25.96715,1.35284 38.96341,1.62348 17.0428,0.35491 34.32318,2.79194 51.13948,0 11.56437,-1.91998 24.65387,-3.42774 33.28125,-11.36433 3.47774,-3.19928 4.71464,-8.36245 5.68217,-12.98781 0.94181,-4.5024 1.35099,-9.40256 0,-13.79954 -2.6891,-8.75202 -8.85419,-16.35061 -15.42302,-22.72866 -7.59331,-7.37277 -16.80924,-13.51754 -26.78735,-17.04649 -11.29643,-3.9952 -23.78049,-3.00819 -35.71646,-4.05869 -17.28405,-1.52119 -34.65873,-1.82484 -51.95122,-3.24695 -13.28239,-1.09232 -26.49386,-2.95303 -39.77515,-4.05869 -16.75284,-1.39466 -33.52026,-3.5804 -50.32775,-3.24695 -18.2239,0.36155 -36.19201,4.58469 -54.38643,5.68216 -16.47761,0.99391 -33.04307,-0.25673 -49.51601,0.81174 -11.95698,0.77556 -23.78834,2.92256 -35.71646,4.05869 -7.02405,0.66903 -14.14949,0.43888 -21.10518,1.62347 -8.2818,1.41043 -16.51518,3.46743 -24.35214,6.4939 -8.80551,3.4005 -17.54185,7.41958 -25.16387,12.98781 -4.94379,3.61166 -10.64482,7.33134 -12.9878,12.9878 z"
     inkscape:connector-curvature="0"
     transform="scale(0.8,0.8)"
     sodipodi:nodetypes="aaaaaaaaaaaaaaaaaaaaaaaaaaaa" />
  <path
     style="fill:none;stroke:#ffa500;stroke-width:3;stroke-linecap:butt;stroke-linejoin:miter;stroke-miterlimit:4;stroke-opacity:1;stroke-dasharray:none"
     d="m 621.79116,208.00686 c 1.08976,9.27821 6.39352,17.84622 13.79954,23.5404 7.6292,5.86577 17.21586,8.74157 26.78735,9.74085 9.15825,0.95614 18.39596,0.30064 27.59908,0 8.92572,-0.29157 17.86032,-0.24819 26.78735,0 22.74648,0.63241 45.4401,2.59361 68.18598,3.24695 13.25445,0.38072 26.51902,0.31704 39.77515,0 17.87269,-0.42745 35.73201,-1.31531 53.5747,-2.43521 18.93827,-1.18866 38.02978,-2.63385 56.82164,0 13.84709,1.9408 27.42217,6.08492 41.39863,6.4939 14.48891,0.42398 28.74462,-3.17995 43.02212,-5.68216 5.238,-0.91798 10.5134,-1.6923 15.6457,-3.08467 5.1323,-1.39237 10.1579,-3.43432 14.3886,-6.65619 4.7525,-3.6193 8.4185,-8.78568 9.7408,-14.61128 1.2693,-5.59227 0.3683,-11.4347 -0.8117,-17.04649 -0.8901,-4.2333 -1.9458,-8.45949 -3.7043,-12.41181 -1.7585,-3.95232 -4.2589,-7.64365 -7.66,-10.31685 -3.8975,-3.0634 -8.7705,-4.64091 -13.6502,-5.51509 -4.8796,-0.87418 -9.8514,-1.10213 -14.7607,-1.79055 -11.516,-1.61486 -22.56959,-5.74398 -34.09294,-7.30564 -10.20127,-1.38249 -20.55188,-0.72574 -30.84604,-0.81174 -15.1756,-0.12677 -30.29161,-1.8729 -45.45732,-2.43521 -13.79139,-0.51136 -27.59782,-0.043 -41.39862,0 -18.67221,0.0581 -37.33821,-0.66262 -56.00991,-0.81174 -12.98743,-0.10372 -25.97557,0 -38.96342,0 -10.55259,0 -21.10518,0 -31.65777,0 -12.44665,0 -24.89329,0 -37.33994,0 -10.01863,0 -20.09067,-1.22362 -30.0343,0 -11.91057,1.46566 -22.78757,7.52115 -32.46951,14.61128 -7.06151,5.17118 -13.92671,11.30412 -17.0465,19.48171 -1.66696,4.36943 -2.16901,9.15485 -1.62347,13.79954"
     id="path4575"
     inkscape:path-effect="#path-effect4577"
     inkscape:original-d="m 621.79116,208.00686 c 1.86541,8.90231 6.8117,17.71794 13.79954,23.5404 7.29936,6.08203 17.4303,8.09237 26.78735,9.74085 9.06016,1.59617 18.39939,0 27.59908,0 8.92912,0 17.86076,-0.21242 26.78735,0 22.74798,0.54131 45.438,2.70564 68.18598,3.24695 13.25463,0.31541 26.52019,0.30109 39.77515,0 17.87206,-0.40597 35.70264,-2.02924 53.5747,-2.43521 18.93566,-0.43013 37.93838,-1.47204 56.82164,0 13.92604,1.0856 27.43137,6.32433 41.39863,6.4939 14.46418,0.1756 28.91332,-2.49058 43.02212,-5.68216 10.2654,-2.32217 21.6443,-3.38641 30.0343,-9.74086 4.6662,-3.53411 8.1783,-8.97016 9.7408,-14.61128 1.5185,-5.48219 0.6266,-11.54272 -0.8117,-17.04649 -2.1417,-8.19525 -4.7748,-17.40631 -11.3643,-22.72866 -7.607,-6.14417 -18.8931,-5.06314 -28.4109,-7.30564 -11.3125,-2.66537 -22.55242,-5.92929 -34.09294,-7.30564 -10.2132,-1.21805 -20.56866,-0.4013 -30.84604,-0.81174 -15.16208,-0.60552 -30.28859,-2.0292 -45.45732,-2.43521 -13.7946,-0.36923 -27.59944,0.1 -41.39862,0 -18.67144,-0.13529 -37.33847,-0.67645 -56.00991,-0.81174 -12.98747,-0.0941 -25.97561,0 -38.96342,0 -10.55259,0 -21.10518,0 -31.65777,0 -12.44665,0 -24.89329,0 -37.33994,0 -10.01143,0 -20.2458,-2.10095 -30.0343,0 -11.60425,2.49067 -22.93149,7.54813 -32.46951,14.61128 -6.93452,5.13519 -13.54399,11.59563 -17.0465,19.48171 -1.87998,4.23286 -2.57335,9.26642 -1.62347,13.79954 z"
     inkscape:connector-curvature="0"
     transform="scale(0.8,0.8)"
     sodipodi:nodetypes="aaaaaaaaaaaaaaaaaaaaaaaaaaaa" />
  <g
     id="g4765">
    <path
       style="font-size:medium;font-style:normal;font-variant:normal;font-weight:normal;font-stretch:normal;text-indent:0;text-align:start;text-decoration:none;line-height:normal;letter-spacing:normal;word-spacing:normal;text-transform:none;direction:ltr;block-progression:tb;writing-mode:lr-tb;text-anchor:start;baseline-shift:baseline;color:#000000;fill:#000000;fill-opacity:1;stroke:none;stroke-width:3;marker:none;visibility:visible;display:inline;overflow:visible;enable-background:accumulate;font-family:Sans;-inkscape-font-specification:Sans"
       d="m 59.525,191.05 -1.95,100.675 2.4,0.025 1.95,-100.65 -2.4,-0.05 z"
       id="path4579"
       inkscape:connector-curvature="0" />
    <path
       d="m 54.667547,203.52233 6.088894,-15.61836 5.479977,15.84228 c -3.366488,-2.57915 -8.039257,-2.6551 -11.568871,-0.22392 z"
       style="fill-rule:evenodd;stroke-width:0.80000000000000004;stroke-linejoin:round;stroke-miterlimit:4;stroke-dasharray:none;stroke:#000000;stroke-opacity:1;fill:#ffa500;fill-opacity:1"
       id="path4771"
       inkscape:connector-curvature="0" />
  </g>
  <g
     id="g4959">
    <path
       style="font-size:medium;font-style:normal;font-variant:normal;font-weight:normal;font-stretch:normal;text-indent:0;text-align:start;text-decoration:none;line-height:normal;letter-spacing:normal;word-spacing:normal;text-transform:none;direction:ltr;block-progression:tb;writing-mode:lr-tb;text-anchor:start;baseline-shift:baseline;color:#000000;fill:#000000;fill-opacity:1;stroke:none;stroke-width:3;marker:none;visibility:visible;display:inline;overflow:visible;enable-background:accumulate;font-family:Sans;-inkscape-font-specification:Sans"
       d="m 355.975,187.025 -13.325,104.225 2.4,0.325 13.3,-104.225 -2.375,-0.325 z"
       id="path4773"
       inkscape:connector-curvature="0" />
    <path
       d="m 349.81222,198.90364 7.73224,-14.87347 3.74555,16.33948 c -3.06979,-2.92602 -7.70733,-3.50376 -11.47779,-1.46601 z"
       style="fill-rule:evenodd;stroke-width:0.80000000000000004;stroke-linejoin:round;stroke-miterlimit:4;stroke-dasharray:none;stroke:#000000;stroke-opacity:1;fill:#ffa500;fill-opacity:1"
       id="path4965"
       inkscape:connector-curvature="0" />
    <g
       id="g5153">
      <path
         style="font-size:medium;font-style:normal;font-variant:normal;font-weight:normal;font-stretch:normal;text-indent:0;text-align:start;text-decoration:none;line-height:normal;letter-spacing:normal;word-spacing:normal;text-transform:none;direction:ltr;block-progression:tb;writing-mode:lr-tb;text-anchor:start;baseline-shift:baseline;color:#000000;fill:#000000;fill-opacity:1;stroke:none;stroke-width:3;marker:none;visibility:visible;display:inline;overflow:visible;enable-background:accumulate;font-family:Sans;-inkscape-font-specification:Sans"
         d="m 718.65,187.475 -3.25,103.9 2.4,0.075 3.25,-103.9 -2.4,-0.075 z"
         id="path4967"
         inkscape:connector-curvature="0" />
      <path
         d="m 713.6512,199.87788 6.27412,-15.54487 5.29127,15.90629 c -3.33559,-2.61898 -8.00713,-2.75047 -11.56539,-0.36142 z"
         style="fill-rule:evenodd;stroke-width:0.80000000000000004;stroke-linejoin:round;stroke-miterlimit:4;stroke-dasharray:none;stroke:#000000;stroke-opacity:1;fill:#ffa500;fill-opacity:1"
         id="path5159"
         inkscape:connector-curvature="0" />
    </g>
  </g>
  <path
     style="fill:none;stroke:#00ff00;stroke-width:3;stroke-linecap:butt;stroke-linejoin:miter;stroke-miterlimit:4;stroke-opacity:1;stroke-dasharray:none"
     d="m 35.716463,163.36128 c -7.379741,3.53679 -14.307601,8.27109 -19.481707,14.61128 -5.9493,7.29009 -9.3687292,16.57342 -9.7408536,25.97561 -0.5852493,14.78706 6.4903916,29.48862 17.8582316,38.96342 10.411992,8.67812 23.87965,13.01754 37.339939,14.61128 12.377926,1.46558 24.899398,0.77066 37.339939,0 21.634098,-1.34018 43.266178,-2.9039 64.939028,-3.24696 16.23291,-0.25695 32.46931,0 48.70426,0 27.59909,0 55.19817,0 82.79726,0 27.59909,0 55.19817,0 82.79726,0 25.43511,0 50.87513,-0.59198 76.30335,0 37.36088,0.86977 74.69709,5.14571 112.01982,3.24696 26.03683,-1.32459 51.87005,-5.64821 77.92683,-6.49391 29.77653,-0.96642 59.5056,2.61735 89.29116,3.24695 25.43182,0.53757 50.88875,-1.07927 76.30335,0 25.46976,1.08162 50.81064,4.86797 76.30335,4.87043 26.54859,0.003 53.01546,-4.1011 79.55031,-3.24695 12.28405,0.39542 24.52066,1.85269 36.80911,2.07032 12.2885,0.21763 24.796,-0.85384 36.2473,-5.31727 5.1309,-1.99989 10.0237,-4.68158 14.2588,-8.20139 4.2352,-3.5198 7.8025,-7.896 10.0933,-12.90379 2.6433,-5.77848 3.5279,-12.2528 3.2748,-18.60212 -0.2532,-6.34932 -1.6066,-12.60636 -3.2748,-18.73782 -2.6914,-9.89199 -6.3479,-19.78844 -12.9878,-27.59909 -5.1887,-6.10349 -12.0089,-10.67617 -19.3036,-13.98712 -7.2947,-3.31095 -15.0796,-5.41184 -22.9067,-7.11806 -25.59352,-5.57909 -51.87,-7.05881 -77.92688,-9.74086 -21.64294,-2.22773 -43.21474,-5.2959 -64.93902,-6.4939 -32.42645,-1.78817 -64.93842,0.60307 -97.40854,0 -25.48652,-0.47336 -50.89745,-2.7903 -76.30335,-4.87042 -32.43459,-2.6556 -64.90314,-4.9275 -97.40854,-6.49391 -34.07166,-1.64189 -68.17576,-2.50832 -102.27896,-3.24695 -29.76171,-0.6446 -59.54633,-1.19179 -89.29116,0 -22.77068,0.91235 -45.48741,2.84268 -68.18597,4.87043 -27.08583,2.41968 -54.16176,4.97921 -81.17378,8.11738 -30.94309,3.59487 -61.79719,7.94859 -92.53811,12.9878 -21.07434,3.45461 -42.10769,7.2331 -63.315553,9.74086 -20.975609,2.48029 -42.644811,3.85929 -61.692074,12.9878"
     id="path5161"
     inkscape:path-effect="#path-effect5163"
     inkscape:original-d="m 35.716463,163.36128 c -7.393576,3.35065 -14.614321,8.1151 -19.481707,14.61128 -5.544929,7.40045 -10.0690256,16.73411 -9.7408536,25.97561 0.5070216,14.278 7.4731276,29.1518 17.8582316,38.96342 9.71537,9.17887 24.206064,12.1331 37.339939,14.61128 12.230826,2.30779 24.897176,0.31088 37.339939,0 21.666618,-0.54133 43.272408,-2.70563 64.939028,-3.24696 16.22969,-0.40549 32.46951,0 48.70426,0 27.59909,0 55.19817,0 82.79726,0 27.59909,0 55.19817,0 82.79726,0 25.43445,0 50.87157,-0.3685 76.30335,0 37.3517,0.54122 74.6779,4.2585 112.01982,3.24696 26.05609,-0.70582 51.86832,-5.88411 77.92683,-6.49391 29.77524,-0.69677 59.51269,2.7057 89.29116,3.24695 25.43025,0.46222 50.88182,-0.8105 76.30335,0 25.47327,0.81215 50.81882,4.57799 76.30335,4.87043 26.5371,0.30452 53.03554,-2.11662 79.55031,-3.24695 24.35406,-1.03822 50.41241,5.77777 73.05641,-3.24695 9.9784,-3.97686 19.8903,-11.334 24.3521,-21.10518 5.17,-11.32211 2.7153,-25.19308 0,-37.33994 -2.2181,-9.92256 -5.8844,-20.32456 -12.9878,-27.59909 -10.9902,-11.255 -27.1544,-16.54662 -42.2103,-21.10518 -25.05454,-7.58591 -51.91316,-6.81477 -77.92688,-9.74086 -21.61797,-2.43165 -43.21172,-5.41024 -64.93902,-6.4939 -32.4292,-1.61743 -64.95552,1.03468 -97.40854,0 -25.47327,-0.81215 -50.87122,-3.21102 -76.30335,-4.87042 -32.47254,-2.11877 -64.90625,-4.89508 -97.40854,-6.49391 -34.06897,-1.6759 -68.17309,-2.70572 -102.27896,-3.24695 -29.75997,-0.47226 -59.54636,-1.06096 -89.29116,0 -22.77208,0.81225 -45.48262,2.92482 -68.18597,4.87043 -27.09357,2.32184 -54.17501,4.87409 -81.17378,8.11738 -30.92602,3.71506 -61.72134,8.4549 -92.53811,12.9878 -21.12617,3.10749 -42.30734,5.91642 -63.315553,9.74086 -20.675001,3.76377 -42.551104,4.31342 -61.692074,12.9878 z"
     inkscape:connector-curvature="0"
     transform="scale(0.8,0.8)"
     sodipodi:nodetypes="aaaaaaaaaaaaaaaaaaaaaaaaaaaaaaaaaa" />
  <g
     id="g5351">
    <path
       style="font-size:medium;font-style:normal;font-variant:normal;font-weight:normal;font-stretch:normal;text-indent:0;text-align:start;text-decoration:none;line-height:normal;letter-spacing:normal;word-spacing:normal;text-transform:none;direction:ltr;block-progression:tb;writing-mode:lr-tb;text-anchor:start;baseline-shift:baseline;color:#000000;fill:#000000;fill-opacity:1;stroke:none;stroke-width:3;marker:none;visibility:visible;display:inline;overflow:visible;enable-background:accumulate;font-family:Sans;-inkscape-font-specification:Sans"
       d="m 442,39.75 -0.975,64.3 2.4,0.025 L 444.4,39.8 442,39.75 z"
       id="path5165"
       inkscape:connector-curvature="0" />
    <path
       d="m 448.23287,91.598697 -6.02321,15.643813 -5.5465,-15.819112 c 3.3773,2.564977 8.05035,2.621296 11.56971,0.175299 z"
       style="fill-rule:evenodd;stroke-width:0.80000000000000004;stroke-linejoin:round;stroke-miterlimit:4;stroke-dasharray:none;stroke:#000000;stroke-opacity:1;fill:#00ff00;fill-opacity:1"
       id="path5357"
       inkscape:connector-curvature="0" />
  </g>
</svg>
