<?xml version="1.0" encoding="UTF-8" standalone="no"?>
<!DOCTYPE svg PUBLIC "-//W3C//DTD SVG 1.1//EN"
 "http://www.w3.org/Graphics/SVG/1.1/DTD/svg11.dtd">
<!-- Generated by graphviz version 2.34.0 (20130907.0228)
 -->
<!-- Title: G Pages: 1 -->
<svg width="852pt" height="332pt"
 viewBox="0.00 0.00 852.00 332.00" xmlns="http://www.w3.org/2000/svg" xmlns:xlink="http://www.w3.org/1999/xlink">
<g id="graph0" class="graph" transform="scale(1 1) rotate(0) translate(4 328)">
<title>G</title>
<polygon fill="white" stroke="white" points="-4,4 -4,-328 848,-328 848,4 -4,4"/>
<!-- top1 -->
<!-- top2 -->
<!-- top1&#45;&gt;top2 -->
<!-- document -->
<g id="node8" class="node"><title>document</title>
<ellipse fill="beige" stroke="black" cx="53" cy="-234" rx="46.1964" ry="18"/>
<text text-anchor="middle" x="53" y="-230.3" font-family="Times,serif" font-size="14.00">document</text>
</g>
<!-- top1&#45;&gt;document -->
<!-- top3 -->
<!-- top2&#45;&gt;top3 -->
<!-- fake1 -->
<!-- top2&#45;&gt;fake1 -->
<!-- line -->
<g id="node4" class="node"><title>line</title>
<ellipse fill="#00ff00" stroke="black" cx="439" cy="-306" rx="27" ry="18"/>
<text text-anchor="middle" x="439" y="-302.3" font-family="Times,serif" font-size="14.00">line</text>
</g>
<!-- top3&#45;&gt;line -->
<!-- fake2 -->
<!-- top3&#45;&gt;fake2 -->
<!-- top4 -->
<!-- line&#45;&gt;top4 -->
<!-- null -->
<!-- line&#45;&gt;null -->
<!-- top5 -->
<!-- top4&#45;&gt;top5 -->
<!-- fake3 -->
<!-- top4&#45;&gt;fake3 -->
<!-- top6 -->
<!-- top5&#45;&gt;top6 -->
<!-- fake4 -->
<!-- top5&#45;&gt;fake4 -->
<!-- fake5 -->
<!-- top6&#45;&gt;fake5 -->
<!-- document&#45;&gt;fake1 -->
<!-- No -->
<g id="node15" class="node"><title>No</title>
<ellipse fill="pink" stroke="black" cx="53" cy="-162" rx="27" ry="18"/>
<text text-anchor="middle" x="53" y="-158.3" font-family="Times,serif" font-size="14.00">No</text>
</g>
<!-- document&#45;&gt;No -->
<g id="edge19" class="edge"><title>document&#45;&gt;No</title>
<path fill="none" stroke="black" d="M53,-215.697C53,-207.983 53,-198.712 53,-190.112"/>
<polygon fill="black" stroke="black" points="56.5001,-190.104 53,-180.104 49.5001,-190.104 56.5001,-190.104"/>
</g>
<!-- fake1&#45;&gt;fake2 -->
<!-- l -->
<g id="node16" class="node"><title>l</title>
<ellipse fill="pink" stroke="black" cx="155" cy="-162" rx="27" ry="18"/>
<text text-anchor="middle" x="155" y="-158.3" font-family="Times,serif" font-size="14.00">l</text>
</g>
<!-- fake1&#45;&gt;l -->
<!-- fake2&#45;&gt;null -->
<!-- o -->
<g id="node17" class="node"><title>o</title>
<ellipse fill="pink" stroke="black" cx="291" cy="-162" rx="27" ry="18"/>
<text text-anchor="middle" x="291" y="-158.3" font-family="Times,serif" font-size="14.00">o</text>
</g>
<!-- fake2&#45;&gt;o -->
<!-- null&#45;&gt;fake3 -->
<!-- nger -->
<g id="node18" class="node"><title>nger</title>
<ellipse fill="pink" stroke="black" cx="439" cy="-162" rx="27" ry="18"/>
<text text-anchor="middle" x="439" y="-158.3" font-family="Times,serif" font-size="14.00">nger</text>
</g>
<!-- null&#45;&gt;nger -->
<!-- fake3&#45;&gt;fake4 -->
<!-- m -->
<g id="node19" class="node"><title>m</title>
<ellipse fill="pink" stroke="black" cx="529" cy="-162" rx="27" ry="18"/>
<text text-anchor="middle" x="529" y="-158.3" font-family="Times,serif" font-size="14.00">m</text>
</g>
<!-- fake3&#45;&gt;m -->
<!-- ou -->
<g id="node20" class="node"><title>ou</title>
<ellipse fill="pink" stroke="black" cx="665" cy="-162" rx="27" ry="18"/>
<text text-anchor="middle" x="665" y="-158.3" font-family="Times,serif" font-size="14.00">ou</text>
</g>
<!-- fake4&#45;&gt;ou -->
<!-- rn -->
<g id="node21" class="node"><title>rn</title>
<ellipse fill="pink" stroke="black" cx="813" cy="-162" rx="27" ry="18"/>
<text text-anchor="middle" x="813" y="-158.3" font-family="Times,serif" font-size="14.00">rn</text>
</g>
<!-- fake5&#45;&gt;rn -->
<!-- No&#45;&gt;l -->
<g id="edge26" class="edge"><title>No&#45;&gt;l</title>
<path fill="none" stroke="black" d="M80.0938,-162C92.6383,-162 105.183,-162 117.727,-162"/>
<polygon fill="black" stroke="black" points="117.788,-165.5 127.788,-162 117.788,-158.5 117.788,-165.5"/>
</g>
<!-- wordplace1 -->
<!-- No&#45;&gt;wordplace1 -->
<!-- l&#45;&gt;o -->
<g id="edge27" class="edge"><title>l&#45;&gt;o</title>
<path fill="none" stroke="black" d="M182.094,-162C205.917,-162 229.74,-162 253.563,-162"/>
<polygon fill="black" stroke="black" points="253.773,-165.5 263.773,-162 253.773,-158.5 253.773,-165.5"/>
</g>
<!-- fake6 -->
<!-- l&#45;&gt;fake6 -->
<!-- o&#45;&gt;nger -->
<g id="edge28" class="edge"><title>o&#45;&gt;nger</title>
<path fill="none" stroke="black" d="M318.172,-162C345.916,-162 373.66,-162 401.403,-162"/>
<polygon fill="black" stroke="black" points="401.625,-165.5 411.625,-162 401.625,-158.5 401.625,-165.5"/>
</g>
<!-- stress2 -->
<g id="node24" class="node"><title>stress2</title>
<ellipse fill="cyan" stroke="black" cx="235" cy="-90" rx="31.2965" ry="18"/>
<text text-anchor="middle" x="235" y="-86.3" font-family="Times,serif" font-size="14.00">stress</text>
</g>
<!-- o&#45;&gt;stress2 -->
<!-- wordplace2 -->
<!-- o&#45;&gt;wordplace2 -->
<!-- nger&#45;&gt;m -->
<g id="edge29" class="edge"><title>nger&#45;&gt;m</title>
<path fill="none" stroke="black" d="M466.07,-162C474.669,-162 483.267,-162 491.866,-162"/>
<polygon fill="black" stroke="black" points="491.96,-165.5 501.96,-162 491.96,-158.5 491.96,-165.5"/>
</g>
<!-- fake7 -->
<!-- nger&#45;&gt;fake7 -->
<!-- m&#45;&gt;ou -->
<g id="edge30" class="edge"><title>m&#45;&gt;ou</title>
<path fill="none" stroke="black" d="M556.094,-162C579.917,-162 603.74,-162 627.563,-162"/>
<polygon fill="black" stroke="black" points="627.773,-165.5 637.773,-162 627.773,-158.5 627.773,-165.5"/>
</g>
<!-- fake8 -->
<!-- m&#45;&gt;fake8 -->
<!-- ou&#45;&gt;rn -->
<g id="edge31" class="edge"><title>ou&#45;&gt;rn</title>
<path fill="none" stroke="black" d="M692.172,-162C719.916,-162 747.66,-162 775.403,-162"/>
<polygon fill="black" stroke="black" points="775.625,-165.5 785.625,-162 775.625,-158.5 775.625,-165.5"/>
</g>
<!-- stress3 -->
<g id="node28" class="node"><title>stress3</title>
<ellipse fill="cyan" stroke="black" cx="609" cy="-90" rx="31.2965" ry="18"/>
<text text-anchor="middle" x="609" y="-86.3" font-family="Times,serif" font-size="14.00">stress</text>
</g>
<!-- ou&#45;&gt;stress3 -->
<!-- wordplace3 -->
<!-- ou&#45;&gt;wordplace3 -->
<!-- fake9 -->
<!-- rn&#45;&gt;fake9 -->
<!-- word1 -->
<g id="node31" class="node"><title>word1</title>
<ellipse fill="orange" stroke="black" cx="53" cy="-18" rx="29.3722" ry="18"/>
<text text-anchor="middle" x="53" y="-14.3" font-family="Times,serif" font-size="14.00">word</text>
</g>
<!-- wordplace1&#45;&gt;word1 -->
<!-- fake10 -->
<!-- fake6&#45;&gt;fake10 -->
<!-- word2 -->
<g id="node33" class="node"><title>word2</title>
<ellipse fill="orange" stroke="black" cx="337" cy="-18" rx="29.3722" ry="18"/>
<text text-anchor="middle" x="337" y="-14.3" font-family="Times,serif" font-size="14.00">word</text>
</g>
<!-- wordplace2&#45;&gt;word2 -->
<!-- fake13 -->
<!-- fake7&#45;&gt;fake13 -->
<!-- fake14 -->
<!-- fake8&#45;&gt;fake14 -->
<!-- word3 -->
<g id="node36" class="node"><title>word3</title>
<ellipse fill="orange" stroke="black" cx="711" cy="-18" rx="29.3722" ry="18"/>
<text text-anchor="middle" x="711" y="-14.3" font-family="Times,serif" font-size="14.00">word</text>
</g>
<!-- wordplace3&#45;&gt;word3 -->
</g>
</svg>
