<?xml version="1.0" encoding="UTF-8" standalone="no"?>
<!-- Generated by graphviz version 2.34.0 (20130907.0228)
 -->

<!-- Title: G Pages: 1 -->

<svg
   xmlns:dc="http://purl.org/dc/elements/1.1/"
   xmlns:cc="http://creativecommons.org/ns#"
   xmlns:rdf="http://www.w3.org/1999/02/22-rdf-syntax-ns#"
   xmlns:svg="http://www.w3.org/2000/svg"
   xmlns="http://www.w3.org/2000/svg"
   xmlns:sodipodi="http://sodipodi.sourceforge.net/DTD/sodipodi-0.dtd"
   xmlns:inkscape="http://www.inkscape.org/namespaces/inkscape"
   width="465pt"
   height="210pt"
   viewBox="0.00 0.00 465.00 210.38"
   id="svg2"
   version="1.1"
   inkscape:version="0.48.5 r10040"
   sodipodi:docname="untokenized-stressed.svg">
  <metadata
     id="metadata111">
    <rdf:RDF>
      <cc:Work
         rdf:about="">
        <dc:format>image/svg+xml</dc:format>
        <dc:type
           rdf:resource="http://purl.org/dc/dcmitype/StillImage" />
      </cc:Work>
    </rdf:RDF>
  </metadata>
  <defs
     id="defs109">
    <inkscape:path-effect
       effect="spiro"
       id="path-effect4521"
       is_visible="true" />
    <inkscape:path-effect
       effect="spiro"
       id="path-effect4517"
       is_visible="true" />
    <inkscape:path-effect
       effect="spiro"
       id="path-effect4322"
       is_visible="true" />
    <marker
       inkscape:stockid="Arrow2Mend"
       orient="auto"
       refY="0.0"
       refX="0.0"
       id="Arrow2Mend"
       style="overflow:visible;">
      <path
         id="path3899"
         style="fill-rule:evenodd;stroke-width:0.62500000;stroke-linejoin:round;"
         d="M 8.7185878,4.0337352 L -2.2072895,0.016013256 L 8.7185884,-4.0017078 C 6.9730900,-1.6296469 6.9831476,1.6157441 8.7185878,4.0337352 z "
         transform="scale(0.6) rotate(180) translate(0,0)" />
    </marker>
    <inkscape:path-effect
       effect="spiro"
       id="path-effect3866"
       is_visible="true" />
    <inkscape:path-effect
       effect="spiro"
       id="path-effect3862"
       is_visible="true" />
    <inkscape:path-effect
       effect="spiro"
       id="path-effect3090"
       is_visible="true" />
  </defs>
  <sodipodi:namedview
     pagecolor="#ffffff"
     bordercolor="#666666"
     borderopacity="1"
     objecttolerance="10"
     gridtolerance="10"
     guidetolerance="10"
     inkscape:pageopacity="0"
     inkscape:pageshadow="2"
     inkscape:window-width="1135"
     inkscape:window-height="694"
     id="namedview107"
     showgrid="false"
     inkscape:zoom="0.79804223"
     inkscape:cx="326.06707"
     inkscape:cy="95.807927"
     inkscape:window-x="0"
     inkscape:window-y="0"
     inkscape:window-maximized="0"
     inkscape:current-layer="g4705">
    <sodipodi:guide
       position="0,0"
       orientation="0,581.25"
       id="guide4713" />
    <sodipodi:guide
       position="581.25,0"
       orientation="-262.5,0"
       id="guide4715" />
    <sodipodi:guide
       position="581.25,262.5"
       orientation="0,-581.25"
       id="guide4717" />
    <sodipodi:guide
       position="0,262.5"
       orientation="262.5,0"
       id="guide4719" />
    <sodipodi:guide
       position="0,0"
       orientation="0,581.25"
       id="guide4721" />
    <sodipodi:guide
       position="581.25,0"
       orientation="-262.5,0"
       id="guide4723" />
    <sodipodi:guide
       position="581.25,262.5"
       orientation="0,-581.25"
       id="guide4725" />
    <sodipodi:guide
       position="0,262.5"
       orientation="262.5,0"
       id="guide4727" />
  </sodipodi:namedview>
  <g
     id="graph0"
     class="graph"
     transform="scale(1 1) rotate(0) translate(4 206.381)">
    <title
       id="title5">G</title>
    <polygon
       fill="white"
       stroke="white"
       points="-4,4 -4,-206.381 461,-206.381 461,4 -4,4"
       id="polygon7" />
    <!-- document -->
    <g
       id="node1"
       class="node">
      <title
         id="title10">document</title>
      <ellipse
         fill="beige"
         stroke="black"
         cx="46"
         cy="-162"
         rx="46.1964"
         ry="18"
         id="ellipse12"
         d="m 92.1964,-162 c 0,9.94113 -20.682833,18 -46.1964,18 -25.513567,0 -46.19639969,-8.05887 -46.19639969,-18 0,-9.94113 20.68283269,-18 46.19639969,-18 25.513567,0 46.1964,8.05887 46.1964,18 z" />
      <text
         text-anchor="middle"
         x="46"
         y="-158.3"
         font-family="Times,serif"
         font-size="14.00"
         id="text14">document</text>
    </g>
    <!-- line -->
    <g
       id="node3"
       class="node">
      <title
         id="title17">line</title>
      <ellipse
         fill="#00ff00"
         stroke="black"
         cx="237"
         cy="-162"
         rx="27"
         ry="18"
         id="ellipse19"
         d="m 264,-162 c 0,9.94113 -12.08831,18 -27,18 -14.91169,0 -27,-8.05887 -27,-18 0,-9.94113 12.08831,-18 27,-18 14.91169,0 27,8.05887 27,18 z" />
      <text
         text-anchor="middle"
         x="237"
         y="-158.3"
         font-family="Times,serif"
         font-size="14.00"
         id="text21">line</text>
    </g>
    <!-- document&#45;&gt;line -->
    <!-- Nol -->
    <g
       id="node6"
       class="node">
      <title
         id="title24">Nol</title>
      <ellipse
         fill="pink"
         stroke="black"
         cx="46"
         cy="-90"
         rx="27"
         ry="18"
         id="ellipse26"
         d="m 73,-90 c 0,9.941125 -12.088312,18 -27,18 -14.911688,0 -27,-8.058875 -27,-18 0,-9.941125 12.088312,-18 27,-18 14.911688,0 27,8.058875 27,18 z" />
      <text
         text-anchor="middle"
         x="46"
         y="-86.3"
         font-family="Times,serif"
         font-size="14.00"
         id="text28">No l</text>
    </g>
    <!-- document&#45;&gt;Nol -->
    <g
       id="edge3"
       class="edge">
      <title
         id="title31">document-&gt;Nol</title>
      <path
         fill="none"
         stroke="black"
         d="M46,-143.697C46,-135.983 46,-126.712 46,-118.112"
         id="path33" />
      <polygon
         fill="black"
         stroke="black"
         points="49.5001,-118.104 46,-108.104 42.5001,-118.104 49.5001,-118.104"
         id="polygon35" />
    </g>
    <!-- fake -->
    <!-- o -->
    <g
       id="node7"
       class="node">
      <title
         id="title38">o</title>
      <ellipse
         fill="pink"
         stroke="black"
         cx="138"
         cy="-90"
         rx="27"
         ry="18"
         id="ellipse40"
         d="m 165,-90 c 0,9.941125 -12.08831,18 -27,18 -14.91169,0 -27,-8.058875 -27,-18 0,-9.941125 12.08831,-18 27,-18 14.91169,0 27,8.058875 27,18 z" />
      <text
         text-anchor="middle"
         x="138"
         y="-86.3"
         font-family="Times,serif"
         font-size="14.00"
         id="text42">o</text>
    </g>
    <!-- fake&#45;&gt;o -->
    <!-- line&#45;&gt;fake -->
    <!-- nger -->
    <g
       id="node8"
       class="node">
      <title
         id="title45">nger</title>
      <ellipse
         fill="pink"
         stroke="black"
         cx="237"
         cy="-90"
         rx="36.096"
         ry="18"
         id="ellipse47"
         d="m 273.096,-90 c 0,9.941125 -16.16073,18 -36.096,18 -19.93527,0 -36.096,-8.058875 -36.096,-18 0,-9.941125 16.16073,-18 36.096,-18 19.93527,0 36.096,8.058875 36.096,18 z" />
      <text
         text-anchor="middle"
         x="237"
         y="-86.3"
         font-family="Times,serif"
         font-size="14.00"
         id="text49">nger m</text>
    </g>
    <!-- line&#45;&gt;nger -->
    <!-- fake3 -->
    <!-- ou -->
    <g
       id="node9"
       class="node">
      <title
         id="title52">ou</title>
      <ellipse
         fill="pink"
         stroke="black"
         cx="336"
         cy="-90"
         rx="27"
         ry="18"
         id="ellipse54"
         d="m 363,-90 c 0,9.941125 -12.08831,18 -27,18 -14.91169,0 -27,-8.058875 -27,-18 0,-9.941125 12.08831,-18 27,-18 14.91169,0 27,8.058875 27,18 z" />
      <text
         text-anchor="middle"
         x="336"
         y="-86.3"
         font-family="Times,serif"
         font-size="14.00"
         id="text56">ou</text>
    </g>
    <!-- fake3&#45;&gt;ou -->
    <!-- fake4 -->
    <!-- rn -->
    <g
       id="node10"
       class="node">
      <title
         id="title59">rn</title>
      <ellipse
         fill="pink"
         stroke="black"
         cx="426"
         cy="-90"
         rx="27"
         ry="18"
         id="ellipse61"
         d="m 453,-90 c 0,9.941125 -12.08831,18 -27,18 -14.91169,0 -27,-8.058875 -27,-18 0,-9.941125 12.08831,-18 27,-18 14.91169,0 27,8.058875 27,18 z" />
      <text
         text-anchor="middle"
         x="426"
         y="-86.3"
         font-family="Times,serif"
         font-size="14.00"
         id="text63">rn</text>
    </g>
    <!-- fake4&#45;&gt;rn -->
    <!-- Nol&#45;&gt;o -->
    <g
       id="edge4"
       class="edge">
      <title
         id="title66">Nol-&gt;o</title>
      <path
         fill="none"
         stroke="black"
         d="M73.3125,-90C82.5289,-90 91.7454,-90 100.962,-90"
         id="path68" />
      <polygon
         fill="black"
         stroke="black"
         points="100.963,-93.5001 110.963,-90 100.963,-86.5001 100.963,-93.5001"
         id="polygon70" />
    </g>
    <!-- fake1 -->
    <!-- Nol&#45;&gt;fake1 -->
    <!-- o&#45;&gt;nger -->
    <g
       id="edge5"
       class="edge">
      <title
         id="title73">o-&gt;nger</title>
      <path
         fill="none"
         stroke="black"
         d="M165.07,-90C173.62,-90 182.169,-90 190.718,-90"
         id="path75" />
      <polygon
         fill="black"
         stroke="black"
         points="190.754,-93.5001 200.754,-90 190.754,-86.5001 190.754,-93.5001"
         id="polygon77" />
    </g>
    <!-- stress1 -->
    <g
       id="node12"
       class="node">
      <title
         id="title80">stress1</title>
      <ellipse
         fill="cyan"
         stroke="black"
         cx="138"
         cy="-18"
         rx="31.2965"
         ry="18"
         id="ellipse82"
         d="m 169.2965,-18 c 0,9.9411255 -14.01192,18 -31.2965,18 -17.28458,0 -31.2965,-8.0588745 -31.2965,-18 0,-9.941125 14.01192,-18 31.2965,-18 17.28458,0 31.2965,8.058875 31.2965,18 z" />
      <text
         text-anchor="middle"
         x="138"
         y="-14.3"
         font-family="Times,serif"
         font-size="14.00"
         id="text84">stress</text>
    </g>
    <!-- o&#45;&gt;stress1 -->
    <!-- nger&#45;&gt;ou -->
    <g
       id="edge6"
       class="edge">
      <title
         id="title87">nger-&gt;ou</title>
      <path
         fill="none"
         stroke="black"
         d="M273.352,-90C281.703,-90 290.054,-90 298.405,-90"
         id="path89" />
      <polygon
         fill="black"
         stroke="black"
         points="298.591,-93.5001 308.591,-90 298.591,-86.5001 298.591,-93.5001"
         id="polygon91" />
    </g>
    <!-- fake2 -->
    <!-- nger&#45;&gt;fake2 -->
    <!-- ou&#45;&gt;rn -->
    <g
       id="edge7"
       class="edge">
      <title
         id="title94">ou-&gt;rn</title>
      <path
         fill="none"
         stroke="black"
         d="M363.07,-90C371.669,-90 380.267,-90 388.866,-90"
         id="path96" />
      <polygon
         fill="black"
         stroke="black"
         points="388.96,-93.5001 398.96,-90 388.96,-86.5001 388.96,-93.5001"
         id="polygon98" />
    </g>
    <!-- stress2 -->
    <g
       id="node14"
       class="node">
      <title
         id="title101">stress2</title>
      <ellipse
         fill="cyan"
         stroke="black"
         cx="336"
         cy="-18"
         rx="31.2965"
         ry="18"
         id="ellipse103"
         d="m 367.2965,-18 c 0,9.9411255 -14.01192,18 -31.2965,18 -17.28458,0 -31.2965,-8.0588745 -31.2965,-18 0,-9.941125 14.01192,-18 31.2965,-18 17.28458,0 31.2965,8.058875 31.2965,18 z" />
      <text
         text-anchor="middle"
         x="336"
         y="-14.3"
         font-family="Times,serif"
         font-size="14.00"
         id="text105">stress</text>
    </g>
    <!-- ou&#45;&gt;stress2 -->
  </g>
  <path
     style="fill:none;stroke:#00ffff;stroke-width:3;stroke-linecap:butt;stroke-linejoin:miter;stroke-miterlimit:4;stroke-opacity:1;stroke-dasharray:none"
     d="m 137.33803,129.59223 c -2.20846,3.17262 -3.59722,6.90458 -4.04332,10.74434 -0.44609,3.83977 0.0472,7.78029 1.38517,11.40695 2.06764,5.60451 6.06759,10.32377 10.63262,14.17683 6.11827,5.16406 13.43005,8.98627 21.26524,10.63262 8.78625,1.84619 18.01688,0.921 26.58156,-1.7721 9.50951,-2.9902 18.45767,-8.26603 24.80945,-15.94893 2.24902,-2.72034 4.17178,-5.74738 5.35233,-9.07374 1.18054,-3.32635 1.5939,-6.96904 0.85003,-10.4194 -0.81749,-3.79186 -2.9933,-7.1956 -5.72025,-9.95426 -2.72695,-2.75866 -5.99462,-4.92183 -9.34263,-6.88073 -7.39049,-4.32412 -15.42817,-7.78888 -23.9234,-8.86052 -8.60067,-1.08494 -17.34751,0.32156 -25.6955,2.65816 -4.60829,1.28986 -9.17235,2.87938 -13.29078,5.31631 -3.44609,2.0391 -6.57288,4.68811 -8.86052,7.97447"
     id="path3088"
     inkscape:path-effect="#path-effect3090"
     inkscape:original-d="m 137.33803,129.59223 c -3.42558,6.60079 -4.58462,14.96841 -2.65815,22.15129 1.5302,5.70537 6.0975,10.39193 10.63262,14.17683 6.0845,5.07798 13.49584,9.06949 21.26524,10.63262 8.70574,1.75151 18.14925,1.01248 26.58156,-1.7721 9.33538,-3.0828 18.83037,-8.14485 24.80945,-15.94893 4.14694,-5.41272 7.62994,-12.82556 6.20236,-19.49314 -1.5765,-7.36311 -8.83877,-12.59691 -15.06288,-16.83499 -7.02906,-4.78619 -15.48677,-7.79346 -23.9234,-8.86052 -8.54282,-1.0805 -17.33512,0.59633 -25.6955,2.65816 -4.63273,1.14252 -9.23963,2.79525 -13.29078,5.31631 -3.37363,2.09943 -7.03019,4.44759 -8.86052,7.97447 z"
     inkscape:connector-curvature="0"
     transform="matrix(0.80144762,0,0,0.80144762,-0.42071429,0)"
     sodipodi:nodetypes="aaaaaaaaaaaa" />
  <path
     style="fill:none;stroke:#00ffff;stroke-width:3;stroke-linecap:butt;stroke-linejoin:miter;stroke-miterlimit:4;stroke-opacity:1;stroke-dasharray:none"
     d="m 379.23018,147.31326 c 1.64471,7.41039 6.58444,13.73439 12.40473,18.60709 4.90703,4.10813 10.60417,7.40014 16.83498,8.86052 8.66189,2.03018 17.69558,0.43522 26.58156,0 3.53124,-0.17296 7.08186,-0.16163 10.57911,-0.68016 3.49724,-0.51853 6.98929,-1.60556 9.80008,-3.7501 3.74909,-2.86042 5.91739,-7.27531 7.97447,-11.51867 1.41806,-2.92518 2.85127,-5.86251 3.77777,-8.97847 0.92649,-3.11596 1.33026,-6.44928 0.65249,-9.62862 -0.5633,-2.64237 -1.85378,-5.08765 -3.44943,-7.26787 -1.59564,-2.18022 -3.49615,-4.11701 -5.41109,-6.02291 -5.45181,-5.42608 -11.3224,-10.82139 -18.60709,-13.29078 -8.52057,-2.88834 -17.88079,-1.4029 -26.58156,0.88605 -8.36,2.1993 -16.60321,5.14857 -23.92339,9.74657 -3.03301,1.90512 -5.94425,4.13769 -7.97447,7.08842 -3.14276,4.56771 -3.8595,10.53619 -2.65816,15.94893"
     id="path3860"
     inkscape:path-effect="#path-effect3862"
     inkscape:original-d="m 379.23018,147.31326 c 1.56433,7.28832 6.86808,13.61587 12.40473,18.60709 4.71008,4.24607 10.67868,7.33935 16.83498,8.86052 8.60182,2.12543 17.77174,0.94654 26.58156,0 6.91195,-0.74263 14.60139,-0.56458 20.37919,-4.43026 3.88131,-2.59682 6.07179,-7.25396 7.97447,-11.51867 2.5977,-5.82255 5.5537,-12.3311 4.43026,-18.60709 -0.9382,-5.2412 -5.15671,-9.46557 -8.86052,-13.29078 -5.30205,-5.47584 -11.31085,-11.08593 -18.60709,-13.29078 -8.48642,-2.56451 -17.91107,-0.96289 -26.58156,0.88605 -8.42152,1.79585 -16.613,5.19626 -23.92339,9.74657 -3.01936,1.87939 -6.2549,3.97527 -7.97447,7.08842 -2.6059,4.71779 -3.7892,10.6793 -2.65816,15.94893 z"
     inkscape:connector-curvature="0"
     transform="matrix(0.80144762,0,0,0.80144762,-0.42071429,0)"
     sodipodi:nodetypes="aaaaaaaaaaaaa" />
  <g
     id="g4312">
    <path
       style="font-size:medium;font-style:normal;font-variant:normal;font-weight:normal;font-stretch:normal;text-indent:0;text-align:start;text-decoration:none;line-height:normal;letter-spacing:normal;word-spacing:normal;text-transform:none;direction:ltr;block-progression:tb;writing-mode:lr-tb;text-anchor:start;baseline-shift:baseline;color:#000000;fill:#000000;fill-opacity:1;stroke:none;stroke-width:3;marker:none;visibility:visible;display:inline;overflow:visible;enable-background:accumulate;font-family:Sans;-inkscape-font-specification:Sans"
       d="m 142.18687,137.89908 -1.07694,31.95772 2.40434,0.0751 1.07694,-31.93268 -2.40434,-0.10018 z"
       id="path3864"
       inkscape:connector-curvature="0" />
    <path
       d="m 137.14455,150.32398 6.31787,-15.55989 5.26767,15.94607 c -3.33616,-2.63067 -8.01586,-2.77214 -11.58554,-0.38618 z"
       style="fill-rule:evenodd;stroke-width:0.80144762000000003;stroke-linejoin:round;fill:#00ffff;fill-opacity:1;stroke-miterlimit:4;stroke-dasharray:none;stroke:#000000;stroke-opacity:1"
       id="path4318"
       inkscape:connector-curvature="0" />
    <g
       id="g4507">
      <path
         style="font-size:medium;font-style:normal;font-variant:normal;font-weight:normal;font-stretch:normal;text-indent:0;text-align:start;text-decoration:none;line-height:normal;letter-spacing:normal;word-spacing:normal;text-transform:none;direction:ltr;block-progression:tb;writing-mode:lr-tb;text-anchor:start;baseline-shift:baseline;color:#000000;fill:#000000;fill-opacity:1;stroke:none;stroke-width:3;marker:none;visibility:visible;display:inline;overflow:visible;enable-background:accumulate;font-family:Sans;-inkscape-font-specification:Sans"
         d="m 340.29471,137.2479 0,8.16475 0,24.84488 2.40434,0 0,-24.84488 0,-8.16475 -2.40434,0 z"
         id="path4320"
         inkscape:connector-curvature="0" />
      <path
         d="m 335.68497,149.8147 5.79599,-15.76173 5.79598,15.76173 c -3.42194,-2.51807 -8.10376,-2.50356 -11.59197,0 z"
         style="fill-rule:evenodd;stroke-width:0.80144762000000003;stroke-linejoin:round;stroke:#000000;stroke-opacity:1;stroke-miterlimit:4;stroke-dasharray:none;fill:#00ffff;fill-opacity:1"
         id="path4513"
         inkscape:connector-curvature="0" />
    </g>
  </g>
  <path
     style="fill:none;stroke:#00ff00;stroke-width:3;stroke-linecap:butt;stroke-linejoin:miter;stroke-miterlimit:4;stroke-opacity:1;stroke-dasharray:none"
     d="m 37.214177,111.87119 c -5.897123,2.93994 -11.17254,7.20956 -14.994921,12.57693 -3.822381,5.36738 -6.150049,11.84665 -6.270323,18.43488 -0.09767,5.35018 1.255339,10.70184 3.753709,15.43386 2.498369,4.73203 6.12659,8.84412 10.42312,12.03375 6.306675,4.68191 13.942015,7.33503 21.688296,8.63486 7.746282,1.29983 15.648183,1.30646 23.500348,1.11171 23.072939,-0.57225 46.334944,-2.84111 69.112044,0.88605 15.44862,2.52795 30.45729,7.78948 46.07469,8.86052 14.48208,0.99318 28.93522,-1.65394 43.41654,-2.65816 16.50573,-1.1446 33.07425,-0.15263 49.61891,0 18.32413,0.16905 36.64213,-0.69241 54.93521,-1.7721 17.42329,-1.02836 34.96924,-2.25127 52.27706,0 17.48012,2.27368 34.67755,8.07922 52.27705,7.08842 14.70714,-0.82796 28.77325,-6.37459 43.41654,-7.97447 8.71283,-0.95194 17.50831,-0.49374 26.27295,-0.47128 8.76465,0.0224 17.65269,-0.41336 26.00411,-3.07293 10.30342,-3.2812 19.27166,-9.7814 27.46761,-16.83498 4.15877,-3.57911 8.26675,-7.45418 10.63262,-12.40473 2.38256,-4.98547 2.80101,-10.82616 1.4384,-16.18105 -1.3626,-5.35489 -4.45239,-10.21233 -8.52681,-13.94471 -7.68982,-7.04427 -18.24446,-9.84365 -28.35366,-12.40473 -15.84306,-4.0137 -31.71298,-8.0226 -47.8468,-10.632619 -18.72525,-3.029241 -37.74859,-4.158745 -56.70732,-3.544207 -19.52088,0.63276 -38.95318,3.106981 -58.47942,3.544207 -20.96973,0.469548 -41.94131,-1.412669 -62.90968,-0.886051 -15.36792,0.385963 -30.70472,2.065327 -46.07469,1.772103 -16.56566,-0.316036 -33.05235,-2.922374 -49.61891,-2.658155 -15.99541,0.25511 -31.85341,3.183957 -47.8468,3.544212 -19.50832,0.43943 -39.00157,-2.947226 -58.47942,-1.772109 -13.09665,0.790133 -25.97446,3.631289 -38.986276,5.316309 -12.648818,1.63801 -25.799593,2.28387 -37.214177,7.97447"
     id="path4515"
     inkscape:path-effect="#path-effect4517"
     inkscape:original-d="m 37.214177,111.87119 c -10.412285,6.97776 -20.484831,18.50198 -21.265244,31.01181 -0.641524,10.28347 5.995535,21.2044 14.176829,27.46761 12.235472,9.36689 29.877005,8.01475 45.188644,9.74657 22.893274,2.58933 46.191154,-1.44622 69.112044,0.88605 15.5593,1.58321 30.46749,7.85371 46.07469,8.86052 14.4692,0.9334 28.92404,-2.21493 43.41654,-2.65816 16.53191,-0.50561 33.08142,0.26666 49.61891,0 18.31888,-0.29539 36.61633,-1.47671 54.93521,-1.7721 17.42342,-0.28095 34.89092,-1.17335 52.27706,0 17.54523,1.18409 34.69674,7.50056 52.27705,7.08842 14.71023,-0.34485 28.81647,-6.14478 43.41654,-7.97447 17.33013,-2.17183 35.63737,1.76344 52.27706,-3.54421 10.23088,-3.2634 19.2959,-9.86764 27.46761,-16.83498 4.14416,-3.53338 9.34461,-7.11324 10.63262,-12.40473 2.43983,-10.02348 -0.48417,-22.20067 -7.08841,-30.12576 -6.60424,-7.92509 -18.54682,-9.20332 -28.35366,-12.40473 -15.53137,-5.07016 -31.6699,-8.34397 -47.8468,-10.632619 -18.75258,-2.653051 -37.76801,-3.52634 -56.70732,-3.544207 -19.5289,-0.01842 -38.95578,3.090704 -58.47942,3.544207 -20.96632,0.487014 -41.93926,-1.141473 -62.90968,-0.886051 -15.36845,0.187189 -30.70554,1.887971 -46.07469,1.772103 -16.56288,-0.124867 -33.05642,-2.827255 -49.61891,-2.658155 -15.9918,0.163273 -31.85798,3.195242 -47.8468,3.544212 -19.49744,0.42555 -39.00432,-2.797775 -58.47942,-1.772109 -13.09754,0.689789 -26.067065,3.054579 -38.986276,5.316309 -12.496281,2.18768 -26.675468,0.91199 -37.214177,7.97447 z"
     inkscape:connector-curvature="0"
     transform="matrix(0.80144762,0,0,0.80144762,-0.42071429,0)"
     sodipodi:nodetypes="aaaaaaaaaaaaaaaaaaaaaaaaaaa" />
  <g
     id="g4705">
    <path
       style="font-size:medium;font-style:normal;font-variant:normal;font-weight:normal;font-stretch:normal;text-indent:0;text-align:start;text-decoration:none;line-height:normal;letter-spacing:normal;word-spacing:normal;text-transform:none;direction:ltr;block-progression:tb;writing-mode:lr-tb;text-anchor:start;baseline-shift:baseline;color:#000000;fill:#000000;fill-opacity:1;stroke:none;stroke-width:3;marker:none;visibility:visible;display:inline;overflow:visible;enable-background:accumulate;font-family:Sans;-inkscape-font-specification:Sans"
       d="m 239.46258,62.312552 -0.35064,23.066665 2.40435,0.02505 0.35063,-23.066664 -2.40434,-0.02505 z"
       id="path4519"
       inkscape:connector-curvature="0" />
    <path
       d="m 246.32325,72.911673 -6.03777,15.670709 -5.55284,-15.849028 c 3.38281,2.570407 8.0643,2.62792 11.59061,0.178319 z"
       style="fill-rule:evenodd;stroke-width:0.80144762000000003;stroke-linejoin:round;stroke:#000000;stroke-opacity:1;stroke-miterlimit:4;stroke-dasharray:none;fill:#00ff00;fill-opacity:1"
       id="path4711"
       inkscape:connector-curvature="0" />
  </g>
</svg>
