<?xml version="1.0" encoding="UTF-8" standalone="no"?>
<!-- Generated by graphviz version 2.34.0 (20130907.0228)
 -->

<!-- Title: G Pages: 1 -->

<svg
   xmlns:dc="http://purl.org/dc/elements/1.1/"
   xmlns:cc="http://creativecommons.org/ns#"
   xmlns:rdf="http://www.w3.org/1999/02/22-rdf-syntax-ns#"
   xmlns:svg="http://www.w3.org/2000/svg"
   xmlns="http://www.w3.org/2000/svg"
   xmlns:sodipodi="http://sodipodi.sourceforge.net/DTD/sodipodi-0.dtd"
   xmlns:inkscape="http://www.inkscape.org/namespaces/inkscape"
   width="326pt"
   height="116pt"
   viewBox="0.00 0.00 326.00 116.00"
   id="svg4255"
   version="1.1"
   inkscape:version="0.48.5 r10040"
   sodipodi:docname="untokenized.svg"
   inkscape:export-filename="/Users/djb/balisage_2017/Balisage-1-3-xsl/untokenized.png"
   inkscape:export-xdpi="90"
   inkscape:export-ydpi="90">
  <metadata
     id="metadata4294">
    <rdf:RDF>
      <cc:Work
         rdf:about="">
        <dc:format>image/svg+xml</dc:format>
        <dc:type
           rdf:resource="http://purl.org/dc/dcmitype/StillImage" />
        <dc:title></dc:title>
      </cc:Work>
    </rdf:RDF>
  </metadata>
  <defs
     id="defs4292">
    <marker
       inkscape:stockid="Arrow2Mend"
       orient="auto"
       refY="0.0"
       refX="0.0"
       id="Arrow2Mend"
       style="overflow:visible;">
      <path
         id="path3825"
         style="fill-rule:evenodd;stroke-width:0.62500000;stroke-linejoin:round;"
         d="M 8.7185878,4.0337352 L -2.2072895,0.016013256 L 8.7185884,-4.0017078 C 6.9730900,-1.6296469 6.9831476,1.6157441 8.7185878,4.0337352 z "
         transform="scale(0.6) rotate(180) translate(0,0)" />
    </marker>
    <inkscape:path-effect
       effect="spiro"
       id="path-effect4302"
       is_visible="true" />
    <inkscape:path-effect
       effect="spiro"
       id="path-effect4298"
       is_visible="true" />
  </defs>
  <sodipodi:namedview
     pagecolor="#ffffff"
     bordercolor="#666666"
     borderopacity="1"
     objecttolerance="10"
     gridtolerance="10"
     guidetolerance="10"
     inkscape:pageopacity="0"
     inkscape:pageshadow="2"
     inkscape:window-width="1098"
     inkscape:window-height="732"
     id="namedview4290"
     showgrid="false"
     inkscape:zoom="1.609816"
     inkscape:cx="231.29733"
     inkscape:cy="92.566549"
     inkscape:window-x="0"
     inkscape:window-y="0"
     inkscape:window-maximized="0"
     inkscape:current-layer="graph0" />
  <g
     id="graph0"
     class="graph"
     transform="scale(1 1) rotate(0) translate(4 112)">
    <title
       id="title4258">G</title>
    <polygon
       fill="white"
       stroke="white"
       points="-4,4 -4,-112 322,-112 322,4 -4,4"
       id="polygon4260" />
    <!-- document -->
    <g
       id="node1"
       class="node">
      <title
         id="title4263">document</title>
      <ellipse
         fill="beige"
         stroke="black"
         cx="159"
         cy="-90"
         rx="46.1964"
         ry="18"
         id="ellipse4265"
         d="m 205.1964,-90 c 0,9.941125 -20.68283,18 -46.1964,18 -25.51357,0 -46.1964,-8.058875 -46.1964,-18 0,-9.941125 20.68283,-18 46.1964,-18 25.51357,0 46.1964,8.058875 46.1964,18 z" />
      <text
         text-anchor="middle"
         x="159"
         y="-86.3"
         font-family="Times,serif"
         font-size="14.00"
         id="text4267">document</text>
    </g>
    <!-- text -->
    <g
       id="node3"
       class="node">
      <title
         id="title4270">text</title>
      <ellipse
         fill="pink"
         stroke="black"
         cx="159"
         cy="-18"
         rx="159.329"
         ry="18"
         id="ellipse4272"
         d="M 318.32899,-18 C 318.32899,-8.0588745 246.99497,0 159,0 71.005026,0 -0.32899475,-8.0588745 -0.32899475,-18 c 0,-9.941125 71.33402075,-18 159.32899475,-18 87.99497,0 159.32899,8.058875 159.32899,18 z" />
      <text
         text-anchor="middle"
         x="159"
         y="-14.3"
         font-family="Times,serif"
         font-size="14.00"
         id="text4274">No longer mourn for me when I am dead</text>
    </g>
    <!-- document&#45;&gt;text -->
    <g
       id="edge1"
       class="edge">
      <title
         id="title4277">document-&gt;text</title>
      <path
         fill="none"
         stroke="black"
         d="M159,-71.6966C159,-63.9827 159,-54.7125 159,-46.1124"
         id="path4279" />
      <polygon
         fill="black"
         stroke="black"
         points="162.5,-46.1043 159,-36.1043 155.5,-46.1044 162.5,-46.1043"
         id="polygon4281" />
    </g>
    <!-- line -->
    <g
       id="node2"
       class="node">
      <title
         id="title4284">line</title>
      <ellipse
         fill="green"
         stroke="black"
         cx="251"
         cy="-90"
         rx="27"
         ry="18"
         id="ellipse4286"
         d="m 278,-90 c 0,9.941125 -12.08831,18 -27,18 -14.91169,0 -27,-8.058875 -27,-18 0,-9.941125 12.08831,-18 27,-18 14.91169,0 27,8.058875 27,18 z"
         style="fill:#00ff00;fill-opacity:1" />
      <text
         text-anchor="middle"
         x="251"
         y="-86.3"
         font-family="Times,serif"
         font-size="14.00"
         id="text4288">line</text>
      <path
         style="fill:none;stroke:#00ff00;stroke-width:3;stroke-linecap:butt;stroke-linejoin:miter;stroke-opacity:1;fill-opacity:1;stroke-miterlimit:4;stroke-dasharray:none"
         d="m 203.75,142.51524 c 15.93415,0.62026 31.88812,0.29779 47.83156,0 14.49843,-0.2708 29.00022,-0.5212 43.48323,-1.24237 13.89567,-0.69192 27.76662,-1.81686 41.61966,-3.10595 12.02202,-1.11871 24.03252,-2.36117 36.02896,-3.72713 l 26.71113,-6.83308 6.21189,-7.45427 -1.86356,-13.04497 -15.52973,-11.181403 -22.3628,-5.590701 -29.19589,-4.969512 c -10.76029,-0.574868 -21.52917,-0.989055 -32.30183,-1.242378 -10.14543,-0.238573 -20.29407,-0.334477 -30.43826,-0.621189 -9.94388,-0.281051 -19.88164,-0.745398 -29.81707,-1.242378 -7.86946,-0.393638 -15.73789,-0.807767 -23.60519,-1.242379 -10.14507,0.253419 -20.2913,0.460485 -30.43826,0.621189 -18.01774,0.285359 -36.042,0.424658 -54.04344,1.242379 -19.31332,0.877314 -38.591158,2.535622 -57.770583,4.969512 l -44.104421,6.833079 -30.4382619,9.939021 -6.2118902,11.18141 3.10594512,10.56021 7.45426828,4.96951 c 9.2953277,1.40404 18.6150357,2.64667 27.9535057,3.72714 12.608113,1.45878 25.24853,2.62179 37.892531,3.72713 11.170056,0.97649 22.346379,1.90825 33.544206,2.48476 10.55017,0.54317 21.11756,0.77073 31.68064,0.62118 12.01115,-0.17005 24.01838,-0.82755 36.02896,-0.62118 9.53291,0.16379 19.0476,0.87152 28.5747,1.24237"
         id="path4296"
         inkscape:path-effect="#path-effect4298"
         inkscape:original-d="m 203.75,142.51524 47.83156,0 43.48323,-1.24237 41.61966,-3.10595 36.02896,-3.72713 26.71113,-6.83308 6.21189,-7.45427 -1.86356,-13.04497 -15.52973,-11.181403 -22.3628,-5.590701 -29.19589,-4.969512 -32.30183,-1.242378 -30.43826,-0.621189 -29.81707,-1.242378 -23.60519,-1.242379 -30.43826,0.621189 -54.04344,1.242379 -57.770583,4.969512 -44.104421,6.833079 -30.4382619,9.939021 -6.2118902,11.18141 3.10594512,10.56021 7.45426828,4.96951 27.9535057,3.72714 37.892531,3.72713 33.544206,2.48476 31.68064,0.62118 36.02896,-0.62118 z"
         inkscape:connector-curvature="0"
         transform="matrix(0.8,0,0,0.8,-4,-112)" />
      <g
         id="g4488">
        <path
           style="font-size:medium;font-style:normal;font-variant:normal;font-weight:normal;font-stretch:normal;text-indent:0;text-align:start;text-decoration:none;line-height:normal;letter-spacing:normal;word-spacing:normal;text-transform:none;direction:ltr;block-progression:tb;writing-mode:lr-tb;text-anchor:start;baseline-shift:baseline;color:#000000;fill:#000000;fill-opacity:1;stroke:none;stroke-width:3;marker:none;visibility:visible;display:inline;overflow:visible;enable-background:accumulate;font-family:Sans;-inkscape-font-specification:Sans"
           d="m 238.9,-73.975 -13.675,33.05 2.225,0.9 13.65,-33.05 -2.2,-0.9 z"
           id="path4300"
           inkscape:connector-curvature="0" />
        <path
           d="m 236.50237,-49.85928 -11.35883,12.328211 0.66602,-16.750052 c 2.19598,3.628072 6.52018,5.400601 10.69281,4.421841 z"
           style="fill-rule:evenodd;stroke-width:0.8;stroke-linejoin:round;fill:#00ff00;fill-opacity:1;stroke:#000000;stroke-opacity:1;stroke-miterlimit:4;stroke-dasharray:none"
           id="path4494"
           inkscape:connector-curvature="0" />
      </g>
    </g>
  </g>
</svg>
